<?xml version="1.0" encoding="utf-8"?>
<!-- Generator: Adobe Illustrator 19.0.0, SVG Export Plug-In . SVG Version: 6.00 Build 0)  -->
<svg version="1.1" id="Layer_1" xmlns="http://www.w3.org/2000/svg" xmlns:xlink="http://www.w3.org/1999/xlink" x="0px" y="0px"
	 viewBox="0 0 1024 1024" style="enable-background:new 0 0 1024 1024;" xml:space="preserve">
<style type="text/css">
	.st0{fill-rule:evenodd;clip-rule:evenodd;fill:#020202;}
</style>
<path class="st0" d="M267,874c-56.3-1.3-112.7-2.7-169-4c0.2-18.3,2.9-46-1-62c-2.6-10.5,0.5-24.9-2-35c-2.3-9.6,0.1-21.2-2-30
	c0-4.7,0-9.3,0-14c-4.4-17.8-2.7-38.8-7-56c-1-11.7-2-23.3-3-35c-4.3-17.2-5.6-36-10-52c-0.7-5.3-1.3-10.7-2-16
	c-5.9-20.8-7.6-42.7-14-63c-10.6-33.4-18-67.2-30-99c-2.1-5.6-14.5-31.6-13-37c5.7-20.7,28-23.1,37-40c3.3-6.1,3.4-12.3,6-19
	c1.8-4.7,5.4-10.4,7-15c3.6-10.1,1.2-21.9,4-33c6-24.1,5.1-54.1,8-80c14.9-3.4,25.7-16.5,40-21c0,4.3,0,8.7,0,13
	c-3.5,5-2.1,26.9-4,35c-2.5,10.7-1.6,22.9,1,33c0.7,6.3,1.3,12.7,2,19c7.1,23.5,21.9,37.3,42,48c5.1,2.7,26.5,12,35,10
	c33.3-8,55.7-28,65-60c0.3-9.7,0.7-19.3,1-29c0-23.8-3.4-46.2-4-68c0.7,0,1.3,0,2,0c6.6,6.3,18.8,10.7,27,15c5.8,3.1,11.8,1.9,12,11
	c3.5,5.1,0.2,23.7,2,31c6,24.4,6.5,51.8,13,75c1,6,2,12,3,18c3.3,9.8,14.4,26.4,22,32c8.5,6.3,18.7,11.7,20,25c0.4,4.3-2.8,9.9-4,13
	c-2.9,7.7-2.9,14.6-6,22c-1.6,3.8-4.6,9-6,13c-4.9,14.1-6.2,27.6-11,42c-9.1,27.1-15.9,57.3-24,85c-3.7,12.5-3.8,26.2-7,38
	c-0.3,4-0.7,8-1,12c-5.6,20.5-6.6,44.8-12,66c-2,8.1-1.2,17.5-3,25c-3.2,13.3-1,28.5-4,41c0,3.3,0,6.7,0,10c-3.1,12.9-1.9,28.9-5,42
	c0,8,0,16,0,24c-1.9,7.8,1.2,20-1,29C268.1,845,268.4,861.7,267,874z"/>
<path class="st0" d="M916,873c-56.7,0-113.3,0-170,0c0.2-18,2.9-45.3-1-61c-2.3-9.3,0.1-20.5-2-29c0-5.7,0-11.3,0-17
	c-2.2-9-1.8-21.2-4-30c0-4.7,0-9.3,0-14c-3.7-14.7-3.4-32.6-7-47c-0.7-8-1.3-16-2-24c-5.3-20.5-7.5-42.6-13-62
	c-3.2-11.2-1.6-23.6-5-35c-5.5-18.6-11-38.4-17-56c-2-9.3-4-18.7-6-28c-1.4-4.2-4.4-9.2-6-13c-7.8-18.1-11.8-36.1-19-55
	c-2.5-6.5-8.1-11.3-10-18c-3.3-11.7,1.8-27.3,10-30c7.2-4.8,19.2,2.1,28,0c9.4-2.3,21.1-0.4,31-3c7.8-2,16.5-4.8,24-7
	c4.5-1.3,7.1-0.3,11-2c23.6-10.2,37-38.6,24-70c-8.9-21.5-27.8-40.6-41-59c-5.7-7.9-15.8-14.9-19-25c8-2.2,14.6-9.7,21-14
	c5.6-3.7,12.6-6.1,17-11c9.1,2.3,15.5,10.2,24,13c5.7,0.3,11.3,0.7,17,1c18.1,4.4,47.8,4.5,66,0c7.7-0.7,15.3-1.3,23-2
	c1.8-0.7,10.4-8.3,12-10c9.5,2.1,24,13.9,32,19c3.5,2.2,7.3,2,9,6c-5.6,4.2-9.8,12.3-14,18c-2.7,2.3-5.3,4.7-8,7
	c-6.2,8.5-10.9,17.3-17,26c-9.7,13.9-19.6,24.1-25,43c-2.9,10.1,1.5,26.2,2,35c2.7,1.7,2.9,3.7,5,6c1.5,1.6,3.2,1.6,5,3
	c5.4,4.1,9.2,11.2,15,15c5.7,3.8,13.6,2.8,21,5c6.6,1.9,14.8,5.2,21,7c18.7-0.3,37.3-0.7,56-1c3.4,5,11.3,10.9,8,22
	c-6.3,20.9-16.6,42.2-25,62c-6.3,15-7.9,30.8-13,47c-9.7,37.7-19.3,75.3-29,113c-0.3,4-0.7,8-1,12c-4.4,16.7-4.7,37.1-9,54
	c-0.3,4.7-0.7,9.3-1,14c-4.4,17-4.6,37.5-9,55c-0.3,7-0.7,14-1,21c-1.5,6.2-1.5,15.8-3,22c0,4,0,8,0,12c-2,8.1,0.2,18.9-2,28
	c-1.5,6.2,0.8,16.6-1,24C915.9,848.9,916.1,863.6,916,873z"/>
<path class="st0" d="M452,391c66,0,132,0,198,0c0.2,15.2-0.9,31.2-1,45c-0.1,11.2,1.3,25.5-1,35c-0.3,18-0.7,36-1,54
	c-1.9,7.7-0.9,16.9-3,25c-4.4,17.2-5.5,37.1-10,54c-0.3,4-0.7,8-1,12c-3.7,18.7-7.3,37.3-11,56c-7.7,22.4-16.8,47.1-26,69
	c-4.3,13-8.7,26-13,39c-3.3,7.2-9.2,14.9-13,22c-3.1,5.9-8.4,20.6-14,23c0-0.3,0-0.7,0-1c-6.2-4.8-8.2-14.8-12-22
	c-11.3-21.6-19-45.6-29-69c-14.5-33.9-26-70.2-37-108c-1.3-11.3-2.7-22.7-4-34C458.7,533,452.7,463.9,452,391z"/>
<path class="st0" d="M478,827c-62.7,0-125.3,0-188,0c-1.9-137.5,16.3-261.5,58-356c8.9-20.1,15.8-40.6,26-59c2.9-5.3,5.6-16.5,12-18
	c1.1,0.9,0.2,0.4,2,1c10.7,25.9,23.5,50.1,35,76c1.4,3.1,4.8,6.8,6,10c2.7,7,2.6,12,5,19c4.7,13.7,10.6,29.1,15,43
	c4.5,14.2,3.8,28.6,8,43c4.2,14.4,6.1,32,10,47c0.3,4.7,0.7,9.3,1,14c2.5,9.6,2.5,21.9,5,32c0,3.7,0,7.3,0,11c1.4,5.9,1.5,15.1,3,21
	c0,4.3,0,8.7,0,13c0.9,3.7-0.2,11.1,1,16c2.6,10.7,3.9,30.5,1,42C478,797,478,812,478,827z"/>
</svg>
