<?xml version="1.0" encoding="utf-8"?>
<!-- Generator: Adobe Illustrator 19.0.0, SVG Export Plug-In . SVG Version: 6.00 Build 0)  -->
<svg version="1.1" id="Layer_1" xmlns="http://www.w3.org/2000/svg" xmlns:xlink="http://www.w3.org/1999/xlink" x="0px" y="0px"
	 viewBox="0 0 1024 1024" style="enable-background:new 0 0 1024 1024;" xml:space="preserve">
<style type="text/css">
	.st0{fill-rule:evenodd;clip-rule:evenodd;fill:#020202;}
</style>
<g>
	<g>
		<path class="st0" d="M1012,365c-17,0.7-34,1.3-51,2c-32.3-7.8-68-6.2-84-30c-6.5-9.7-8.8-20.8-12-34c-1.4-5.8,1.9-14.8-1-19v-5
			c-7-1.5-14.1-3.7-22-4v-31c9.4,0.2,29.5,2.8,35,7c5.9-1.3,7-7.7,10-12c2.8-4,7.2-8,10-12c3.1-4.4,4.8-9.8,9-13
			c-1.7-6.8-17.7-7.9-25-10c-5-1.4-11.4-1-18,0h-51c-6.8,0-20.7-3-25-2c-10.3,2.5-20.6,8.5-31,10c1.4,4.2,4.7,5.9,7,9
			c7.1,9.8,16.7,19,22,30c3.2-0.4,30.4-5.9,32-7c3.1,0,5.1,0.3,7,1v30c-9,0.4-15.8,3.2-24,4c-2.2,6.7,0.9,17.1-1,25
			c-1.9,8-2.5,18-6,25c-18.7,36.7-83.7,36.1-139,36c-0.2,7.4-1.9,15.8,1,23c1.3,3.2,5.5,5.6,7,9c0.7,3,1.3,6,2,9
			c3.8,9.3,8.2,20.9,12,30c2.8,6.7,3.2,12.3,6,19c2.4,5.8,6.1,12.3,8,19c2.1,7.4,4.3,28.8,8,33h2c7.5,6.6,14.3,12.2,23,18
			c25.4,17,58.1,33.3,100,33v1h1v40c-35.1-0.4-63.4-9.2-88-20c-7.2-3.2-15.7-4.9-21-10h-1c0.5,14.9,5.3,30.2,9,43
			c1.5,5.1,0.1,14.5,4,17c8,5.1,22,5.9,32,9c25.7,8,77.9,14.5,109,7c6.7-0.7,13.3-1.3,20-2c10.5-2.8,21.5-4.5,32-8
			c6.6-2.2,13.2-6.1,21-7c0.7-14.6,4.2-30.8,8-43c1.7-5.5,0.9-11.9,4-16v-1c-9.7,2.7-18.9,10.1-28,14c-2,0.3-4,0.7-6,1
			c-20.9,8.8-47.7,16.6-77,16c-0.1-7.6-1.9-35.9,1-40c5.1-3.6,21.9-2,29-4c18.3-5.3,36.6-9.6,52-18c10.5-5.8,21.3-12.9,31-20
			c1.3-1.7,2.7-3.3,4-5c3.3-2.4,5.2-4.4,8-7h2c1.7-8,3.3-16,5-24c5.6-17.5,9.8-36.4,17-53C998.2,411.3,1012.8,384.5,1012,365z
			 M823,512c-54.9-3.1-90.5-31.9-113-68c-9.5-15.2-17.7-33.7-19-57h33c5.3,52.9,46.8,88.7,100,94C824.1,490.5,825.7,504.4,823,512z
			 M972,403c-3.8,12.4-7.7,23.8-13,34c-19.8,38.2-61.6,73.1-117,75v-31c9.8-1.8,20.4-2.5,29-6c36-14.8,65.3-42.1,70-88
			c6.5-0.1,28.4-1.6,32,1C973.9,389,973,399.7,972,403z M268,264c0.6,1,6.7,4,8,5c6.3,4.7,14.7,12.4,19,19h2c-3.1-8.3-1.5-18.3-4-28
			c-2-13-4-26-6-39c-7-1.6-12.4-5.2-20-6c-0.1,4.8-1.2,14.1,1,17V264z M101,246v-30c-4.4,0.6-13.2,2.3-16,5c-1,0.3-2,0.7-3,1
			c0,12.6-0.4,26.1-3,37c-1,4.3,1.1,10-1,13v13c9.5-6.1,14.9-15.9,26-21C103,258,102,252,101,246z M329,352h-2c0.3,4.7,0.7,9.3,1,14
			c-6.5,0.1-28.4,1.6-32-1c-4-5.1-2.6-15.6-5-22c-7.1-19.1-19.5-39.2-36-49v-1h-1c-16,25.4-49.9,41.6-87,31c-4-0.7-8-1.3-12-2
			c-6.7-2.8-22-13.1-27-18c-3.4-3.3-5.2-8.2-9-11c-2.4-2.4-12.7,9.7-15,12c-13.6,13.6-27.3,34.3-28,60h-1v1H43v-9
			c-9.7,4.7-19.3,9.3-29,14c0.5,13.1,7.7,23.8,12,34c1.7,6,3.3,12,5,18c5.2,13.6,10.2,29,15,43c3.5,10.3,5,20.6,8,30
			c1.4,4.4,0.7,8.8,3,12c3.1,7.4,18.9,14.6,26,19c16.7,10.5,35.7,17.7,57,24c12.3,1.7,24.7,3.3,37,5c0.1,7.6,1.9,35.9-1,40
			c-1.6,1.1-25.5-0.8-30-2c-21.1-5.4-38.2-9.2-56-17c-6.1-2.7-13.6-3.7-18-8h-2c3.7,17.5,10.2,39.7,11,58c7.1,1.6,14.5,4.8,21,7
			c9.6,3.2,20.4,4.5,30,7c7.3,1.9,15.3,1.4,22,3h11c6,1.4,33.6,2.7,41,1c17.4-4.1,35.4-3.2,52-8c10.4-3,20.9-8.6,32-10
			c3.3-18,6.7-36,10-54v-4c-9.1,2.4-17.5,8.4-26,12c-19.6,8.3-51.7,15.6-79,15c-0.1-7.6-1.9-35.9,1-40c2.4-1.7,6.4-0.1,10-1
			c9.7-1.7,19.3-3.3,29-5c22.5-6.6,41.5-15.9,59-27c5.9-3.7,17.8-9.3,21-15c2.7-11,5.3-22,8-33c7.5-22.5,13.9-47.7,22-69
			c3-7.8,4.3-22.2,9-28C353.1,370.7,333.7,359.3,329,352z M176,508c-1.7,0.9-9.1-0.3-12-1c-3.7-0.3-7.3-0.7-11-1
			c-8.4-2.4-17.6-5.8-25-9c-38.4-16.4-62.9-41.2-78-81c-3.5-9.4-7.1-19.9-7-33h33c0.4,14.4,5.9,26.2,11,36
			c14.6,27.9,47.5,57.9,89,58v1h1C177.1,484.2,178.5,504.6,176,508z M307,444c-19.3,29.1-44.7,47.9-81,60l-30,5
			c-0.9-1.1,0.1-0.1-1-1c-0.1-6.2-1.5-26.6,1-30c3.1-2.2,7.6-0.8,12-2c7.3-2,16-4,23-7c30.7-13.3,61.6-44.7,64-86h33
			C327.9,408.6,317.4,428.3,307,444z M231,683c-24.8,6.2-74.2,4.9-98-1c-4.3-0.3-8.7-0.7-13-1c-8-2.1-17.7-4.7-25-7
			c-3.7-1.2-5.6,0-8-2h-1c2.2,11.2,2.4,25.1,5,36c0.9,3.9-0.8,8.4,1,11v5c15.5,3.2,33.9,5.1,50,9c8.7,0.3,17.3,0.7,26,1
			c6.4,1.5,27.2,2.8,35,1c13.4-3.2,28.4-0.6,42-4c9.7-2.4,21.4-5.6,32-6c2.9-7.8,0.7-17.4,3-27c1.7-7.2,3-16.8,3-25
			c-12.7,3-25.3,6-38,9C240.3,682.3,235.7,682.7,231,683z M880,686c-6.3,0.3-12.7,0.7-19,1c-22.9,5.5-68.1,1.2-88-4
			c-10.5-2.8-32.4-3.5-39-9h-2c1.7,4.8,0.5,10.1,2,16c2.7,10.7,4,24.4,5,36c13.7,2.7,27.3,5.3,41,8c10.8,2.7,23.6,0.5,34,3
			c8,1.9,29.5,0.5,36-1c8.7-0.3,17.3-0.7,26-1c6.6-1.6,14.7-1.1,22-3c9.3-2,18.7-4,28-6c3.1-8.5,1.5-18.3,4-28
			c1.8-6.8,3.7-16.2,4-24c-9,1.1-17.9,4.7-26,7C898.8,683.7,888.6,683.9,880,686z"/>
	</g>
</g>
</svg>
