<?xml version="1.0" encoding="utf-8"?>
<!-- Generator: Adobe Illustrator 19.0.0, SVG Export Plug-In . SVG Version: 6.00 Build 0)  -->
<svg version="1.1" id="Layer_1" xmlns="http://www.w3.org/2000/svg" xmlns:xlink="http://www.w3.org/1999/xlink" x="0px" y="0px"
	 viewBox="0 0 1024 1024" style="enable-background:new 0 0 1024 1024;" xml:space="preserve">
<style type="text/css">
	.st0{fill:#070808;}
</style>
<g>
	<g>
		<path class="st0" d="M231.1,372.3c-0.1-1.5-0.2-3.1-0.3-4.6c-1-2.9-1.3-6.2-2.4-9c-4.6-12.1-13.2-20.1-24.6-25.8
			c-0.7-0.4-1.3-0.3-2.1-0.6c-2.4-1-5.4-1.6-8.2-2.4c-1.1-0.3-2.3-0.2-3.4-0.4c-0.7-0.2-1.6,0.2-2.1-0.1
			c-18.3-0.4-31.7,8.7-38.9,19.4c-0.8,1.2-1.7,2.7-2.7,3.8c-0.2,0.3-0.1,0.7-0.3,1c-0.7,1.3-1.3,2.6-1.9,4.1c-0.3,0.7-1.3,2.4-1,3.1
			c-0.7,1.3-0.7,2.8-1.2,4.4c-2,6.9-0.9,16.6,1.2,22.4c0.5,1.4,0.5,2.7,1.2,4c6.3,12.3,13.6,20.1,27.1,25.3c2.7,1.1,5.9,1.3,9,2.1
			c1,0.3,2.2,0.1,3.1,0.3c1.4,0.3,5.7,0,6.8-0.3c0.5,0,1.1,0,1.6,0c0.6-0.1,1.7-0.4,2.2-0.6c0.4,0,0.8,0,1.2,0c3.5-1,7.1-2,10-3.6
			c0.8-0.4,1.5-0.5,2.2-0.9c0.7-0.4,1.4-1.1,2.1-1.5c0.1,0,0.3,0,0.4,0l0.4-0.3c0-0.1,0-0.2,0-0.3c0.4-0.3,0.9-0.3,1.3-0.6
			c1.2-0.9,2.3-2,3.4-3c0.2-0.2,0.8-0.4,1-0.6c0-0.1,0-0.2,0-0.3c0.1,0,0.2,0,0.3,0c0-0.1,0-0.2,0-0.3c0.1,0,0.2,0,0.3,0
			c0-0.1,0-0.2,0-0.3c0.1,0,0.2,0,0.3,0c0.5-0.4,0.8-1,1.2-1.5c0.1,0,0.2,0,0.3,0c0-0.1,0-0.2,0-0.3c0.1,0,0.2,0,0.3,0
			c0.2-0.2,0.1-0.4,0.3-0.6c0.1,0,0.2,0,0.3,0c3.9-4.2,7-9.9,9.3-15.9c0.5-1.3,0.5-2.5,0.9-4C230.6,382.3,231.9,375.8,231.1,372.3z
			 M225.8,385.3c-0.7,2-1,3.8-1.8,5.7c-4,9.2-11,16.1-19.7,20.6c-0.8,0.4-1.6,0.5-2.5,0.9c-2.8,1.2-5.6,1.8-8.8,2.7
			c-1.4,0.4-2.6-0.1-4.1,0.3c-1.2,0.3-3.8,0.3-5.1,0c-0.7,0-1.4,0-2.1,0c-3.1-0.8-6.3-1-9.1-2.1c-11-4.2-19.4-11.8-24.1-22.4
			c-1.2-2.7-1.8-5.9-2.7-9c-0.1-1-0.2-2-0.3-3c-1.1-4.9,0.2-12.7,1.5-16.3c0.6-1.7,0.8-3.1,1.5-4.6c5.1-11.4,14.4-19.4,26.9-23.3
			c3.9-1.2,8.4-1.3,13.4-1.3c0.5,0.3,1.4,0,2.1,0.1c1.1,0.3,2.5,0.2,3.7,0.6c2.9,0.8,5.8,1.5,8.4,2.7c10.4,4.5,17.6,12.8,22,23.5
			c1.1,2.5,1.4,5.6,2.1,8.4c0,0.9,0.1,1.9,0.1,2.8C228,375.5,226.7,382.5,225.8,385.3z M220.8,360.3c-3.3-7.6-8.5-13.8-15.6-17.8
			c-4.9-2.7-9.9-5.1-17.2-5.4c0,6.9,0,13.6,0,20.5c0,2.4-0.5,6.2,1.3,6.8c1.2,1.1,5.1-0.1,7.1,0.4c0.9,0.2,2.2,0.9,2.7,1.6
			c0.5,0.7,0.9,1.6,1.2,2.5c0.2,0.8,0.1,1.6,0,2.2c0,0.4,0,0.8,0,1.2c-0.5,1.6-1.6,3.2-3.1,3.8c-1.4,0.6-3.9,0.3-5.9,0.3
			c-2.9,0-5.9,0-8.8,0c-2,0-4.3-0.1-5.9,0.3c-0.4,0.7-0.6,1-0.6,2.2c0.4,0.4,0.3,0.7,0.9,0.9c0.4,0.3,1.7,0.1,2.4,0.1
			c1.9,0,4.2-0.2,5.7,0.3c4.2,1.6,3.1,8.8,3.1,14.6c1.9,0,4.2-0.1,5.9-0.4c0.5,0,1.1,0,1.6,0c2.4-0.4,4.8-0.8,7.2-1.2
			c2-0.6,4.3-1,6.5-1.8c2.4-0.9,4.9-2.1,7.1-3.3c0.1,0,0.3,0,0.4,0c0.2-0.1,0.4-0.5,0.6-0.6c0.1,0,0.3,0,0.4,0
			c0.9-0.5,1.8-1.5,2.7-2.1c0.2-0.2,0.5-0.1,0.7-0.3c0-0.1,0-0.2,0-0.3c0.3-0.3,0.8-0.4,1-0.7c0-0.4,0.1-0.8,0.1-1.2
			c0.2-0.5,0.4-1.5,0.6-2.1c0-0.3,0-0.7,0-1c1.2-5.2,0.2-12.1-1.2-16.2C221.4,362.5,221.3,361.5,220.8,360.3z M218.4,376.7
			c-4.1,0-8.4,0-12.5,0c-1.7-0.6-2.7-1.6-3.4-3.3c-0.4-0.8-1-2.4-0.6-3.8c0.3-1,0.9-1.8,1-3c-1.4-1.2-1.2-4.5-0.4-6.3
			c0.6-1.3,1.3-2.4,2.5-3c1-0.5,2.9-0.3,4.3-0.3c3,0,6.1,0,9.1,0c0,1.3,0,2.7,0,4c-3.7,0-7.6,0.1-11.2,0.1c-1.2,1.6-1.2,2,0.1,3.4
			c3.6,0,7.4,0,11.1,0c0,1.4,0,2.9,0,4.3c-0.8,0.3-2.1,0.1-3.1,0.1c-2.2,0-4.3,0-6.6,0c-0.5-0.4-1.9,0-2.1,0.7
			c-0.3,0.3-0.3,0.8-0.3,1.5c0.3,0.3,0.5,1,0.9,1.2c3.6,0,7.4,0,11.1,0C218.6,373.5,218.4,375.4,218.4,376.7z M177.1,384.5
			c-0.5,0-1.1,0-1.6,0c-0.9-0.3-2.1-1.1-2.7-1.8c-2.3-2.8-0.9-8.2,1.6-9.6c1.2-0.7,3.5-0.4,5.4-0.4c3.5,0,7,0,10.5,0
			c1.7,0,3.8,0.2,5.1-0.3c0.4-0.7,0.6-1,0.6-2.2c-0.4-0.4-0.3-0.7-0.9-0.9c-0.4-0.3-1.5-0.1-2.2-0.1c-1.8,0-3.6-0.1-5.4-0.1
			c-4.9-1.4-3.6-8.7-3.6-14.8c-1.8,0-4.1,0.1-5.7,0.4c-0.5,0-1.1,0-1.6,0c-2.4,0.4-4.8,0.8-7.2,1.2c-3.1,0.9-6.4,1.8-9.1,3
			c-0.5,0.2-0.7,0.1-1.2,0.3c-1,0.5-2.1,1.2-3.1,1.8c-0.5,0.3-1,0.3-1.5,0.6c-1.1,0.7-2.1,1.6-3.1,2.4c-0.4,0.3-1.1,0.6-1.3,1
			c-0.6,1.1-0.4,2.9-0.7,4.3c-1.2,5.2-0.2,12.1,1.2,16.2c0.9,2.5,1.6,4.4,2.7,6.6c0.2,0.4,0.2,0.8,0.4,1.2
			c6.1,9.9,15.6,17.8,30.5,18.8c0-6.4,0-12.6,0-19c0-2.4,0.5-6.2-0.6-7.6C182.5,384.1,179.3,384.5,177.1,384.5z"/>
	</g>
</g>
<circle class="st0" cx="832.5" cy="378" r="45.2"/>
</svg>
