<?xml version="1.0" encoding="utf-8"?>
<!-- Generator: Adobe Illustrator 19.0.0, SVG Export Plug-In . SVG Version: 6.00 Build 0)  -->
<svg version="1.1" id="Layer_1" xmlns="http://www.w3.org/2000/svg" xmlns:xlink="http://www.w3.org/1999/xlink" x="0px" y="0px"
	 viewBox="0 0 1024 1024" style="enable-background:new 0 0 1024 1024;" xml:space="preserve">
<style type="text/css">
	.st0{fill:#070808;}
</style>
<g>
	<g>
		<path class="st0" d="M257,172.7c-0.1-1.5-0.2-3-0.3-4.4c-1-2.8-1.3-6-2.3-8.7c-4.4-11.7-12.8-19.4-23.8-24.9
			c-0.7-0.4-1.3-0.3-2-0.6c-2.3-1-5.2-1.5-7.9-2.3c-1.1-0.3-2.2-0.2-3.3-0.4c-0.7-0.2-1.5,0.2-2-0.1c-17.7-0.4-30.6,8.4-37.6,18.8
			c-0.8,1.2-1.6,2.6-2.6,3.7c-0.2,0.3-0.1,0.7-0.3,1c-0.7,1.3-1.3,2.5-1.8,4c-0.3,0.7-1.3,2.3-1,3c-0.7,1.3-0.7,2.7-1.2,4.3
			c-1.9,6.7-0.9,16,1.2,21.7c0.5,1.4,0.5,2.6,1.2,3.9c6.1,11.9,13.1,19.4,26.2,24.5c2.6,1.1,5.7,1.3,8.7,2c1,0.3,2.1,0.1,3,0.3
			c1.4,0.3,5.5,0,6.6-0.3c0.5,0,1.1,0,1.5,0c0.6-0.1,1.6-0.4,2.1-0.6c0.4,0,0.8,0,1.2,0c3.4-1,6.9-1.9,9.7-3.5
			c0.8-0.4,1.5-0.5,2.1-0.9c0.7-0.4,1.4-1.1,2-1.5c0.1,0,0.3,0,0.4,0l0.4-0.3c0-0.1,0-0.2,0-0.3c0.4-0.3,0.9-0.3,1.3-0.6
			c1.2-0.9,2.2-1.9,3.3-2.9c0.2-0.2,0.8-0.4,1-0.6c0-0.1,0-0.2,0-0.3c0.1,0,0.2,0,0.3,0c0-0.1,0-0.2,0-0.3c0.1,0,0.2,0,0.3,0
			c0-0.1,0-0.2,0-0.3c0.1,0,0.2,0,0.3,0c0.5-0.4,0.8-1,1.2-1.5c0.1,0,0.2,0,0.3,0c0-0.1,0-0.2,0-0.3c0.1,0,0.2,0,0.3,0
			c0.2-0.2,0.1-0.4,0.3-0.6c0.1,0,0.2,0,0.3,0c3.8-4.1,6.8-9.6,9-15.4c0.5-1.3,0.5-2.4,0.9-3.9C256.6,182.4,257.8,176.1,257,172.7z
			 M251.9,185.3c-0.7,1.9-1,3.7-1.7,5.5c-3.9,8.9-10.6,15.6-19,19.9c-0.8,0.4-1.5,0.5-2.4,0.9c-2.7,1.2-5.4,1.7-8.5,2.6
			c-1.4,0.4-2.5-0.1-4,0.3c-1.2,0.3-3.7,0.3-4.9,0c-0.7,0-1.4,0-2,0c-3-0.8-6.1-1-8.8-2c-10.6-4.1-18.8-11.4-23.3-21.7
			c-1.2-2.6-1.7-5.7-2.6-8.7c-0.1-1-0.2-1.9-0.3-2.9c-1.1-4.7,0.2-12.3,1.5-15.8c0.6-1.6,0.8-3,1.5-4.4c4.9-11,13.9-18.8,26-22.5
			c3.8-1.2,8.1-1.3,13-1.3c0.5,0.3,1.4,0,2,0.1c1.1,0.3,2.4,0.2,3.6,0.6c2.8,0.8,5.6,1.5,8.1,2.6c10.1,4.4,17,12.4,21.3,22.7
			c1.1,2.4,1.4,5.4,2,8.1c0,0.9,0.1,1.8,0.1,2.7C254,175.8,252.8,182.6,251.9,185.3z M247.1,161.1c-3.2-7.3-8.2-13.3-15.1-17.2
			c-4.7-2.6-9.6-4.9-16.6-5.2c0,6.7,0,13.1,0,19.8c0,2.3-0.5,6,1.3,6.6c1.2,1.1,4.9-0.1,6.9,0.4c0.9,0.2,2.1,0.9,2.6,1.5
			s0.9,1.5,1.2,2.4c0.2,0.8,0.1,1.5,0,2.1c0,0.4,0,0.8,0,1.2c-0.5,1.5-1.5,3.1-3,3.7c-1.4,0.6-3.8,0.3-5.7,0.3c-2.8,0-5.7,0-8.5,0
			c-1.9,0-4.2-0.1-5.7,0.3c-0.4,0.7-0.6,1-0.6,2.1c0.4,0.4,0.3,0.7,0.9,0.9c0.4,0.3,1.6,0.1,2.3,0.1c1.8,0,4.1-0.2,5.5,0.3
			c4.1,1.5,3,8.5,3,14.1c1.8,0,4.1-0.1,5.7-0.4c0.5,0,1.1,0,1.5,0c2.3-0.4,4.6-0.8,7-1.2c1.9-0.6,4.2-1,6.3-1.7
			c2.3-0.9,4.7-2,6.9-3.2c0.1,0,0.3,0,0.4,0c0.2-0.1,0.4-0.5,0.6-0.6c0.1,0,0.3,0,0.4,0c0.9-0.5,1.7-1.5,2.6-2
			c0.2-0.2,0.5-0.1,0.7-0.3c0-0.1,0-0.2,0-0.3c0.3-0.3,0.8-0.4,1-0.7c0-0.4,0.1-0.8,0.1-1.2c0.2-0.5,0.4-1.5,0.6-2c0-0.3,0-0.7,0-1
			c1.2-5,0.2-11.7-1.2-15.7C247.7,163.2,247.6,162.3,247.1,161.1z M244.8,177c-4,0-8.1,0-12.1,0c-1.6-0.6-2.6-1.5-3.3-3.2
			c-0.4-0.8-1-2.3-0.6-3.7c0.3-1,0.9-1.7,1-2.9c-1.4-1.2-1.2-4.4-0.4-6.1c0.6-1.3,1.3-2.3,2.4-2.9c1-0.5,2.8-0.3,4.2-0.3
			c2.9,0,5.9,0,8.8,0c0,1.3,0,2.6,0,3.9c-3.6,0-7.3,0.1-10.8,0.1c-1.2,1.5-1.2,1.9,0.1,3.3c3.5,0,7.2,0,10.7,0c0,1.4,0,2.8,0,4.2
			c-0.8,0.3-2,0.1-3,0.1c-2.1,0-4.2,0-6.4,0c-0.5-0.4-1.8,0-2,0.7c-0.3,0.3-0.3,0.8-0.3,1.5c0.3,0.3,0.5,1,0.9,1.2
			c3.5,0,7.2,0,10.7,0C245,173.9,244.8,175.7,244.8,177z M204.8,184.5c-0.5,0-1.1,0-1.5,0c-0.9-0.3-2-1.1-2.6-1.7
			c-2.2-2.7-0.9-7.9,1.5-9.3c1.2-0.7,3.4-0.4,5.2-0.4c3.4,0,6.8,0,10.2,0c1.6,0,3.7,0.2,4.9-0.3c0.4-0.7,0.6-1,0.6-2.1
			c-0.4-0.4-0.3-0.7-0.9-0.9c-0.4-0.3-1.5-0.1-2.1-0.1c-1.7,0-3.5-0.1-5.2-0.1c-4.7-1.4-3.5-8.4-3.5-14.3c-1.7,0-4,0.1-5.5,0.4
			c-0.5,0-1.1,0-1.5,0c-2.3,0.4-4.6,0.8-7,1.2c-3,0.9-6.2,1.7-8.8,2.9c-0.5,0.2-0.7,0.1-1.2,0.3c-1,0.5-2,1.2-3,1.7
			c-0.5,0.3-1,0.3-1.5,0.6c-1.1,0.7-2,1.5-3,2.3c-0.4,0.3-1.1,0.6-1.3,1c-0.6,1.1-0.4,2.8-0.7,4.2c-1.2,5-0.2,11.7,1.2,15.7
			c0.9,2.4,1.5,4.3,2.6,6.4c0.2,0.4,0.2,0.8,0.4,1.2c5.9,9.6,15.1,17.2,29.5,18.2c0-6.2,0-12.2,0-18.4c0-2.3,0.5-6-0.6-7.3
			C210.1,184.1,207,184.5,204.8,184.5z"/>
	</g>
</g>
<g>
	<g>
		<path class="st0" d="M752.3,78.6c0-0.3,0-0.5-0.1-0.8c-0.2-0.5-0.2-1-0.4-1.5c-0.8-2-2.2-3.4-4.1-4.3c-0.1-0.1-0.2-0.1-0.4-0.1
			c-0.4-0.2-0.9-0.3-1.4-0.4c-0.2-0.1-0.4,0-0.6-0.1c-0.1,0-0.3,0-0.4,0c-3.1-0.1-5.3,1.5-6.5,3.2c-0.1,0.2-0.3,0.5-0.5,0.6
			c0,0.1,0,0.1-0.1,0.2c-0.1,0.2-0.2,0.4-0.3,0.7c-0.1,0.1-0.2,0.4-0.2,0.5c-0.1,0.2-0.1,0.5-0.2,0.7c-0.3,1.2-0.2,2.8,0.2,3.8
			c0.1,0.2,0.1,0.5,0.2,0.7c1.1,2.1,2.3,3.4,4.5,4.2c0.5,0.2,1,0.2,1.5,0.4c0.2,0.1,0.4,0,0.5,0.1c0.2,0.1,1,0,1.1-0.1
			c0.1,0,0.2,0,0.3,0c0.1,0,0.3-0.1,0.4-0.1c0.1,0,0.1,0,0.2,0c0.6-0.2,1.2-0.3,1.7-0.6c0.1-0.1,0.3-0.1,0.4-0.2
			c0.1-0.1,0.2-0.2,0.4-0.3c0,0,0.1,0,0.1,0l0.1-0.1c0,0,0,0,0-0.1c0.1-0.1,0.2-0.1,0.2-0.1c0.2-0.2,0.4-0.3,0.6-0.5
			c0,0,0.1-0.1,0.2-0.1c0,0,0,0,0-0.1c0,0,0,0,0.1,0c0,0,0,0,0-0.1c0,0,0,0,0.1,0c0,0,0,0,0-0.1c0,0,0,0,0.1,0
			c0.1-0.1,0.1-0.2,0.2-0.3c0,0,0,0,0.1,0c0,0,0,0,0-0.1c0,0,0,0,0.1,0c0,0,0-0.1,0.1-0.1c0,0,0,0,0.1,0c0.7-0.7,1.2-1.7,1.6-2.7
			c0.1-0.2,0.1-0.4,0.2-0.7C752.2,80.3,752.4,79.2,752.3,78.6z M751.4,80.8c-0.1,0.3-0.2,0.6-0.3,1c-0.7,1.5-1.8,2.7-3.3,3.5
			c-0.1,0.1-0.3,0.1-0.4,0.2c-0.5,0.2-0.9,0.3-1.5,0.5c-0.2,0.1-0.4,0-0.7,0.1c-0.2,0.1-0.6,0.1-0.9,0c-0.1,0-0.2,0-0.4,0
			c-0.5-0.1-1.1-0.2-1.5-0.4c-1.8-0.7-3.2-2-4-3.8c-0.2-0.5-0.3-1-0.5-1.5c0-0.2,0-0.3-0.1-0.5c-0.2-0.8,0-2.1,0.3-2.7
			c0.1-0.3,0.1-0.5,0.3-0.8c0.9-1.9,2.4-3.2,4.5-3.9c0.7-0.2,1.4-0.2,2.2-0.2c0.1,0.1,0.2,0,0.4,0c0.2,0.1,0.4,0,0.6,0.1
			c0.5,0.1,1,0.3,1.4,0.5c1.7,0.8,2.9,2.1,3.7,3.9c0.2,0.4,0.2,0.9,0.4,1.4c0,0.2,0,0.3,0,0.5C751.7,79.2,751.5,80.4,751.4,80.8z
			 M750.5,76.6c-0.6-1.3-1.4-2.3-2.6-3c-0.8-0.5-1.7-0.9-2.9-0.9c0,1.2,0,2.3,0,3.4c0,0.4-0.1,1,0.2,1.1c0.2,0.2,0.9,0,1.2,0.1
			c0.2,0,0.4,0.2,0.5,0.3c0.1,0.1,0.2,0.3,0.2,0.4c0,0.1,0,0.3,0,0.4c0,0.1,0,0.1,0,0.2c-0.1,0.3-0.3,0.5-0.5,0.6
			c-0.2,0.1-0.7,0.1-1,0.1c-0.5,0-1,0-1.5,0c-0.3,0-0.7,0-1,0.1c-0.1,0.1-0.1,0.2-0.1,0.4c0.1,0.1,0.1,0.1,0.2,0.2
			c0.1,0.1,0.3,0,0.4,0c0.3,0,0.7,0,1,0.1c0.7,0.3,0.5,1.5,0.5,2.4c0.3,0,0.7,0,1-0.1c0.1,0,0.2,0,0.3,0c0.4-0.1,0.8-0.1,1.2-0.2
			c0.3-0.1,0.7-0.2,1.1-0.3c0.4-0.2,0.8-0.4,1.2-0.6c0,0,0.1,0,0.1,0c0,0,0.1-0.1,0.1-0.1c0,0,0.1,0,0.1,0c0.2-0.1,0.3-0.3,0.5-0.4
			c0,0,0.1,0,0.1-0.1c0,0,0,0,0-0.1c0.1-0.1,0.1-0.1,0.2-0.1c0-0.1,0-0.1,0-0.2c0-0.1,0.1-0.3,0.1-0.4c0-0.1,0-0.1,0-0.2
			c0.2-0.9,0-2-0.2-2.7C750.6,77,750.6,76.8,750.5,76.6z M750.1,79.4c-0.7,0-1.4,0-2.1,0c-0.3-0.1-0.5-0.3-0.6-0.6
			c-0.1-0.1-0.2-0.4-0.1-0.6c0.1-0.2,0.2-0.3,0.2-0.5c-0.2-0.2-0.2-0.8-0.1-1.1c0.1-0.2,0.2-0.4,0.4-0.5c0.2-0.1,0.5-0.1,0.7-0.1
			c0.5,0,1,0,1.5,0c0,0.2,0,0.5,0,0.7c-0.6,0-1.3,0-1.9,0c-0.2,0.3-0.2,0.3,0,0.6c0.6,0,1.2,0,1.9,0c0,0.2,0,0.5,0,0.7
			c-0.1,0.1-0.4,0-0.5,0c-0.4,0-0.7,0-1.1,0c-0.1-0.1-0.3,0-0.4,0.1c-0.1,0.1-0.1,0.1-0.1,0.3c0.1,0.1,0.1,0.2,0.2,0.2
			c0.6,0,1.2,0,1.9,0C750.2,78.8,750.1,79.2,750.1,79.4z M743.2,80.7c-0.1,0-0.2,0-0.3,0c-0.2-0.1-0.4-0.2-0.5-0.3
			c-0.4-0.5-0.2-1.4,0.3-1.6c0.2-0.1,0.6-0.1,0.9-0.1c0.6,0,1.2,0,1.8,0c0.3,0,0.6,0,0.9-0.1c0.1-0.1,0.1-0.2,0.1-0.4
			c-0.1-0.1-0.1-0.1-0.2-0.2c-0.1-0.1-0.3,0-0.4,0c-0.3,0-0.6,0-0.9,0c-0.8-0.2-0.6-1.5-0.6-2.5c-0.3,0-0.7,0-1,0.1
			c-0.1,0-0.2,0-0.3,0c-0.4,0.1-0.8,0.1-1.2,0.2c-0.5,0.2-1.1,0.3-1.5,0.5c-0.1,0-0.1,0-0.2,0.1c-0.2,0.1-0.4,0.2-0.5,0.3
			c-0.1,0.1-0.2,0.1-0.3,0.1c-0.2,0.1-0.4,0.3-0.5,0.4c-0.1,0.1-0.2,0.1-0.2,0.2c-0.1,0.2-0.1,0.5-0.1,0.7c-0.2,0.9,0,2,0.2,2.7
			c0.2,0.4,0.3,0.7,0.5,1.1c0,0.1,0,0.1,0.1,0.2c1,1.7,2.6,3,5.1,3.1c0-1.1,0-2.1,0-3.2c0-0.4,0.1-1-0.1-1.3
			C744.1,80.6,743.6,80.7,743.2,80.7z"/>
	</g>
</g>
<circle class="st0" cx="747.3" cy="203.4" r="43.4"/>
</svg>
