<?xml version="1.0" encoding="utf-8"?>
<!-- Generator: Adobe Illustrator 19.0.0, SVG Export Plug-In . SVG Version: 6.00 Build 0)  -->
<svg version="1.1" id="Layer_1" xmlns="http://www.w3.org/2000/svg" xmlns:xlink="http://www.w3.org/1999/xlink" x="0px" y="0px"
	 viewBox="0 0 1024 1024" style="enable-background:new 0 0 1024 1024;" xml:space="preserve">
<style type="text/css">
	.st0{fill-rule:evenodd;clip-rule:evenodd;fill:#020202;}
</style>
<path class="st0" d="M402,42c69.3,0,138.7,0,208,0c0,39,0,78,0,117c-8.7,35.5-7.1,76-16,111c-1.3,11-2.7,22-4,33
	c-6.5,21.3-13.9,44.1-21,65c-7,20.5-11.7,40.8-19,60c-2.3,6-2.5,11.3-5,17c-10.3,18.3-20.7,36.7-31,55c-1.9-0.6-0.9-0.1-2-1
	c-5.3-5.7-6.8-14.1-11-21c-10-16.2-17.9-33.7-26-52c-2.7-6-7.3-12.9-10-19c-7.8-17.7-13.7-36.3-20-55c-0.7-4.3-1.3-8.7-2-13
	c-5.9-19.7-9.1-42.9-15-63c-1-6.7-2-13.3-3-20C407.5,194.4,402.2,120.2,402,42z"/>
<path class="st0" d="M344,898c-78.4,0-159.1,1-239,1c-1.4-15.1-0.5-34.5-4-49c-2.4-9.9,0.2-21.9-2-31c0-5,0-10,0-15
	c-2-8.1-1-19.9-3-28c0-5.3,0-10.7,0-16c-4-16.4-3.1-35.4-7-51c0-2.7,0-5.3,0-8c-3.5-13.7-3.5-31.2-7-45c-2.7-22.7-5.3-45.3-8-68
	c-6.1-22.1-10.2-46.5-17-68c-1.3-6.7-2.7-13.3-4-20c-9.1-27-15.6-55.2-25-83c-5-14.9-11-30.1-15-46c-1.5-6,1.7-10,3-13
	c1.4-3.3,1-5.4,3-8c2.2-2.9,6.8-3,10-5c4.8-3,13.8-9.7,16-15c2.2-5.2,1.2-9.6,3-15c3.4-10.3,6.2-23.1,9-34c0-10.3,0-20.7,0-31
	c-0.7-25.7-1.3-51.3-2-77c0.3,0,0.7,0,1,0c0-0.3,0-0.7,0-1c8.6-0.9,16.8-5.3,24-8c10.2-3.9,19.8-5.1,30-9c4.6-1.7,15.9-7.9,20-6
	c2.3,2.7,2.3,6.6,4,10c4.6,9.1,11.1,22.1,19,28c11.4,8.5,27.6,13.6,43,18c6.1,1.7,10.5,0.4,17,2c5.8,1.4,16.9,4,25,2
	c11.7-2.9,23.1-6.8,33-11c5.4-2.3,10.4-2.9,15-6c8.3-9.7,16.7-19.3,25-29c3.1-5.7,2.5-12.7,9-15c18,6,36,12,54,18c5.5,2,12,1.5,16,5
	c1.4,1.9,1.1,6.6,1,10c-4.4,6.3,0.2,26.7-2,36c-5.1,21.6,1.4,64.4,6,82c3.3,12.5,2.6,24.1,9,33c9,8,18,16,27,24
	c2.2,3.3,1.7,6.6,3,11c0.8,2.7,3.3,7.5,2,12c-2.5,8.7-8.1,18.4-11,27c-3.4,10-3.6,18.9-7,29c-10.4,31-17.7,65.2-27,97
	c-0.7,5-1.3,10-2,15c-4.7,16.6-6.3,36.3-11,53c-0.3,3.7-0.7,7.3-1,11c-5.4,19.9-6.9,42.4-12,63c-1,11-2,22-3,33
	c-3.1,12.6-2.9,28.3-6,41c0,2.7,0,5.3,0,8c-2.8,11.2-2.2,25.4-5,37c0,4.7,0,9.3,0,14c-2,8.2,0.2,19-2,28c-2.1,8.5,0.2,19.7-2,29
	C344.6,873.8,344.7,887.6,344,898z"/>
<path class="st0" d="M909,992c-80,0.7-160,1.3-240,2c-0.9-10-1.7-22.7-4-32c-2.4-9.8-0.8-21-3-30c-3.1-12.7-1.1-27.1-4-39
	c0-3.3,0-6.7,0-10c-3.9-15.6-3.2-34.9-7-50c-0.3-4.7-0.7-9.3-1-14c-4.9-18.6-5.2-40.6-10-59c-0.7-6.7-1.3-13.3-2-20
	c-4.7-18.1-5.2-39.8-10-58c-0.7-6-1.3-12-2-18c-7.4-26-13.8-54.3-22-80c-10.4-32.7-18.1-64.3-30-95c-2-5.1-10.8-27.8-6-35
	c4.2-13.4,20.5-13.8,31-21c3.4-2.4,14.9-25,17-30c2.9-7.1,1-14.7,3-23c8.3-33.9,0-80.2,0-115c0.3,0,0.7,0,1,0c0-0.3,0-0.7,0-1
	c8.8-1,17.4-5.4,25-8c7.3-2.5,12.7-2.5,20-5c6.6-2.2,15.3-6.1,22-8c6.3-1.8,16.1,0.6,21,1c19.5,1.8,38.7,1.3,57,3
	c13.7,1.2,30.8,1.9,43-1c6.2-1.5,15,0.2,20-1c6.7,0,13.3,0,20,0c5.5-1.3,32.6-3.8,39-2c13.1,3.8,28.2,9.2,41,14
	c8.6,3.2,21.5,3.4,28,9c3.3,4.7,1,20.1,1,27c0,24,0,48,0,72c4.1,6,1.9,17.2,4,25c2.2,8.3,2.6,21.1,6,29c2.5,5.9,8.4,11,12,16
	c1.4,1.9,2,4.9,4,6c3.7,2,11.7,1.1,17,1c3,4.6,13.4,18.5,11,27c-4.4,15.4-11.4,30.3-17,45c-7.3,23.3-14.7,46.7-22,70
	c-8.8,23.1-13.5,48.6-21,74c-3.9,13.4-3.2,25.6-7,39C919.7,782.5,915.7,890.2,909,992z"/>
<path class="st0" d="M612,991c-69.3,0-138.7,0-208,0c-0.1-6.9-0.3-15.7,1-21c2.1-8.7-0.8-20.5,1-28c0.3-17.7,0.7-35.3,1-53
	c1.4-5.7,0.4-13.7,2-20c4.6-17.9,6.3-38.6,11-56c0.3-3.7,0.7-7.3,1-11c4.4-15.4,6.6-33.8,11-49c0.7-5,1.3-10,2-15
	c8.2-27.9,11.2-59.2,22-85c10.4-24.9,21.9-49.9,34-73c4.2-8,6.3-16.3,11-24c4.5-7.3,9.2-15,13-23c1.9,0.6,0.9,0.1,2,1
	c6.9,7.2,9.6,18.3,15,27c5.2,8.4,11.9,17.7,16,27c8.9,20.2,12.6,42.4,20,64c8.6,25.2,17.3,52.4,25,78c1.3,11,2.7,22,4,33
	c8.9,35,7.5,75.4,16,111C612,913,612,952,612,991z"/>
</svg>
