<?xml version="1.0" encoding="utf-8"?>
<!-- Generator: Adobe Illustrator 19.0.0, SVG Export Plug-In . SVG Version: 6.00 Build 0)  -->
<svg version="1.1" id="Layer_1" xmlns="http://www.w3.org/2000/svg" xmlns:xlink="http://www.w3.org/1999/xlink" x="0px" y="0px"
	 viewBox="0 0 1024 1024" style="enable-background:new 0 0 1024 1024;" xml:space="preserve">
<style type="text/css">
	.st0{fill-rule:evenodd;clip-rule:evenodd;fill:#070808;}
</style>
<g>
	<g>
		<path class="st0" d="M431,356c-1.4-2.1-3.9-2.5-6-4c-7.1-5.3-21.5-18.7-25-27c-4.3-10.2-3-21.3-6-33c-9.5-36.9-3.3-79.7-3-121
			c-5.7-0.7-17-3.2-20-7h-1c0.1,7.1-0.7,35.8-3,39v7c-10.5-6.3-26.3-20.4-40-22c1.6-5.1,5.4-7.2,8-11c3.6-5.1,7.5-13.6,9-20
			c-7.7-2.7-15.3-5.3-23-8c-6.2,2.8-5.5,10.4-9,16c-4.3,6.8-12.3,11.6-17,18c-2.1,2.8-3.2,7-6,9c-6.6,4.6-14,5.7-22,9
			c-28.8,12-54.2,10.1-84,0c-7.5-2.5-14.7-3.1-21-7c-11.4-7-17-17.3-24-29c-2.8-4.7-6.2-9.2-7-16c-9.2,2.2-16.9,7.5-27,8
			c0.7,4.9,14.9,28.6,18,31v1c-13.2,5.5-29.8,12.2-39,22h-1c0-6.8-0.3-28.2-3-32c0.2-4.9,0.7-9.9-2-12c-0.3-0.5-15.6,5.5-20,6
			c-0.3,48.9,6.5,98-6,138c-1.3,6.3-2.7,12.7-4,19c-2.5,6.1-11.4,12.9-17,16c-2.7,1.5-7.2,1.7-9,4c-1.8,2.2-1.7,5.4-3,8
			c-2.2,4.3-5.1,12.8-1,18v2c11.1-2.4,21.2-8.9,31-13c4.6-1.9,11.2-2.4,14-6c12.9-16.8,20.3-62,20-92c14.5-13.2,29.6-26.6,48-36
			c6-3.1,11.5-3.2,18-6c2.7-1.1,7.9-4.6,11-5c4.2-0.6,10.8,4.7,14,6c3.8,1.6,36.6,7,41,6c8.2-1.9,21.8,1.7,31-1
			c9.6-2.8,20.8-5.4,31-9l10-5c4.2,0.8,10.2,4.5,14,6c6.5,2.7,12,2.9,18,6c7.1,3.8,14.5,9.7,21,14c8,5.3,26,16,29,25
			c3,4.3,0.2,25.3-1,30c-2.4,9.6,1.5,35.9,5,43c0.7,0.3,1.3,0.7,2,1c3,5.2,3.5,13.5,8,17c2.3,1.8,5.6,1.4,8,3c3.3,2.2,5.8,6.3,10,8
			c9.7,3.8,23.6,0.6,29,9c5.5,0.2,7.6-0.1,9-4c1.1-2.8-2.8-4.4-4-8C432.5,362.7,433.3,359.3,431,356z M1011,462
			c-1.5-5.3-6.3-14.3-10-18c-4-2.8-13.3,0-17-3c-5.1-1.7-16.2-19.3-18-25c-0.7-5-1.3-10-2-15c-10.1-36.1-7.7-89.1-7-135
			c-8.8-1.1-17.5-5.2-25-8c-8.9-3.4-16.9-3.9-26-7c-5.8-2-12.8-5.3-19-7c-7.1-1.9-17.2,0.7-23,1c-18.5,1-40.4-0.9-57,3
			c-7.4,1.7-34.9,0.4-41-1c-18.3-0.7-36.7-1.3-55-2c-5.2-0.5-15.4-2.8-22-1c-8.4,2.2-18,6.3-26,9c-7.3,2.5-12.7,2.5-20,5
			c-6.7,2.2-14.1,6.1-22,7c0.1,35,8.4,81,0,115c-0.7,7-1.3,14-2,21c-1.3,3.9-14.9,30.5-17,32c-9.4,6.9-24.5,8.3-31,18
			c-3.9,5.9,2.1,16-2,22v1c6.3-1,12.7-2,19-3c3.3-1.6,7.4-5.6,11-7c6.3-1,12.7-2,19-3c7.1-2.7,18.9-18,22-25c2.2-4.9,2.8-12.3,4-17
			c-0.3-6-0.7-12-1-18c3-13.3,6-26.7,9-40c2.5-7.1,19.4-16.6,26-21c26.2-17.4,55.3-29.9,100-29c0.1-11.7,1.3-26.8-3-34
			c-18.3-0.4-38-4.4-56,0h-9c-12,4-25.3,10.4-36,16c-7.6,4-18.3,7.2-23,14h-2c-0.7-8.3-1.3-16.7-2-25c7.4-0.5,13.9-3.1,20-5
			c13-4,26.5-6.7,39-10c23-0.3,46-0.7,69-1c22.2-3.5,47,0,71,0h37c6.8,1.9,14.7,6.4,21,9c9.3,3.9,18.5,6,27,10c0.1,3.4,0.4,8.1-1,10
			v10c-15.9-9.4-32.7-21.1-52-27c-4.3-1.3-25.6-3.2-31-2c-0.9,0.2-3.5,1.4-6,1c-4.5-0.7-26.6-3.4-30-1c-5.3-0.1-8.1,0.4-11,2v31
			c16,1.3,32,2.7,48,4c21.7,6.3,40.5,15.9,57,27c7.4,4.9,24.2,14.7,27,23c2.7,3.8,1.3,10.1,2,16c1.5,12-4.3,40,0,55
			c0.8,2.8,4.3,12.4,6,15c1.2,1.7,3.3,1.7,5,3c2,2.3,4,4.7,6,7c4,2.8,8.5,3.6,13,6c3.3,1.8,6.8,5.4,10,7c3,0.3,6,0.7,9,1
			c0.9,0.3,3.1,2.7,4,3h7c7.5,1.9,8.8,1,16,0C1008.7,471.5,1012.6,467.9,1011,462z M95,336c-4.8,11.6-3.7,25.3-8,38
			c8.1,2.9,23,1.1,33,1c0.1-16.3,5.7-29.7,12-40c3.2-5.2,4.6-10.2,8-15c13.3-18.7,44.8-40.6,76-41v-32
			C156.9,247.1,112.8,293.5,95,336z M249,281c8.3,2.4,17.4,5.1,25,9c25.4,13.2,54.7,47.1,55,85h32c0-52.5-41.4-100-78-116
			c-8.7-3-17.3-6-26-9c-5.2-1.5-12-0.2-16-3c-3.3,0-6,0.3-8,1c-0.1,6.2-1.5,26.6,1,30C237.8,280.7,243.9,279.5,249,281z M780,346
			c-56,0.2-100.7,42.4-118,82c-2.7,8-5.3,16-8,24c-1.7,6.1,0.3,14.3-3,19c0.3,1,0.7,2,1,3h32c0.1-39.8,30.1-72.2,58-85
			c10.6-4.9,22.5-10.9,38-11V346z M813,380c8.3,2.4,17.4,5.1,25,9c25.4,13.3,54.7,47,55,85h32c0-52.5-41.4-100-78-116
			c-8.7-3-17.3-6-26-9c-5.2-1.5-12-0.2-16-3c-3.3,0-6,0.3-8,1c-0.1,6.2-1.5,26.6,1,30C801.8,379.7,807.9,378.5,813,380z M207,488
			c-8-2.3-16-4.7-24-7c-29.2-12.7-62.7-46.9-63-88c-10.2,0-22.4,0.6-31-1c-0.3,0.7-0.7,1.3-1,2c-0.8,0.9,0,11.5,1,15
			c3.3,11.3,6.2,22.5,11,32c16.6,32.9,39.4,56.4,74,71c7.4,3.1,16.5,4.9,24,7c4.9,1.4,12.2-0.5,16,2h2c0.1-6.5,1.6-28.4-1-32
			C213,487.6,210.1,488.8,207,488z M234,520c8.4,4.4,38.5-8.2,45-11c32.8-14.3,55.3-36.8,71-68c3-9,6-18,9-27c1.8-6.3-0.3-15.1,3-20
			v-1h-33c-0.7,42.2-34.6,76-65,89c-6.5,2.8-24.4,3.8-29,7h-2C232.9,495.4,231.5,516.5,234,520z M692,523c-3.8-8.7-7.9-18.3-8-31
			c-7.3-0.1-27.9-1.3-31,0c-2.2,1.4-1.3,11.3,0,16c3.3,12.2,6.8,24,12,34c18,34.6,42.9,57.6,81,72c10.1,3.8,22.3,2.6,33,6v-1h1v-31
			C734.5,579.6,708.3,560.3,692,523z M798,619c1.4,1.2,11.4-0.5,15-1c12.7-1.6,25.2-7.1,35-12c34.4-17.4,52.2-38,68-74
			c4.8-10.9,9.3-24.2,9-40h-32c-0.6,41.2-33.5,75.1-63,88c-7.2,3.2-16.3,4.9-24,7c-2.8,0.8-5.2-0.3-7,1h-2
			C796.9,594.4,795.5,615.5,798,619z M374,529c-19.8,20.7-43.6,37.9-72,50c-11.1,4.7-21.7,5.4-34,9c-9.5,2.8-21.9,5.3-34,5v48
			c45.6,0.1,84.1-13.3,113-31c6.6-4.1,27.8-13.5,31-19c2.2-3.9,1.4-7.6,3-12c5.5-15.4,8.4-40,14-58c2.1-6.6,1.3-15,5-20v-3h-1
			C395.9,508.6,381.2,521.5,374,529z M215,641v-48c-56.2-1.2-94.7-25.3-128-50c-2.7-3-5.3-6-8-9c-4.5-3.6-9.4-7.5-13-12v-2h-2
			c-2-2.3-2.7-5-5-7v-1h-1c0.6,7.5,3.2,13.9,5,20c3.5,11.7,4.7,23.3,8,34c2.2,7,1,16.6,5,22c-0.2,13.7,15.9,17.1,25,22
			C131.4,626.2,167.7,642.3,215,641z M959,606c-3.9,5.3-10.1,9.8-14,15c-3.8,5.1-8,11.3-13,15c-15.9,11.8-31.8,24.4-50,34
			c-3.6,1.9-6.3,1.4-10,3c-6.1,2.7-14.4,6.6-21,9c-6.2,2.2-10.7,1-17,3c-9.5,3-21.6,5.3-34,5v48c47.4-0.2,86-14.5,116-33
			c5.9-3.6,25.1-12.2,28-17c0.7-3,1.3-6,2-9c6.1-16.1,8.7-41.3,15-60c2.3-6.8,2.1-14.8,6-20v-4C962.9,597.7,961.9,602,959,606z
			 M781,738v-47c-6.3-0.7-12.7-1.3-19-2c-15.4-4-31.2-5.2-45-11c-34.7-14.5-74.1-39.2-93-69h-2c4.7,18.3,9.3,36.7,14,55
			c2.2,6.9,1.1,16.5,5,22c0.4,10.4,20.2,17.8,28,22C698.5,723.8,735.8,739.2,781,738z M257,696h-12c-13.1,3.2-42,1.9-54-1h-10
			c-16.4-4.3-34.5-5.1-50-11c-13.2-5-27.1-10.9-40-16c3.3,19.3,6.7,38.7,10,58c8.9,2,18.7,6.1,27,9h5c6.1,1.8,14.7,4.2,21,6
			c9,2.5,17.5,0.7,27,3c32.7,8,88.9,3,117-5c12.8-3.7,38.8-6,47-13c5.3-2.1,2.5-8.1,4-14c2.3-9,3.6-20.2,6-29c1.1-4,0-8.1,2-11v-4
			c-22.5,9.5-46.2,16.7-72,24C275.9,694.6,265.8,693.8,257,696z M833,792h-10c-13.3,3.3-39.5,4.4-54,1h-12c-8.8-2.2-18.9-1.4-28-4
			c-25.8-7.3-49.6-14.3-72-24c3.3,19.3,6.7,38.7,10,58c8.9,2,18.7,6.1,27,9c13.7,4.7,29.9,5.5,44,9c6,0.3,12,0.7,18,1
			c30.9,7.5,87.1-0.1,112-7c11.9-3.3,35.4-5.5,43-12c5-2,2.5-7.4,4-13c2.3-8.8,3.9-34.1,8-40v-5c-13.3,3.9-26.6,11.6-40,16
			C866.9,786.2,849.7,787.7,833,792z M325,788c-14.8,5-32.8,6-49,10c-8.7,0.7-17.3,1.3-26,2h-12c-11.2,2.8-36.2,1.6-47-1
			c-6.3-0.3-12.7-0.7-19-1c-21.5-5.3-45.3-5.9-64-14c-0.9,1.1,0.1,0.1-1,1c3.8,35.1,4.2,78.4,7,112h200c6.8,0,15.8,0.8,21-1
			c0.3-27.4,0.1-55.4,4-80c0.9-5.5,1.8-29.7,1-31C339.2,784.4,328.4,786.8,325,788z M855,893c-8,2-16.6,1.2-24,3h-13
			c-8.2,1.9-30.9,4.4-41,2c-16.4-3.9-35.7-0.9-52-5c-8.1-2-17.3-2.5-26-5c-8-2.3-17.2-6-26-7c0,10.7,0.7,22.5,3,32
			c2.5,10.6-0.4,24.8,2,35c1.4,5.8-1.9,14.8,1,19v27c5.9-2,16.4-1,24-1h48c50-0.3,100-0.7,150-1c1-26.3,2-52.7,3-79
			c2.3-9.5,3-21.1,3-32c-8.8,1.1-18,4.7-26,7C872.3,890.5,862.9,891,855,893z"/>
	</g>
</g>
</svg>
