<?xml version="1.0" encoding="utf-8"?>
<!-- Generator: Adobe Illustrator 19.0.0, SVG Export Plug-In . SVG Version: 6.00 Build 0)  -->
<svg version="1.1" id="Layer_1" xmlns="http://www.w3.org/2000/svg" xmlns:xlink="http://www.w3.org/1999/xlink" x="0px" y="0px"
	 viewBox="0 0 1024 1024" style="enable-background:new 0 0 1024 1024;" xml:space="preserve">
<style type="text/css">
	.st0{fill:#080909;}
</style>
<g>
	<g>
		<path class="st0" d="M280.3,379.3c-0.1-1.9-0.3-3.9-0.4-5.8c-1.3-3.6-1.6-7.7-3-11.2c-5.8-15.1-16.4-25-30.5-32
			c-0.9-0.5-1.6-0.4-2.6-0.8c-3-1.3-6.6-2-10.2-3c-1.4-0.4-2.9-0.3-4.3-0.5c-0.9-0.3-2,0.3-2.6-0.1c-22.7-0.5-39.4,10.8-48.3,24.1
			c-1,1.5-2.1,3.4-3.4,4.8c-0.3,0.4-0.1,0.9-0.4,1.3c-0.9,1.6-1.6,3.3-2.4,5.1c-0.4,0.9-1.6,3-1.3,3.9c-0.9,1.6-0.9,3.5-1.5,5.5
			c-2.5,8.5-1.1,20.6,1.5,27.9c0.6,1.8,0.6,3.4,1.5,5c7.8,15.3,16.9,25,33.6,31.4c3.4,1.4,7.3,1.6,11.2,2.6c1.3,0.4,2.8,0.1,3.9,0.4
			c1.8,0.4,7,0,8.4-0.4c0.6,0,1.4,0,2,0c0.8-0.1,2.1-0.5,2.8-0.8c0.5,0,1,0,1.5,0c4.4-1.3,8.8-2.5,12.4-4.5c1-0.5,1.9-0.6,2.8-1.1
			c0.9-0.5,1.8-1.4,2.6-1.9c0.1,0,0.4,0,0.5,0l0.5-0.4c0-0.1,0-0.3,0-0.4c0.5-0.4,1.1-0.4,1.6-0.8c1.5-1.1,2.9-2.5,4.3-3.8
			c0.3-0.3,1-0.5,1.3-0.8c0-0.1,0-0.3,0-0.4c0.1,0,0.3,0,0.4,0c0-0.1,0-0.3,0-0.4c0.1,0,0.3,0,0.4,0c0-0.1,0-0.3,0-0.4
			c0.1,0,0.3,0,0.4,0c0.6-0.5,1-1.3,1.5-1.9c0.1,0,0.3,0,0.4,0c0-0.1,0-0.3,0-0.4c0.1,0,0.3,0,0.4,0c0.3-0.3,0.1-0.5,0.4-0.8
			c0.1,0,0.3,0,0.4,0c4.9-5.3,8.7-12.3,11.5-19.7c0.6-1.6,0.6-3.1,1.1-5C279.7,391.6,281.3,383.6,280.3,379.3z M273.7,395.4
			c-0.9,2.5-1.3,4.8-2.3,7c-5,11.4-13.7,19.9-24.5,25.6c-1,0.5-2,0.6-3.1,1.1c-3.5,1.5-6.9,2.3-10.9,3.4c-1.8,0.5-3.3-0.1-5.1,0.4
			c-1.5,0.4-4.8,0.4-6.3,0c-0.9,0-1.8,0-2.6,0c-3.9-1-7.8-1.3-11.3-2.6c-13.7-5.3-24.1-14.7-29.9-27.9c-1.5-3.4-2.3-7.3-3.4-11.2
			c-0.1-1.3-0.3-2.5-0.4-3.8c-1.4-6,0.3-15.8,1.9-20.2c0.8-2.1,1-3.9,1.9-5.8c6.3-14.2,17.8-24.1,33.4-29c4.9-1.5,10.4-1.6,16.7-1.6
			c0.6,0.4,1.8,0,2.6,0.1c1.4,0.4,3.1,0.3,4.6,0.8c3.6,1,7.2,1.9,10.4,3.4c12.9,5.6,21.8,15.9,27.3,29.1c1.4,3.1,1.8,6.9,2.6,10.4
			c0,1.1,0.1,2.4,0.1,3.5C276.4,383.2,274.8,391.9,273.7,395.4z M267.5,364.4c-4.1-9.4-10.5-17.2-19.3-22.1
			c-6-3.4-12.3-6.3-21.3-6.6c0,8.5,0,16.9,0,25.5c0,3-0.6,7.7,1.6,8.4c1.5,1.4,6.3-0.1,8.8,0.5c1.1,0.3,2.8,1.1,3.4,2s1.1,2,1.5,3.1
			c0.3,1,0.1,2,0,2.8c0,0.5,0,1,0,1.5c-0.6,2-2,4-3.9,4.8c-1.8,0.8-4.9,0.4-7.3,0.4c-3.6,0-7.3,0-10.9,0c-2.5,0-5.4-0.1-7.3,0.4
			c-0.5,0.9-0.8,1.3-0.8,2.8c0.5,0.5,0.4,0.9,1.1,1.1c0.5,0.4,2.1,0.1,3,0.1c2.4,0,5.3-0.3,7,0.4c5.3,2,3.9,10.9,3.9,18.1
			c2.4,0,5.3-0.1,7.3-0.5c0.6,0,1.4,0,2,0c3-0.5,5.9-1,8.9-1.5c2.5-0.8,5.4-1.3,8-2.3c3-1.1,6-2.6,8.8-4.1c0.1,0,0.4,0,0.5,0
			c0.3-0.1,0.5-0.6,0.8-0.8c0.1,0,0.4,0,0.5,0c1.1-0.6,2.3-1.9,3.4-2.6c0.3-0.3,0.6-0.1,0.9-0.4c0-0.1,0-0.3,0-0.4
			c0.4-0.4,1-0.5,1.3-0.9c0-0.5,0.1-1,0.1-1.5c0.3-0.6,0.5-1.9,0.8-2.6c0-0.4,0-0.9,0-1.3c1.5-6.4,0.3-15.1-1.5-20.1
			C268.3,367.1,268.1,365.9,267.5,364.4z M264.5,384.7c-5.1,0-10.4,0-15.6,0c-2.1-0.8-3.4-2-4.3-4.1c-0.5-1-1.3-3-0.8-4.8
			c0.4-1.3,1.1-2.3,1.3-3.8c-1.8-1.5-1.5-5.6-0.5-7.8c0.8-1.6,1.6-3,3.1-3.8c1.3-0.6,3.6-0.4,5.4-0.4c3.8,0,7.5,0,11.3,0
			c0,1.6,0,3.4,0,5c-4.6,0-9.4,0.1-13.9,0.1c-1.5,2-1.5,2.5,0.1,4.3c4.5,0,9.2,0,13.8,0c0,1.8,0,3.6,0,5.4c-1,0.4-2.6,0.1-3.9,0.1
			c-2.8,0-5.4,0-8.2,0c-0.6-0.5-2.4,0-2.6,0.9c-0.4,0.4-0.4,1-0.4,1.9c0.4,0.4,0.6,1.3,1.1,1.5c4.5,0,9.2,0,13.8,0
			C264.8,380.7,264.5,383.1,264.5,384.7z M213.3,394.4c-0.6,0-1.4,0-2,0c-1.1-0.4-2.6-1.4-3.4-2.3c-2.9-3.5-1.1-10.2,2-11.9
			c1.5-0.9,4.4-0.5,6.6-0.5c4.4,0,8.7,0,13,0c2.1,0,4.8,0.3,6.3-0.4c0.5-0.9,0.8-1.3,0.8-2.8c-0.5-0.5-0.4-0.9-1.1-1.1
			c-0.5-0.4-1.9-0.1-2.8-0.1c-2.3,0-4.5-0.1-6.6-0.1c-6-1.8-4.5-10.8-4.5-18.3c-2.3,0-5.1,0.1-7,0.5c-0.6,0-1.4,0-2,0
			c-3,0.5-5.9,1-8.9,1.5c-3.9,1.1-7.9,2.3-11.3,3.8c-0.6,0.3-0.9,0.1-1.5,0.4c-1.3,0.6-2.6,1.5-3.9,2.3c-0.6,0.4-1.3,0.4-1.9,0.8
			c-1.4,0.9-2.6,2-3.9,3c-0.5,0.4-1.4,0.8-1.6,1.3c-0.8,1.4-0.5,3.6-0.9,5.4c-1.5,6.4-0.3,15.1,1.5,20.1c1.1,3.1,2,5.5,3.4,8.2
			c0.3,0.5,0.3,1,0.5,1.5c7.5,12.3,19.3,22.1,37.9,23.3c0-7.9,0-15.7,0-23.6c0-3,0.6-7.7-0.8-9.4C220,393.9,216,394.4,213.3,394.4z"
			/>
	</g>
</g>
<g>
	<g>
		<path class="st0" d="M799.8,326.8c0-0.4,0-0.8-0.1-1.2c-0.3-0.8-0.4-1.6-0.6-2.2c-1.2-3-3.4-5.1-6.1-6.5c-0.1-0.1-0.4-0.1-0.5-0.1
			c-0.6-0.3-1.3-0.4-2.1-0.6c-0.3-0.1-0.6,0-0.9-0.1c-0.1,0-0.4,0-0.5,0c-4.5-0.1-7.9,2.2-9.7,4.9c-0.3,0.3-0.4,0.6-0.6,1
			c0,0.1,0,0.1-0.1,0.3c-0.1,0.4-0.4,0.6-0.5,1c-0.1,0.1-0.3,0.6-0.3,0.8c-0.1,0.3-0.1,0.6-0.3,1.2c-0.5,1.7-0.3,4.1,0.3,5.6
			c0.1,0.4,0.1,0.6,0.3,1c1.6,3.1,3.4,5.1,6.7,6.3c0.6,0.3,1.4,0.4,2.2,0.5c0.3,0,0.5,0,0.8,0.1c0.4,0.1,1.4,0,1.7-0.1h0.4
			c0.1,0,0.4-0.1,0.5-0.1h0.3c0.9-0.3,1.8-0.5,2.5-0.9c0.1-0.1,0.4-0.1,0.5-0.3c0.1-0.1,0.4-0.3,0.5-0.4h0.1l0.1-0.1v-0.1
			c0.1-0.1,0.3-0.1,0.4-0.1c0.3-0.3,0.6-0.5,0.9-0.8l0.3-0.1v-0.1h0.1v-0.1h0.1v-0.1h0.1c0.1-0.1,0.1-0.3,0.3-0.4h0.1v-0.1h0.1
			c0,0,0-0.1,0.1-0.1h0.1c1-1,1.7-2.5,2.3-4c0.1-0.4,0.1-0.6,0.3-1C799.8,329.4,800.1,327.7,799.8,326.8z M798.5,330.1
			c-0.1,0.5-0.3,0.9-0.4,1.4c-1,2.3-2.7,4-4.9,5.2c-0.3,0.1-0.4,0.1-0.6,0.3c-0.6,0.3-1.4,0.5-2.2,0.6c-0.4,0.1-0.6,0-1,0.1
			c-0.3,0.1-0.9,0.1-1.3,0h-0.5c-0.8-0.3-1.6-0.3-2.3-0.5c-2.7-1-4.9-3-6-5.6c-0.3-0.6-0.5-1.4-0.6-2.2c0-0.3,0-0.5-0.1-0.8
			c-0.3-1.2,0-3.2,0.4-4c0.1-0.4,0.3-0.8,0.4-1.2c1.3-2.9,3.6-4.8,6.7-5.8c1-0.3,2.1-0.4,3.4-0.4c0.1,0.1,0.4,0,0.5,0
			c0.3,0.1,0.6,0,0.9,0.1c0.8,0.3,1.4,0.4,2.1,0.6c2.6,1.2,4.4,3.2,5.4,5.8c0.3,0.6,0.4,1.4,0.5,2.1c0,0.3,0,0.5,0,0.6
			C799,327.7,798.8,329.4,798.5,330.1z M797.3,323.8c-0.8-1.9-2.1-3.5-3.9-4.4c-1.2-0.6-2.5-1.3-4.3-1.3v5.2c0,0.6-0.1,1.6,0.4,1.7
			c0.3,0.3,1.3,0,1.8,0.1c0.3,0,0.5,0.3,0.6,0.4c0.1,0.1,0.3,0.4,0.3,0.6c0,0.1,0,0.4,0,0.5v0.3c-0.1,0.4-0.4,0.8-0.8,1
			c-0.4,0.1-1,0.1-1.4,0.1h-2.2c-0.5,0-1,0-1.4,0.1c-0.1,0.1-0.1,0.3-0.1,0.5c0.1,0.1,0.1,0.1,0.3,0.3c0.1,0.1,0.4,0,0.6,0
			c0.5,0,1,0,1.4,0.1c1,0.4,0.8,2.2,0.8,3.6c0.5,0,1,0,1.4-0.1h0.4c0.6-0.1,1.2-0.3,1.8-0.3c0.5-0.1,1-0.3,1.6-0.4
			c0.6-0.3,1.2-0.5,1.8-0.8h0.1l0.1-0.1h0.1c0.3-0.1,0.5-0.4,0.6-0.5c0,0,0.1,0,0.1-0.1v-0.1c0.1-0.1,0.3-0.1,0.3-0.1
			c0-0.1,0-0.3,0-0.3c0-0.1,0.1-0.4,0.1-0.5v-0.3c0.3-1.3,0-3-0.3-4C797.5,324.4,797.5,324.2,797.3,323.8z M796.7,327.9h-3.1
			c-0.4-0.1-0.6-0.4-0.9-0.8c-0.1-0.3-0.3-0.6-0.1-1c0.1-0.3,0.3-0.5,0.3-0.8c-0.4-0.3-0.3-1.2-0.1-1.6c0.1-0.3,0.4-0.6,0.6-0.8
			c0.3-0.1,0.8-0.1,1-0.1h2.3v1c-0.9,0-1.9,0-2.9,0c-0.3,0.4-0.3,0.5,0,0.9h2.7v1c-0.1,0.1-0.5,0-0.8,0h-1.7c-0.1-0.1-0.5,0-0.5,0.1
			c-0.1,0.1-0.1,0.3-0.1,0.4c0.1,0.1,0.1,0.3,0.3,0.3h2.7C796.7,327.1,796.7,327.5,796.7,327.9z M786.3,329.9h-0.4
			c-0.3-0.1-0.5-0.3-0.6-0.4c-0.5-0.6-0.3-2.1,0.4-2.3c0.3-0.1,0.9-0.1,1.3-0.1h2.6c0.4,0,0.9,0,1.3-0.1c0.1-0.1,0.1-0.3,0.1-0.5
			c-0.1-0.1-0.1-0.1-0.3-0.3c-0.1-0.1-0.4,0-0.5,0c-0.4,0-0.9,0-1.3,0c-1.2-0.4-0.9-2.2-0.9-3.8c-0.5,0-1,0-1.4,0.1h-0.4
			c-0.6,0.1-1.2,0.3-1.8,0.3c-0.8,0.3-1.6,0.4-2.3,0.8c-0.1,0-0.1,0-0.3,0.1c-0.3,0.1-0.5,0.3-0.8,0.4c-0.1,0.1-0.3,0.1-0.4,0.1
			c-0.3,0.1-0.5,0.4-0.8,0.6c-0.1,0.1-0.3,0.1-0.4,0.3c-0.1,0.3-0.1,0.8-0.1,1c-0.3,1.3,0,3,0.3,4c0.3,0.6,0.4,1.2,0.6,1.7
			c0,0.1,0,0.3,0.1,0.3c1.6,2.5,3.9,4.4,7.6,4.7v-4.8c0-0.6,0.1-1.6-0.1-1.9C787.8,329.7,786.8,329.9,786.3,329.9z"/>
	</g>
</g>
<circle class="st0" cx="789.8" cy="482.2" r="58.2"/>
</svg>
