<?xml version="1.0" encoding="utf-8"?>
<!-- Generator: Adobe Illustrator 19.0.0, SVG Export Plug-In . SVG Version: 6.00 Build 0)  -->
<svg version="1.1" id="Layer_1" xmlns="http://www.w3.org/2000/svg" xmlns:xlink="http://www.w3.org/1999/xlink" x="0px" y="0px"
	 viewBox="0 0 1024 1024" style="enable-background:new 0 0 1024 1024;" xml:space="preserve">
<style type="text/css">
	.st0{fill:#050606;}
</style>
<g>
	<g>
		<path class="st0" d="M247.5,188.9c-0.1-0.8-0.1-1.7-0.2-2.5c-0.5-1.5-0.7-3.3-1.3-4.8c-2.5-6.4-7-10.6-13-13.6
			c-0.4-0.2-0.7-0.2-1.1-0.3c-1.3-0.5-2.8-0.9-4.3-1.3c-0.6-0.2-1.2-0.1-1.8-0.2c-0.4-0.1-0.9,0.1-1.1-0.1
			c-9.7-0.2-16.8,4.6-20.6,10.3c-0.4,0.6-0.9,1.4-1.4,2c-0.1,0.2-0.1,0.4-0.2,0.5c-0.4,0.7-0.7,1.4-1,2.2c-0.2,0.4-0.7,1.3-0.5,1.7
			c-0.4,0.7-0.4,1.5-0.6,2.4c-1.1,3.6-0.5,8.8,0.6,11.9c0.3,0.7,0.3,1.4,0.6,2.1c3.3,6.5,7.2,10.6,14.3,13.4
			c1.4,0.6,3.1,0.7,4.8,1.1c0.5,0.2,1.2,0.1,1.7,0.2c0.7,0.2,3,0,3.6-0.2c0.3,0,0.6,0,0.9,0c0.3-0.1,0.9-0.2,1.2-0.3
			c0.2,0,0.4,0,0.6,0c1.9-0.5,3.7-1.1,5.3-1.9c0.4-0.2,0.8-0.3,1.2-0.5c0.4-0.2,0.7-0.6,1.1-0.8c0.1,0,0.2,0,0.2,0l0.2-0.2
			c0-0.1,0-0.1,0-0.2c0.2-0.2,0.5-0.2,0.7-0.3c0.6-0.5,1.2-1.1,1.8-1.6c0.1-0.1,0.4-0.2,0.5-0.3c0-0.1,0-0.1,0-0.2
			c0.1,0,0.1,0,0.2,0c0-0.1,0-0.1,0-0.2c0.1,0,0.1,0,0.2,0c0-0.1,0-0.1,0-0.2c0.1,0,0.1,0,0.2,0c0.3-0.2,0.4-0.5,0.6-0.8
			c0.1,0,0.1,0,0.2,0c0-0.1,0-0.1,0-0.2c0.1,0,0.1,0,0.2,0c0.1-0.1,0.1-0.2,0.2-0.3c0.1,0,0.1,0,0.2,0c2.1-2.2,3.7-5.2,4.9-8.4
			c0.3-0.7,0.3-1.3,0.5-2.1C247.2,194.1,247.9,190.7,247.5,188.9z M244.7,195.7c-0.4,1.1-0.5,2-1,3c-2.1,4.9-5.8,8.5-10.4,10.9
			c-0.4,0.2-0.9,0.3-1.3,0.5c-1.5,0.6-2.9,1-4.6,1.4c-0.7,0.2-1.4-0.1-2.2,0.2c-0.6,0.2-2,0.2-2.7,0c-0.4,0-0.7,0-1.1,0
			c-1.7-0.4-3.3-0.5-4.8-1.1c-5.8-2.2-10.3-6.3-12.7-11.9c-0.6-1.4-1-3.1-1.4-4.8c-0.1-0.5-0.1-1.1-0.2-1.6
			c-0.6-2.6,0.1-6.7,0.8-8.6c0.3-0.9,0.4-1.7,0.8-2.5c2.7-6,7.6-10.3,14.2-12.3c2.1-0.6,4.4-0.7,7.1-0.7c0.3,0.2,0.7,0,1.1,0.1
			c0.6,0.2,1.3,0.1,2,0.3c1.5,0.4,3,0.8,4.4,1.4c5.5,2.4,9.3,6.8,11.6,12.4c0.6,1.3,0.7,2.9,1.1,4.4c0,0.5,0.1,1,0.1,1.5
			C245.8,190.5,245.1,194.2,244.7,195.7z M242,182.5c-1.8-4-4.5-7.3-8.2-9.4c-2.6-1.4-5.2-2.7-9.1-2.8c0,3.6,0,7.2,0,10.8
			c0,1.3-0.3,3.3,0.7,3.6c0.6,0.6,2.7-0.1,3.7,0.2c0.5,0.1,1.2,0.5,1.4,0.9c0.3,0.4,0.5,0.9,0.6,1.3c0.1,0.4,0.1,0.9,0,1.2
			c0,0.2,0,0.4,0,0.6c-0.3,0.9-0.9,1.7-1.7,2c-0.7,0.3-2.1,0.2-3.1,0.2c-1.5,0-3.1,0-4.6,0c-1.1,0-2.3-0.1-3.1,0.2
			c-0.2,0.4-0.3,0.5-0.3,1.2c0.2,0.2,0.2,0.4,0.5,0.5c0.2,0.2,0.9,0.1,1.3,0.1c1,0,2.2-0.1,3,0.2c2.2,0.9,1.7,4.6,1.7,7.7
			c1,0,2.2-0.1,3.1-0.2c0.3,0,0.6,0,0.9,0c1.3-0.2,2.5-0.4,3.8-0.6c1.1-0.3,2.3-0.5,3.4-1c1.3-0.5,2.6-1.1,3.7-1.8
			c0.1,0,0.2,0,0.2,0c0.1-0.1,0.2-0.3,0.3-0.3c0.1,0,0.2,0,0.2,0c0.5-0.3,1-0.8,1.4-1.1c0.1-0.1,0.3-0.1,0.4-0.2c0-0.1,0-0.1,0-0.2
			c0.2-0.2,0.4-0.2,0.5-0.4c0-0.2,0.1-0.4,0.1-0.6c0.1-0.3,0.2-0.8,0.3-1.1c0-0.2,0-0.4,0-0.5c0.6-2.7,0.1-6.4-0.6-8.5
			C242.4,183.7,242.3,183.2,242,182.5z M240.8,191.2c-2.2,0-4.4,0-6.6,0c-0.9-0.3-1.4-0.9-1.8-1.8c-0.2-0.4-0.5-1.3-0.3-2
			c0.2-0.5,0.5-1,0.5-1.6c-0.7-0.6-0.6-2.4-0.2-3.3c0.3-0.7,0.7-1.3,1.3-1.6c0.5-0.3,1.5-0.2,2.3-0.2c1.6,0,3.2,0,4.8,0
			c0,0.7,0,1.4,0,2.1c-2,0-4,0.1-5.9,0.1c-0.6,0.9-0.6,1.1,0.1,1.8c1.9,0,3.9,0,5.9,0c0,0.7,0,1.5,0,2.3c-0.4,0.2-1.1,0.1-1.7,0.1
			c-1.2,0-2.3,0-3.5,0c-0.3-0.2-1,0-1.1,0.4c-0.2,0.2-0.2,0.4-0.2,0.8c0.2,0.2,0.3,0.5,0.5,0.6c1.9,0,3.9,0,5.9,0
			C240.9,189.5,240.8,190.5,240.8,191.2z M219,195.3c-0.3,0-0.6,0-0.9,0c-0.5-0.2-1.1-0.6-1.4-1c-1.2-1.5-0.5-4.3,0.9-5.1
			c0.6-0.4,1.9-0.2,2.8-0.2c1.9,0,3.7,0,5.6,0c0.9,0,2,0.1,2.7-0.2c0.2-0.4,0.3-0.5,0.3-1.2c-0.2-0.2-0.2-0.4-0.5-0.5
			c-0.2-0.2-0.8-0.1-1.2-0.1c-1,0-1.9-0.1-2.8-0.1c-2.6-0.7-1.9-4.6-1.9-7.8c-1,0-2.2,0.1-3,0.2c-0.3,0-0.6,0-0.9,0
			c-1.3,0.2-2.5,0.4-3.8,0.6c-1.7,0.5-3.4,1-4.8,1.6c-0.3,0.1-0.4,0.1-0.6,0.2c-0.5,0.3-1.1,0.6-1.7,1c-0.3,0.2-0.5,0.2-0.8,0.3
			c-0.6,0.4-1.1,0.9-1.7,1.3c-0.2,0.2-0.6,0.3-0.7,0.5c-0.3,0.6-0.2,1.5-0.4,2.3c-0.6,2.7-0.1,6.4,0.6,8.5c0.5,1.3,0.9,2.4,1.4,3.5
			c0.1,0.2,0.1,0.4,0.2,0.6c3.2,5.2,8.2,9.4,16.1,9.9c0-3.4,0-6.7,0-10c0-1.3,0.3-3.3-0.3-4C221.8,195.1,220.1,195.3,219,195.3z"/>
	</g>
</g>
<g>
	<g>
		<path class="st0" d="M730.3,188.9c-0.1-0.8-0.1-1.7-0.2-2.5c-0.5-1.5-0.7-3.3-1.3-4.8c-2.5-6.4-7-10.6-13-13.6
			c-0.4-0.2-0.7-0.2-1.1-0.3c-1.3-0.5-2.8-0.9-4.3-1.3c-0.6-0.2-1.2-0.1-1.8-0.2c-0.4-0.1-0.9,0.1-1.1-0.1
			c-9.7-0.2-16.8,4.6-20.6,10.3c-0.4,0.6-0.9,1.4-1.4,2c-0.1,0.2-0.1,0.4-0.2,0.5c-0.4,0.7-0.7,1.4-1,2.2c-0.2,0.4-0.7,1.3-0.5,1.7
			c-0.4,0.7-0.4,1.5-0.6,2.4c-1.1,3.6-0.5,8.8,0.6,11.9c0.3,0.7,0.3,1.4,0.6,2.1c3.3,6.5,7.2,10.6,14.3,13.4
			c1.4,0.6,3.1,0.7,4.8,1.1c0.5,0.2,1.2,0.1,1.7,0.2c0.7,0.2,3,0,3.6-0.2c0.3,0,0.6,0,0.9,0c0.3-0.1,0.9-0.2,1.2-0.3
			c0.2,0,0.4,0,0.6,0c1.9-0.5,3.7-1.1,5.3-1.9c0.4-0.2,0.8-0.3,1.2-0.5c0.4-0.2,0.7-0.6,1.1-0.8c0.1,0,0.2,0,0.2,0l0.2-0.2
			c0-0.1,0-0.1,0-0.2c0.2-0.2,0.5-0.2,0.7-0.3c0.6-0.5,1.2-1.1,1.8-1.6c0.1-0.1,0.4-0.2,0.5-0.3c0-0.1,0-0.1,0-0.2
			c0.1,0,0.1,0,0.2,0c0-0.1,0-0.1,0-0.2c0.1,0,0.1,0,0.2,0c0-0.1,0-0.1,0-0.2c0.1,0,0.1,0,0.2,0c0.3-0.2,0.4-0.5,0.6-0.8
			c0.1,0,0.1,0,0.2,0c0-0.1,0-0.1,0-0.2c0.1,0,0.1,0,0.2,0c0.1-0.1,0.1-0.2,0.2-0.3c0.1,0,0.1,0,0.2,0c2.1-2.2,3.7-5.2,4.9-8.4
			c0.3-0.7,0.3-1.3,0.5-2.1C730,194.1,730.7,190.7,730.3,188.9z M727.5,195.7c-0.4,1.1-0.5,2-1,3c-2.1,4.9-5.8,8.5-10.4,10.9
			c-0.4,0.2-0.9,0.3-1.3,0.5c-1.5,0.6-2.9,1-4.6,1.4c-0.7,0.2-1.4-0.1-2.2,0.2c-0.6,0.2-2,0.2-2.7,0c-0.4,0-0.7,0-1.1,0
			c-1.7-0.4-3.3-0.5-4.8-1.1c-5.8-2.2-10.3-6.3-12.7-11.9c-0.6-1.4-1-3.1-1.4-4.8c-0.1-0.5-0.1-1.1-0.2-1.6
			c-0.6-2.6,0.1-6.7,0.8-8.6c0.3-0.9,0.4-1.7,0.8-2.5c2.7-6,7.6-10.3,14.2-12.3c2.1-0.6,4.4-0.7,7.1-0.7c0.3,0.2,0.7,0,1.1,0.1
			c0.6,0.2,1.3,0.1,2,0.3c1.5,0.4,3,0.8,4.4,1.4c5.5,2.4,9.3,6.8,11.6,12.4c0.6,1.3,0.7,2.9,1.1,4.4c0,0.5,0.1,1,0.1,1.5
			C728.6,190.5,727.9,194.2,727.5,195.7z M724.8,182.5c-1.8-4-4.5-7.3-8.2-9.4c-2.6-1.4-5.2-2.7-9.1-2.8c0,3.6,0,7.2,0,10.8
			c0,1.3-0.3,3.3,0.7,3.6c0.6,0.6,2.7-0.1,3.7,0.2c0.5,0.1,1.2,0.5,1.4,0.9c0.3,0.4,0.5,0.9,0.6,1.3c0.1,0.4,0.1,0.9,0,1.2
			c0,0.2,0,0.4,0,0.6c-0.3,0.9-0.9,1.7-1.7,2c-0.7,0.3-2.1,0.2-3.1,0.2c-1.5,0-3.1,0-4.6,0c-1.1,0-2.3-0.1-3.1,0.2
			c-0.2,0.4-0.3,0.5-0.3,1.2c0.2,0.2,0.2,0.4,0.5,0.5c0.2,0.2,0.9,0.1,1.3,0.1c1,0,2.2-0.1,3,0.2c2.2,0.9,1.7,4.6,1.7,7.7
			c1,0,2.2-0.1,3.1-0.2c0.3,0,0.6,0,0.9,0c1.3-0.2,2.5-0.4,3.8-0.6c1.1-0.3,2.3-0.5,3.4-1c1.3-0.5,2.6-1.1,3.7-1.8
			c0.1,0,0.2,0,0.2,0c0.1-0.1,0.2-0.3,0.3-0.3c0.1,0,0.2,0,0.2,0c0.5-0.3,1-0.8,1.4-1.1c0.1-0.1,0.3-0.1,0.4-0.2c0-0.1,0-0.1,0-0.2
			c0.2-0.2,0.4-0.2,0.5-0.4c0-0.2,0.1-0.4,0.1-0.6c0.1-0.3,0.2-0.8,0.3-1.1c0-0.2,0-0.4,0-0.5c0.6-2.7,0.1-6.4-0.6-8.5
			C725.2,183.7,725.1,183.2,724.8,182.5z M723.6,191.2c-2.2,0-4.4,0-6.6,0c-0.9-0.3-1.4-0.9-1.8-1.8c-0.2-0.4-0.5-1.3-0.3-2
			c0.2-0.5,0.5-1,0.5-1.6c-0.7-0.6-0.6-2.4-0.2-3.3c0.3-0.7,0.7-1.3,1.3-1.6c0.5-0.3,1.5-0.2,2.3-0.2c1.6,0,3.2,0,4.8,0
			c0,0.7,0,1.4,0,2.1c-2,0-4,0.1-5.9,0.1c-0.6,0.9-0.6,1.1,0.1,1.8c1.9,0,3.9,0,5.9,0c0,0.7,0,1.5,0,2.3c-0.4,0.2-1.1,0.1-1.7,0.1
			c-1.2,0-2.3,0-3.5,0c-0.3-0.2-1,0-1.1,0.4c-0.2,0.2-0.2,0.4-0.2,0.8c0.2,0.2,0.3,0.5,0.5,0.6c1.9,0,3.9,0,5.9,0
			C723.7,189.5,723.6,190.5,723.6,191.2z M701.8,195.3c-0.3,0-0.6,0-0.9,0c-0.5-0.2-1.1-0.6-1.4-1c-1.2-1.5-0.5-4.3,0.9-5.1
			c0.6-0.4,1.9-0.2,2.8-0.2c1.9,0,3.7,0,5.6,0c0.9,0,2,0.1,2.7-0.2c0.2-0.4,0.3-0.5,0.3-1.2c-0.2-0.2-0.2-0.4-0.5-0.5
			c-0.2-0.2-0.8-0.1-1.2-0.1c-1,0-1.9-0.1-2.8-0.1c-2.6-0.7-1.9-4.6-1.9-7.8c-1,0-2.2,0.1-3,0.2c-0.3,0-0.6,0-0.9,0
			c-1.3,0.2-2.5,0.4-3.8,0.6c-1.7,0.5-3.4,1-4.8,1.6c-0.3,0.1-0.4,0.1-0.6,0.2c-0.5,0.3-1.1,0.6-1.7,1c-0.3,0.2-0.5,0.2-0.8,0.3
			c-0.6,0.4-1.1,0.9-1.7,1.3c-0.2,0.2-0.6,0.3-0.7,0.5c-0.3,0.6-0.2,1.5-0.4,2.3c-0.6,2.7-0.1,6.4,0.6,8.5c0.5,1.3,0.9,2.4,1.4,3.5
			c0.1,0.2,0.1,0.4,0.2,0.6c3.2,5.2,8.2,9.4,16.1,9.9c0-3.4,0-6.7,0-10c0-1.3,0.3-3.3-0.3-4C704.6,195.1,702.9,195.3,701.8,195.3z"
			/>
	</g>
</g>
</svg>
