<?xml version="1.0" encoding="utf-8"?>
<!-- Generator: Adobe Illustrator 19.0.0, SVG Export Plug-In . SVG Version: 6.00 Build 0)  -->
<svg version="1.1" id="Layer_1" xmlns="http://www.w3.org/2000/svg" xmlns:xlink="http://www.w3.org/1999/xlink" x="0px" y="0px"
	 viewBox="0 0 1024 1024" style="enable-background:new 0 0 1024 1024;" xml:space="preserve">
<style type="text/css">
	.st0{fill-rule:evenodd;clip-rule:evenodd;fill:#020202;}
</style>
<path class="st0" d="M877,553c-50.7,0-101.3,0-152,0c1.5-78.6-5.5-154.8-25-213c-4.5-13.5-5.7-27.1-11-40c-5.7-13.9-14.1-27.6-20-41
	c-2.8-6.3-5.5-11.5-8-17c0-1,0-2,0-3c-3.9-7.3-11.9-14.3-15-22c-1-7-2-14-3-21c-2-3.9-5.9-4.1-7-10c3.7-5,3.6-12.8,6-19
	c4.7-12.3,8.7-24.9,14-37c15.8-35.7,43.5-76.1,73-98c1.7-2,3.3-4,5-6c7.8-5.6,16.1-9.5,24-15c2.8-2,4.1-4.8,8-6c2.6,7.8,10.4,5,19,7
	c8.2,1.9,24.8,2,33,0c4.3,0,8.7,0,13,0c4.5-1.2,6.6-3.5,12-4c3.4,3.5,8.9,4.2,13,7c1.7,2,3.3,4,5,6c3.2,2.4,5.3,5,8,7
	c0.7,0,1.3,0,2,0c1.7,2,3.3,4,5,6c2.7,2,4.6,4.2,7,6c0.7,0,1.3,0,2,0c2,2.3,4,4.7,6,7c4.7,3.5,10.6,7.3,14,12
	c8.9,12.3,15.8,25,24,38c5.4,8.6,12.7,17.2,17,27c3,6.9,4,13,7,20c6.4,15,15.7,29.5,16,50c-5,3.2-7.3,8.6-9,15c0,2.7,0,5.3,0,8
	c-2.8,8-9.7,16.1-14,23c-2.7,4.3-3.3,8.6-6,13c-5.9,9.5-13.5,19.4-18,30c-0.7,3.3-1.3,6.7-2,10c-2.9,6.8-8.3,13.8-11,21
	c-5.5,14.4-7.6,30.1-12,45c-0.3,3.3-0.7,6.7-1,10C880.7,421,879.5,488.8,877,553z"/>
<path class="st0" d="M252,538c-51,0-102,0-153,0c-3.2-36.5-1-76.6-9-109c-1-13-2-26-3-39c-6.7-25.7-13.9-52.6-22-77
	c-2-8.7-4-17.3-6-26c-1.8-5.2-5.9-10.2-8-15c-8.4-19-16.4-35.9-26-54c-3.7-7-11.5-12-13-21c1.8-1.8,2.9-7.7,2-9c-0.9-3.2-3.7-6-6-8
	c-0.5-19.6,9.8-33.2,16-47c5-11.3,8.7-22,15-32c7-11.1,16.4-21.4,24-32c5.9-8.2,11-18.1,19-24c10.9-8.1,21.1-17.4,32-25
	c3.5-2.4,8.1-3.1,11-6c1.9,0.6,0.9,0.1,2,1c4.3,5.6,2.6,13.3,5,21c0.6,2,13.6,23,15,24c3.2,2.4,11.3,5.5,15,7c3.7,1.5,9,1,14,1
	c25.4,0,29.4-11.6,39-27c1.2-1.9,4.1-3.9,5-6c2.6-6.1,2.6-15.8,5-22c8.7,4.2,18.2,9.4,26,15c6.6,4.8,11.5,13.1,18,18
	c4.1,3,13.3,9.3,16,13c8.3,11.3,14.4,22.9,22,35c5.2,8.2,13,16.8,17,26c2.5,5.6,2.6,10.3,5,16c5.4,13,14.8,28,16,44
	c-3.8,2.4-5.5,6.5-9,9c1.3,3.3,4,8.9,3,11c-1.6,5.8-6.2,9.5-9,14c-2.6,4.1-3.4,7.9-6,12c-3.1,4.9-8,9.9-11,15c-4.3,7.2-5.6,17-9,25
	c-6.8,15.8-15,32.9-21,49c-0.3,2.7-0.7,5.3-1,8c-4.3,13.7-4.8,29.1-9,44C259.1,416.3,256.2,480.4,252,538z"/>
<path class="st0" d="M483,62c4.2,2,4.6,7.1,7,11c7.2,11.6,13.5,24.1,21,36c7.3,11.6,18.1,21.9,29,30c6.2,4.6,10.8,12.4,17,17
	c8.7,6.5,18.8,12.3,28,18c3.7,2.3,7.3,2.7,11,5c4.1,2.6,8.8,6.4,13,9c2.8,1.8,7.6,2,9,5c0,3.3,0,6.7,0,10c-3.3,5-2.1,17.3-4,24
	c-4,13.9-4.8,30.1-9,45c-2.6,9.2-4.5,20.8-7,30c-0.3,3.7-0.7,7.3-1,11c-12.3,43.2-16.3,91.6-28,135c-0.3,3.7-0.7,7.3-1,11
	c-4,14.2-6,30.5-10,45c-1.9,7-1.3,20.1-5,25c-4.3,3.1-18.5,1-25,1c-22.7,0-45.3,0-68,0c-4.1-2.9-32.4-1.1-40-1c0-0.3,0-0.7,0-1
	c-0.3,0-0.7,0-1,0c-22-111.3-44-222.7-66-334c24.3-10.9,41.9-28.1,62-43c7.3-5.4,18.8-13.9,24-21c7.6-10.4,13.8-21.1,21-32
	C466.2,88.6,479.8,72.9,483,62z"/>
<path class="st0" d="M173,551c12.7,3.1,29.6,33.9,37,45c5.2,7.8,12.5,14.4,20,20c6,6.3,12,12.7,18,19c0.7,0,1.3,0,2,0
	c8.3,6.1,14.3,16.2,23,22c8.6,5.8,18.3,10.7,27,16c5.3,3.3,12.1,2.1,13,10c-3.5,5.1-2.1,13.4-4,20c-5,17.4-5.8,36.8-11,55
	c-4.5,15.8-5.2,33.2-10,50c-11.9,41.8-16.3,87.4-28,129c-0.7,5-1.3,10-2,15c-3.8,13-6.2,28.8-10,42c-1.9,6.4-0.4,14.3-4,19
	c-3.2,2.4-13.8,1.1-19,1c-3.8,2.7-25.2,1-32,1c-26.7,0.3-53.3,0.7-80,1c0-0.3,0-0.7,0-1c-0.3,0-0.7,0-1,0c0-9.1-3-17.4-5-25
	c-0.3-3.7-0.7-7.3-1-11c-4.1-14.5-6.1-31.4-10-46c-2.1-7.6-0.8-13.6-3-21c-9.1-30.9-11.3-66-20-97c-2.5-9.1-1.5-16.7-4-26
	c-4.8-17.7-7-38.2-12-56c-0.7-5.3-1.3-10.7-2-16c-3.3-11.6-6.9-25.8-8-39c12-5,24-10,36-15c5.3-3.3,10.1-8.5,15-12
	c4.7-3.4,9.3-5.6,14-9c1.3-1.7,2.7-3.3,4-5c7.1-5.2,17-12,22-19c8.4-11.7,14.1-24.8,21-38C163.7,571,170.4,561.8,173,551z"/>
<path class="st0" d="M626,990c-58.6,0-119,1-179,1c-0.5-19.2,1-38.2,5-54c0.3-5.3,0.7-10.7,1-16c2.6-10.2,3.4-23,6-33
	c0.3-4,0.7-8,1-12c3.7-18.3,7.3-36.7,11-55c6-18.3,12-36.7,18-55c8.8-21,19.1-42.8,28-63c6.6-14.9,12.2-29.5,20-43c0.3,0,0.7,0,1,0
	c0,0.3,0,0.7,0,1c9.6,6.8,11.9,17.5,17,29c6.3,14.1,13.9,29.5,20,44c2.3,5.5,2,10.1,4,16c12.6,36.9,23.4,76.2,34,115
	c5.4,19.7,3.1,43.2,8,63c0,3.3,0,6.7,0,10C624.6,952.6,625.8,973.6,626,990z"/>
<path class="st0" d="M959,991c-60,0-120.4-1-179-1c-0.2-10.4,0.8-22.1,3-31c1.7-6.9,0.5-14.9,2-21c0-3.3,0-6.7,0-10
	c3.3-13.2,2.7-30.1,6-43c0-2.7,0-5.3,0-8c7-26.9,12.7-52.4,21-77c1.4-4.2,0.6-6.8,2-11c4.2-12.3,8.8-26.8,13-39c2-5.9,1.7-10.5,4-16
	c4.8-11.4,11.1-23.8,16-35c3.2-7.3,6.1-14.2,9-21c0.3-1.7,0.7-3.3,1-5c2.9-4.7,8-8.2,11-13c0.3,0,0.7,0,1,0c0,0.3,0,0.7,0,1
	c5,4,5.9,12.1,9,18c8.9,17,15.9,34.7,24,53c13.4,30.3,24.8,62.9,35,97c5.7,19.1,5.9,40,11,59c0.3,4.3,0.7,8.7,1,13
	c2.1,8.3,2.8,19.5,5,28c0,2.7,0,5.3,0,8C958.1,953.1,958.9,971.6,959,991z"/>
</svg>
