<?xml version="1.0" encoding="utf-8"?>
<!-- Generator: Adobe Illustrator 19.0.0, SVG Export Plug-In . SVG Version: 6.00 Build 0)  -->
<svg version="1.1" id="Layer_1" xmlns="http://www.w3.org/2000/svg" xmlns:xlink="http://www.w3.org/1999/xlink" x="0px" y="0px"
	 viewBox="0 0 1024 1024" style="enable-background:new 0 0 1024 1024;" xml:space="preserve">
<style type="text/css">
	.st0{fill-rule:evenodd;clip-rule:evenodd;fill:#070808;}
</style>
<g>
	<g>
		<path class="st0" d="M951,179c-3.5-4.9-1.3-14.5-3-21c-2.7-10-5-20.7-9-30c-19.2-44.2-67.5-89.8-130-90c0.1-7.5,1.1-18.2-1-24h-13
			c0.1,5.9,1.8,19.1-1,23c-3.8,2.7-9.6,0.7-15,2c-11.1,2.8-22.8,4.7-33,9c-45.3,19.2-91.5,67.6-92,131h-1v1c-5.4,0.1-16.6,1.5-20-1
			h-1c1.9,5.6,5.8,5.7,6,14h1v1h15c0.1,44.9,30,91,56,110c8.9,6.5,17.8,10.7,28,16c14.8,7.8,33.8,14.9,56,15v1h1
			c0.1,10,1.9,24.8-1,33c-29.6-1.4-53.7-9.3-74-20c-6.7-3.5-15.6-6.2-20-12c-2.8,1.7-0.5,10.5,1,15c3.6,11.2,9.3,26.8,10,37
			c27.3,11.4,77.7,26.3,112,18c7-0.7,14-1.3,21-2c11-3,22-6,33-9c4.6-1.9,9.2-5.3,15-6c0.6-11.4,4.7-19,7-27c2-6.7,0.4-15.9,4-21v-3
			c-9,2.9-16.5,10.2-25,14c-19,8.4-42.8,16.1-69,16v-34c22.4,0,39.6-7.2,55-14c42.4-18.7,85.7-67,86-127h16c3.9-2.1-0.1-7.4,7-9
			c0.3-1.7,0.7-3.3,1-5C968.1,180.1,954.9,181.8,951,179z M795,297c-46.4-1.3-79.3-33.3-94-67c-4.4-10-8.9-21.4-9-36
			c6.3-0.1,20.8-2,25,1c3.4,4.8,3.4,18,6,24c10.4,24.5,37.4,51,71,52v1h1V297z M794,101c-5.2,3.8-19.5,4.2-26,7
			c-23.4,10.1-49.8,38.1-50,71h-1v1c-7.8,0.1-18.9,1.2-25-1c0.3-45.5,34.8-80.9,67-95c5.9-2.6,13-4.3,19-6c4.1-1.2,9,0.1,12-2h4v1h1
			C795.1,83.1,796.9,97,794,101z M898,240c-17.3,28.1-45.5,55.8-89,57v-26c38.5-0.4,76.6-37.8,77-76h1v-1h25
			C911.9,212.8,905.3,228.2,898,240z M887,179c-2.1-3-0.8-7.9-2-12c-1.4-4.7-2.9-10.2-5-15c-10.3-23.6-38-49.5-71-50V76
			c45.3,1.3,76.1,31.6,92,63c5.6,11.1,11,24.2,11,41C905.7,180.1,891.2,182,887,179z M343,172v-1c-6.1,0.1-20,1.9-24-1
			c-3.5-4.9-1.2-14.6-3-21c-4.3-15.5-9.3-31.5-17-44c-11.9-19.3-28.9-36.9-48-49c-6.9-4.4-19.1-6.9-25-12c-6,2.1-13.8,15.3-22,19
			c-29.5,13.5-65.3,1.6-77-19c-16,3.4-27.7,13.7-39,22c-26.9,19.7-55,58.2-55,104h-1v1H8c-0.1,4.4,0,7.7,2,10c0.7,1,1.3,2,2,3
			c5.4-0.1,16.6-1.5,20,1c3.4,4.7,1.3,13.6,3,20c2.6,9.8,5.1,20,9,29c18.2,41.7,64.6,85.1,124,85v1h1c0.1,9.8,1.8,24.1-1,32
			c-37.1-2.7-64.4-13.3-88-29c-4.3-2.9-8.6-4.4-12-8h-1c1,11.8,6.5,23.5,10,34c1.9,5.7,0.9,11.8,4,16c1.9,8.1,27,13,36,16
			c51,17.1,117.8,6.8,156-15c0.5-12.3,4-25.4,7-36c1.4-5,0.4-9.5,3-13v-1c-7.5,2.5-14.4,9.9-21,14c-17.4,10.7-52.6,22.1-80,22
			c-0.1-6.5-1.6-28.4,1-32c4-2.8,11.7-0.6,17-2c9.6-2.5,20-4.2,29-8c42.9-18.1,88.6-65.1,89-125h1v-1h21c1.6-0.7,3.3-3.9,5-5
			c-0.3-2.3-0.7-4.7-1-7H343z M168,283c-30.2-0.4-64.2-22.3-77-40c-4.6-6.4-7.2-12.7-11-20c-4.5-8.5-13.2-27.2-10-39
			c7.5-0.1,18.2-1.1,24,1c2.1,11.3,4.3,22,9,31c10,19.2,36.3,41.7,65,42v1h1C169.1,266.5,170.1,277.2,168,283z M168,96
			c-2,1.4-4.9,0.2-8,1c-7,2.3-14,4.7-21,7c-23.4,12.1-41.7,34.9-45,67c-6.1,0.1-20,1.9-24-1c-3.9-7.1,7.2-32.7,10-38
			c1.8-3.4,2-6.8,4-10c14.6-23.4,47.2-50.3,85-50C169.1,78.1,170.9,92,168,96z M182,283c-0.1-6.1-1.9-20,1-24c4.6-3.3,18.3-3.5,24-6
			c25.9-11.2,46.5-34.6,50-68h1v-1c7.5-0.1,18.2-1.1,24,1C276.9,235.5,236,282.8,182,283z M281,171h-24c-2-37-35.4-74.1-74-74v-1h-1
			V72c39.7,0.3,74.2,28.6,88,55c4.3,8.1,7.4,18,10,27c1.2,4.2-0.2,9.9,2,13C281.7,169.3,281.6,169.5,281,171z M590,192
			c-14.6-6.1-29.3-13.5-42-22c-3.9-2.6-7.3-7.3-11-10c-12.5-9.2-24.9-20.5-34-33c-5-6.9-10.3-19.5-16-25v-1h-1
			c-3.1,12.1-15.3,23-22,32c-17.2,23.2-43.2,42.8-71,55c-12,4-24,8-36,12c-1.7,2.6,3.9,22.3,4,29c12.2-0.9,23.5-6,33-10
			c10.9-4.6,21.4-7.1,31-13c14.8-9.1,28.3-19.8,42-30c6.3-6.7,12.7-13.3,19-20v-1h1c6,9.7,16.9,18.3,26,25c4.1,3.1,7.8,8,12,11
			c9.9,6.9,20.8,12.8,31,19c8.9,5.4,19,6.8,29,11c7.7,3.2,17.2,7.1,27,8c0.6-5.5,2.4-21.4,5-25c-0.2-2.3-0.1-2.8-1-4
			C610.9,195.7,596.9,194.9,590,192z M497,212c-3.7-2.7-6-7.5-11-9c-4.5,6.9-14.1,11.3-21,16c-16.9,11.4-34.9,22.6-55,31
			c-9.7,4.1-21.3,6.9-31,10c-3.8,1.2-6.4,0.1-9,2h-2c0.4,6.5,3,26.9,6,31c1.7,1.1,26.5-5.3,31-7c20.6-7.7,40.7-16.2,58-27
			c7.3-4.5,16.9-7.4,22-14c9.4,1.5,17.7,10.4,25,15c13.3,8.3,29.3,14.8,44,21c14.7,4.3,29.3,8.7,44,13c5.6-2.9,3.3-20.4,7-26v-6
			c-29.7-6.5-59.4-17.8-82-32C514.3,224.5,505.4,218.2,497,212z M514,303c-8.1-4.3-19.3-12.6-28-15c-6.1,6.4-21.9,12-31,16
			c-7.1,3.1-15.6,7.9-23,11c-11.6,4.9-23.4,6-36,10c-4.4,1.4-9.6,3.5-15,4v1h-1c2.2,10.4,5.8,21.6,6,33c10.3-1.4,21-5,30-8
			c15.2-5.2,29-7.9,43-14c8.7-3.8,17.4-10.5,27-13c0.2-0.2,18.4,7.2,22,9c14.7,7.5,32.4,13.5,49,19c8.2,2.8,21.8,2.5,28,7h2
			c2.3-10.9,6-22.4,6-34c-8.4-0.7-16.2-3.7-23-6C549.8,316.2,531.4,312.2,514,303z M512,379c-4.3-1.8-22.6-12-27-11
			c-5.6,1.3-15.3,7.6-21,10c-11.8,5-23.3,6.7-36,11c-10.3,3.4-22.4,8.2-35,9c8,44,16,88,24,132h95c13.2,0,32.9,2.8,44-1
			c5.7-26.1,9-55.1,16-81c4.5-16.7,3.8-33.5,9-49c-6.9-2.6-14.5-2.7-22-5C543.3,389,527.7,384,512,379z M264,407
			c-35.8,16.4-98.6,22.7-143,10c-9-2.6-27.2-4.1-32-10h-1c1.7,13.7,3.3,27.3,5,41c11,2.7,22,5.3,33,8c7.4,1.9,15.2,1.4,22,3h11
			c5.9,1.4,25.7,2.8,33,1c14.3-3.4,30-1.9,44-6c6.8-2,18.4-6.5,24-6c0-8.1,0.6-32.4,4-37V407z M746,437c-9.7-2.8-21.3-2.2-28-8h-2
			c1.3,14,2.7,28,4,42c10.5,0.7,21.4,4.4,31,7c10.9,2.9,23.3,1.5,34,4c7.6,1.8,27.8,0.5,34-1c10-2.4,18.6,0.4,28-2
			c12-2.7,24-5.3,36-8c0-7.1,1.7-35.7,4-39v-3C852,445,788.2,449,746,437z M284,677c-14.6-6.1-29.3-13.5-42-22
			c-3.9-2.6-7.3-7.3-11-10c-12.5-9.2-24.9-20.5-34-33c-5-6.9-10.3-19.5-16-25v-1h-1c-3.1,12.1-15.3,23-22,32
			c-17.2,23.2-43.2,42.8-71,55c-12,4-24,8-36,12c-1.7,2.6,3.9,22.3,4,29c12.2-0.9,23.5-6,33-10c10.9-4.6,21.4-7.1,31-13
			c14.8-9.1,28.3-19.8,42-30c6.3-6.7,12.7-13.3,19-20v-1h1c6,9.7,16.9,18.3,26,25c4.1,3.1,7.8,8,12,11c9.9,6.9,20.8,12.8,31,19
			c8.9,5.4,19,6.8,29,11c7.7,3.2,17.2,7.1,27,8c0.6-5.5,2.4-21.4,5-25c-0.2-2.3-0.1-2.8-1-4C304.9,680.7,290.9,679.9,284,677z"/>
	</g>
</g>
</svg>
