<?xml version="1.0" encoding="utf-8"?>
<!-- Generator: Adobe Illustrator 19.0.0, SVG Export Plug-In . SVG Version: 6.00 Build 0)  -->
<svg version="1.1" id="Layer_1" xmlns="http://www.w3.org/2000/svg" xmlns:xlink="http://www.w3.org/1999/xlink" x="0px" y="0px"
	 viewBox="0 0 1024 1024" style="enable-background:new 0 0 1024 1024;" xml:space="preserve">
<style type="text/css">
	.st0{fill:#020202;}
</style>
<g>
	<g>
		<path class="st0" d="M220.6,173.8c-0.1-1.5-0.2-3.1-0.3-4.6c-1-2.9-1.3-6.1-2.4-8.9c-4.6-12-13.1-19.9-24.3-25.5
			c-0.7-0.4-1.3-0.3-2.1-0.6c-2.4-1-5.3-1.6-8.1-2.4c-1.1-0.3-2.3-0.2-3.4-0.4c-0.7-0.2-1.6,0.2-2.1-0.1
			c-18.1-0.4-31.4,8.6-38.5,19.2c-0.8,1.2-1.7,2.7-2.7,3.8c-0.2,0.3-0.1,0.7-0.3,1c-0.7,1.3-1.3,2.6-1.9,4.1c-0.3,0.7-1.3,2.4-1,3.1
			c-0.7,1.3-0.7,2.8-1.2,4.4c-2,6.8-0.9,16.4,1.2,22.2c0.5,1.4,0.5,2.7,1.2,4c6.2,12.2,13.5,19.9,26.8,25c2.7,1.1,5.8,1.3,8.9,2.1
			c1,0.3,2.2,0.1,3.1,0.3c1.4,0.3,5.6,0,6.7-0.3c0.5,0,1.1,0,1.6,0c0.6-0.1,1.7-0.4,2.2-0.6c0.4,0,0.8,0,1.2,0c3.5-1,7-2,9.9-3.6
			c0.8-0.4,1.5-0.5,2.2-0.9s1.4-1.1,2.1-1.5c0.1,0,0.3,0,0.4,0l0.4-0.3c0-0.1,0-0.2,0-0.3c0.4-0.3,0.9-0.3,1.3-0.6
			c1.2-0.9,2.3-2,3.4-3c0.2-0.2,0.8-0.4,1-0.6c0-0.1,0-0.2,0-0.3c0.1,0,0.2,0,0.3,0c0-0.1,0-0.2,0-0.3c0.1,0,0.2,0,0.3,0
			c0-0.1,0-0.2,0-0.3c0.1,0,0.2,0,0.3,0c0.5-0.4,0.8-1,1.2-1.5c0.1,0,0.2,0,0.3,0c0-0.1,0-0.2,0-0.3c0.1,0,0.2,0,0.3,0
			c0.2-0.2,0.1-0.4,0.3-0.6c0.1,0,0.2,0,0.3,0c3.9-4.2,6.9-9.8,9.2-15.7c0.5-1.3,0.5-2.5,0.9-4C220.1,183.6,221.4,177.2,220.6,173.8
			z M215.3,186.6c-0.7,2-1,3.8-1.8,5.6c-4,9.1-10.9,15.9-19.5,20.4c-0.8,0.4-1.6,0.5-2.5,0.9c-2.8,1.2-5.5,1.8-8.7,2.7
			c-1.4,0.4-2.6-0.1-4.1,0.3c-1.2,0.3-3.8,0.3-5,0c-0.7,0-1.4,0-2.1,0c-3.1-0.8-6.2-1-9-2.1c-10.9-4.2-19.2-11.7-23.8-22.2
			c-1.2-2.7-1.8-5.8-2.7-8.9c-0.1-1-0.2-2-0.3-3c-1.1-4.8,0.2-12.6,1.5-16.1c0.6-1.7,0.8-3.1,1.5-4.6c5-11.3,14.2-19.2,26.6-23.1
			c3.9-1.2,8.3-1.3,13.3-1.3c0.5,0.3,1.4,0,2.1,0.1c1.1,0.3,2.5,0.2,3.7,0.6c2.9,0.8,5.7,1.5,8.3,2.7c10.3,4.5,17.4,12.7,21.8,23.2
			c1.1,2.5,1.4,5.5,2.1,8.3c0,0.9,0.1,1.9,0.1,2.8C217.5,176.9,216.2,183.8,215.3,186.6z M210.4,161.9c-3.3-7.5-8.4-13.7-15.4-17.6
			c-4.8-2.7-9.8-5-17-5.3c0,6.8,0,13.5,0,20.3c0,2.4-0.5,6.1,1.3,6.7c1.2,1.1,5-0.1,7,0.4c0.9,0.2,2.2,0.9,2.7,1.6
			c0.5,0.7,0.9,1.6,1.2,2.5c0.2,0.8,0.1,1.6,0,2.2c0,0.4,0,0.8,0,1.2c-0.5,1.6-1.6,3.2-3.1,3.8c-1.4,0.6-3.9,0.3-5.8,0.3
			c-2.9,0-5.8,0-8.7,0c-2,0-4.3-0.1-5.8,0.3c-0.4,0.7-0.6,1-0.6,2.2c0.4,0.4,0.3,0.7,0.9,0.9c0.4,0.3,1.7,0.1,2.4,0.1
			c1.9,0,4.2-0.2,5.6,0.3c4.2,1.6,3.1,8.7,3.1,14.4c1.9,0,4.2-0.1,5.8-0.4c0.5,0,1.1,0,1.6,0c2.4-0.4,4.7-0.8,7.1-1.2
			c2-0.6,4.3-1,6.4-1.8c2.4-0.9,4.8-2.1,7-3.3c0.1,0,0.3,0,0.4,0c0.2-0.1,0.4-0.5,0.6-0.6c0.1,0,0.3,0,0.4,0
			c0.9-0.5,1.8-1.5,2.7-2.1c0.2-0.2,0.5-0.1,0.7-0.3c0-0.1,0-0.2,0-0.3c0.3-0.3,0.8-0.4,1-0.7c0-0.4,0.1-0.8,0.1-1.2
			c0.2-0.5,0.4-1.5,0.6-2.1c0-0.3,0-0.7,0-1c1.2-5.1,0.2-12-1.2-16C211,164.1,210.9,163.1,210.4,161.9z M208,178.1
			c-4.1,0-8.3,0-12.4,0c-1.7-0.6-2.7-1.6-3.4-3.3c-0.4-0.8-1-2.4-0.6-3.8c0.3-1,0.9-1.8,1-3c-1.4-1.2-1.2-4.5-0.4-6.2
			c0.6-1.3,1.3-2.4,2.5-3c1-0.5,2.9-0.3,4.3-0.3c3,0,6,0,9,0c0,1.3,0,2.7,0,4c-3.7,0-7.5,0.1-11.1,0.1c-1.2,1.6-1.2,2,0.1,3.4
			c3.6,0,7.3,0,11,0c0,1.4,0,2.9,0,4.3c-0.8,0.3-2.1,0.1-3.1,0.1c-2.2,0-4.3,0-6.5,0c-0.5-0.4-1.9,0-2.1,0.7
			c-0.3,0.3-0.3,0.8-0.3,1.5c0.3,0.3,0.5,1,0.9,1.2c3.6,0,7.3,0,11,0C208.2,174.9,208,176.8,208,178.1z M167.2,185.8
			c-0.5,0-1.1,0-1.6,0c-0.9-0.3-2.1-1.1-2.7-1.8c-2.3-2.8-0.9-8.1,1.6-9.5c1.2-0.7,3.5-0.4,5.3-0.4c3.5,0,6.9,0,10.4,0
			c1.7,0,3.8,0.2,5-0.3c0.4-0.7,0.6-1,0.6-2.2c-0.4-0.4-0.3-0.7-0.9-0.9c-0.4-0.3-1.5-0.1-2.2-0.1c-1.8,0-3.6-0.1-5.3-0.1
			c-4.8-1.4-3.6-8.6-3.6-14.6c-1.8,0-4.1,0.1-5.6,0.4c-0.5,0-1.1,0-1.6,0c-2.4,0.4-4.7,0.8-7.1,1.2c-3.1,0.9-6.3,1.8-9,3
			c-0.5,0.2-0.7,0.1-1.2,0.3c-1,0.5-2.1,1.2-3.1,1.8c-0.5,0.3-1,0.3-1.5,0.6c-1.1,0.7-2.1,1.6-3.1,2.4c-0.4,0.3-1.1,0.6-1.3,1
			c-0.6,1.1-0.4,2.9-0.7,4.3c-1.2,5.1-0.2,12,1.2,16c0.9,2.5,1.6,4.4,2.7,6.5c0.2,0.4,0.2,0.8,0.4,1.2c6,9.8,15.4,17.6,30.2,18.6
			c0-6.3,0-12.5,0-18.8c0-2.4,0.5-6.1-0.6-7.5C172.5,185.4,169.3,185.8,167.2,185.8z"/>
	</g>
</g>
<g>
	<g>
		<path class="st0" d="M811.2,57.5c0-0.3,0-0.6-0.1-0.9c-0.2-0.6-0.3-1.2-0.5-1.7c-0.9-2.3-2.6-3.9-4.7-5c-0.1-0.1-0.3-0.1-0.4-0.1
			c-0.5-0.2-1-0.3-1.6-0.5c-0.2-0.1-0.5,0-0.7-0.1c-0.1,0-0.3,0-0.4,0c-3.5-0.1-6.1,1.7-7.5,3.8c-0.2,0.2-0.3,0.5-0.5,0.8
			c0,0.1,0,0.1-0.1,0.2c-0.1,0.3-0.3,0.5-0.4,0.8c-0.1,0.1-0.2,0.5-0.2,0.6c-0.1,0.2-0.1,0.5-0.2,0.9c-0.4,1.3-0.2,3.2,0.2,4.3
			c0.1,0.3,0.1,0.5,0.2,0.8c1.2,2.4,2.6,3.9,5.2,4.9c0.5,0.2,1.1,0.3,1.7,0.4c0.2,0,0.4,0,0.6,0.1c0.3,0.1,1.1,0,1.3-0.1h0.3
			c0.1,0,0.3-0.1,0.4-0.1h0.2c0.7-0.2,1.4-0.4,1.9-0.7c0.1-0.1,0.3-0.1,0.4-0.2c0.1-0.1,0.3-0.2,0.4-0.3h0.1l0.1-0.1v-0.1
			c0.1-0.1,0.2-0.1,0.3-0.1c0.2-0.2,0.5-0.4,0.7-0.6l0.2-0.1v-0.1h0.1v-0.1h0.1v-0.1h0.1c0.1-0.1,0.1-0.2,0.2-0.3h0.1v-0.1h0.1
			c0,0,0-0.1,0.1-0.1h0.1c0.8-0.8,1.3-1.9,1.8-3.1c0.1-0.3,0.1-0.5,0.2-0.8C811.2,59.5,811.4,58.2,811.2,57.5z M810.2,60.1
			c-0.1,0.4-0.2,0.7-0.3,1.1c-0.8,1.8-2.1,3.1-3.8,4c-0.2,0.1-0.3,0.1-0.5,0.2c-0.5,0.2-1.1,0.4-1.7,0.5c-0.3,0.1-0.5,0-0.8,0.1
			c-0.2,0.1-0.7,0.1-1,0h-0.4c-0.6-0.2-1.2-0.2-1.8-0.4c-2.1-0.8-3.8-2.3-4.6-4.3c-0.2-0.5-0.4-1.1-0.5-1.7c0-0.2,0-0.4-0.1-0.6
			c-0.2-0.9,0-2.5,0.3-3.1c0.1-0.3,0.2-0.6,0.3-0.9c1-2.2,2.8-3.7,5.2-4.5c0.8-0.2,1.6-0.3,2.6-0.3c0.1,0.1,0.3,0,0.4,0
			c0.2,0.1,0.5,0,0.7,0.1c0.6,0.2,1.1,0.3,1.6,0.5c2,0.9,3.4,2.5,4.2,4.5c0.2,0.5,0.3,1.1,0.4,1.6c0,0.2,0,0.4,0,0.5
			C810.6,58.2,810.4,59.5,810.2,60.1z M809.3,55.2c-0.6-1.5-1.6-2.7-3-3.4c-0.9-0.5-1.9-1-3.3-1v4c0,0.5-0.1,1.2,0.3,1.3
			c0.2,0.2,1,0,1.4,0.1c0.2,0,0.4,0.2,0.5,0.3s0.2,0.3,0.2,0.5c0,0.1,0,0.3,0,0.4v0.2c-0.1,0.3-0.3,0.6-0.6,0.8
			c-0.3,0.1-0.8,0.1-1.1,0.1H802c-0.4,0-0.8,0-1.1,0.1c-0.1,0.1-0.1,0.2-0.1,0.4c0.1,0.1,0.1,0.1,0.2,0.2c0.1,0.1,0.3,0,0.5,0
			c0.4,0,0.8,0,1.1,0.1c0.8,0.3,0.6,1.7,0.6,2.8c0.4,0,0.8,0,1.1-0.1h0.3c0.5-0.1,0.9-0.2,1.4-0.2c0.4-0.1,0.8-0.2,1.2-0.3
			c0.5-0.2,0.9-0.4,1.4-0.6h0.1l0.1-0.1h0.1c0.2-0.1,0.4-0.3,0.5-0.4c0,0,0.1,0,0.1-0.1v-0.1c0.1-0.1,0.2-0.1,0.2-0.1
			c0-0.1,0-0.2,0-0.2c0-0.1,0.1-0.3,0.1-0.4v-0.2c0.2-1,0-2.3-0.2-3.1C809.4,55.7,809.4,55.5,809.3,55.2z M808.8,58.4h-2.4
			c-0.3-0.1-0.5-0.3-0.7-0.6c-0.1-0.2-0.2-0.5-0.1-0.8c0.1-0.2,0.2-0.4,0.2-0.6c-0.3-0.2-0.2-0.9-0.1-1.2c0.1-0.2,0.3-0.5,0.5-0.6
			s0.6-0.1,0.8-0.1h1.8v0.8c-0.7,0-1.5,0-2.2,0c-0.2,0.3-0.2,0.4,0,0.7h2.1v0.8c-0.1,0.1-0.4,0-0.6,0h-1.3c-0.1-0.1-0.4,0-0.4,0.1
			c-0.1,0.1-0.1,0.2-0.1,0.3c0.1,0.1,0.1,0.2,0.2,0.2h2.1C808.8,57.8,808.8,58.1,808.8,58.4z M800.8,59.9h-0.3
			c-0.2-0.1-0.4-0.2-0.5-0.3c-0.4-0.5-0.2-1.6,0.3-1.8c0.2-0.1,0.7-0.1,1-0.1h2c0.3,0,0.7,0,1-0.1c0.1-0.1,0.1-0.2,0.1-0.4
			c-0.1-0.1-0.1-0.1-0.2-0.2c-0.1-0.1-0.3,0-0.4,0c-0.3,0-0.7,0-1,0c-0.9-0.3-0.7-1.7-0.7-2.9c-0.4,0-0.8,0-1.1,0.1h-0.3
			c-0.5,0.1-0.9,0.2-1.4,0.2c-0.6,0.2-1.2,0.3-1.8,0.6c-0.1,0-0.1,0-0.2,0.1c-0.2,0.1-0.4,0.2-0.6,0.3c-0.1,0.1-0.2,0.1-0.3,0.1
			c-0.2,0.1-0.4,0.3-0.6,0.5c-0.1,0.1-0.2,0.1-0.3,0.2c-0.1,0.2-0.1,0.6-0.1,0.8c-0.2,1,0,2.3,0.2,3.1c0.2,0.5,0.3,0.9,0.5,1.3
			c0,0.1,0,0.2,0.1,0.2c1.2,1.9,3,3.4,5.9,3.6v-3.7c0-0.5,0.1-1.2-0.1-1.5C801.9,59.8,801.2,59.9,800.8,59.9z"/>
	</g>
</g>
<circle class="st0" cx="803" cy="188.3" r="45.2"/>
</svg>
