<?xml version="1.0" standalone="no"?>
<!DOCTYPE svg PUBLIC "-//W3C//DTD SVG 20010904//EN"
 "http://www.w3.org/TR/2001/REC-SVG-20010904/DTD/svg10.dtd">
<svg version="1.0" xmlns="http://www.w3.org/2000/svg"
 width="521.000000pt" height="521.000000pt" viewBox="0 0 521.000000 521.000000"
 preserveAspectRatio="xMidYMid meet">
<metadata>
Created by potrace 1.13, written by Peter Selinger 2001-2015
</metadata>
<g transform="translate(0.000000,521.000000) scale(0.100000,-0.100000)"
fill="#000000" stroke="none">
<path d="M5086 5198 c-4 -13 -27 -4226 -26 -4861 l0 -338 38 3 37 3 7 835 c13
1628 27 4353 22 4361 -8 14 -74 10 -78 -3z"/>
<path d="M84 4526 c-3 -8 -4 -31 -2 -52 l3 -39 758 -3 757 -2 0 55 0 55 -755
0 c-637 0 -756 -2 -761 -14z"/>
<path d="M2489 3285 c-3 -2 -295 -11 -649 -20 -355 -9 -673 -18 -707 -21 -57
-5 -63 -8 -63 -27 0 -41 -41 -171 -72 -230 -31 -58 -128 -157 -153 -157 -8 0
-17 -5 -20 -10 -4 -6 63 -166 147 -355 l153 -346 35 6 c19 3 178 12 353 21
264 12 380 13 669 4 193 -6 353 -9 355 -6 2 2 31 145 64 317 33 173 62 316 65
318 2 2 6 2 9 -1 3 -3 32 -144 63 -314 l57 -309 510 0 c452 -1 754 -11 876
-30 l36 -6 152 346 c84 191 150 353 147 361 -3 8 -12 14 -19 14 -27 0 -97 60
-132 112 -39 59 -81 175 -91 249 l-6 48 -52 5 c-28 3 -312 10 -631 16 -319 5
-625 11 -680 13 l-100 2 -3 -40 c-5 -81 -35 -241 -55 -295 -16 -45 -36 -81
-74 -139 -7 -10 -55 61 -74 109 -21 56 -53 208 -64 313 -5 45 -10 57 -24 57
-10 0 -20 -2 -22 -5z"/>
</g>
</svg>
