<?xml version="1.0" encoding="utf-8"?>
<!-- Generator: Adobe Illustrator 19.0.0, SVG Export Plug-In . SVG Version: 6.00 Build 0)  -->
<svg version="1.1" id="Layer_1" xmlns="http://www.w3.org/2000/svg" xmlns:xlink="http://www.w3.org/1999/xlink" x="0px" y="0px"
	 viewBox="0 0 1024 1024" style="enable-background:new 0 0 1024 1024;" xml:space="preserve">
<style type="text/css">
	.st0{fill-rule:evenodd;clip-rule:evenodd;fill:none;}
</style>
<path class="st0" d="M289,356c0.3,9,0.7,18,1,27c32.7,0.3,68-2.4,94-10c4.6-1.3,26.8-6.1,27-6c6.2,3.9,10.9,9.9,16,15
	c4.1,4.1,8.2,7.5,13,11c5.7,6,11.3,12,17,18c7.7,6.8,17.4,13.2,23,22c-4.3,0-8.7,0-13,0c-4.7-3.3-20.1-1-27-1c-23-0.3-46-0.7-69-1
	c-8.5-2-25.5-2-34,0c-7,0-14,0-21,0c-2.6,0.6-10,2.5-13,2c-9.4-1.5-38.7-0.5-49,2c-44.7,2-89.3,4-134,6c-1-1.9-2.5-4.5-4-6
	c1.4-6.3,6-10.3,9-15c7.6-12.1,14.3-24.4,22-36c3.2-4.9,4.1-12.8,11-14c5.4,4.1,14.5,2.9,22,5c23.9,6.7,55.7,7.8,85,8c0-9,0-18,0-27
	c-23.7,0.4-51.3-0.8-71-6c-7.8-2-18.8-0.8-24-5c7.9-8,11.9-20.3,18-30c13.7-21.7,28.3-44.2,42-66c4.1-6.5,16.7-32.6,22-35
	c4.9,7.7,13.7,14.5,21,20c6.3,6.7,12.7,13.3,19,20c0.7,0,1.3,0,2,0c7,7.3,14,14.7,21,22c14.4,10.7,26.3,24.5,39,37
	c6.7,6.6,30.5,24.3,33,32c-0.7,0-1.3,0-2,0c-5.6,4-17.1,3-25,5C339.5,355.2,313.4,355.9,289,356z"/>
<path class="st0" d="M762,931c0,9,0,18,0,27c19.1,0.3,42.4,0,59-4c7-0.7,14-1.3,21-2c10-2.3,20-4.7,30-7c9.1,16.3,19.5,31.7,29,48
	c2.4,4,11,12.7,9,17c-1.4,6.3-5.1,6.4-13,6c-4.6-3.2-14.7,0.5-21-1c-12-2.8-30.4-1.9-43-3c-6.3,0-12.7,0-19,0c-12-2.8-30.4-1.9-43-3
	c-6.3,0-12.7,0-19,0c-7.5-1.8-19.8-2-28-2c-4.3,0-8.7,0-13,0c-11.1-2.6-43.5-3.7-55-1c-14,0-28,0-42,0c-22.3,0.7-44.7,1.3-67,2
	c0-0.3,0-0.7,0-1c0.3,0,0.7,0,1,0c4.7-7.4,13-13.8,20-19c3.7-4,7.3-8,11-12c8.2-8.2,16.8-15.9,25-24c3.9-3.9,9-6.2,12-11
	c33.4,12.9,76.3,15.6,121,17c0.3-9,0.7-18,1-27c-35.9,0.5-68.9-4.9-98-11c0-0.7,0-1.3,0-2c11-7,17.8-19.4,28-27c0.7,0,1.3,0,2,0
	c6.7-7,13.3-14,20-21c0.7,0,1.3,0,2,0c6-6.3,12-12.7,18-19c0.7,0,1.3,0,2,0c7-7.3,14-14.7,21-22c1.8-1.4,3.5-1.5,5-3
	c8.5-8.4,17.5-16.5,26-25c3.9-3.9,7.2-10.1,13-12c1.3,5.6,5.4,8.9,8,13c1.9,3.1,2.1,5.9,4,9c2.9,4.6,7.1,9.4,10,14
	c12.7,20.2,23.2,40.8,36,61c7.2,11.4,15.9,22.5,22,35c-9.6,0.5-20.2,3.8-29,6c-3,0-6,0-9,0C802.8,931,780.7,930.8,762,931z"/>
</svg>
