<?xml version="1.0" encoding="utf-8"?>
<!-- Generator: Adobe Illustrator 19.0.0, SVG Export Plug-In . SVG Version: 6.00 Build 0)  -->
<svg version="1.1" id="Layer_1" xmlns="http://www.w3.org/2000/svg" xmlns:xlink="http://www.w3.org/1999/xlink" x="0px" y="0px"
	 viewBox="0 0 1024 1024" style="enable-background:new 0 0 1024 1024;" xml:space="preserve">
<style type="text/css">
	.st0{fill-rule:evenodd;clip-rule:evenodd;fill:none;}
</style>
<path class="st0" d="M584,114c0.4,9.4,1.9,20.5,4,29c2.2,8.9,1,18.9,3,27c0.3,6,0.7,12,1,18c2.9,11.4,3.7,22.8,8,33
	c4.9,11.8,10.3,25.3,17,36c3.3,5.3,9.1,8.3,10,16c-5.6,7.7-5.7,26.7-9,37c-9.2,29-13.9,61.1-23,90c-2.5,7.8-4,29-8,34
	c-3.7,2.7-27.2,1.1-34,1c-4.7-3.3-20.1-1-27-1c-23-0.3-46-0.7-69-1c-8.9-2.1-22.4-1-33-1c-13-0.3-26-0.7-39-1c-8,0-16,0-24,0
	c-9.6-2.3-31.3-1.3-41,1c-4.3,0-8.7,0-13,0c-8.2,0-20.5,0.2-28,2c-53.3,2.3-106.7,4.7-160,7c-1.4-6.1-6.1-10.4-9-15
	c-1.9-3.1-2.1-5.9-4-9c-3.9-6.2-9.1-12.9-13-19c-18.8-29.6-34.4-60.3-53-90c-4.3-6.8-9.7-14.2-14-21c-1.9-3.1-2.1-5.9-4-9
	c-2.4-3.9-6-6.5-7-12c15.6-1.8,23.1-9,33-16c7.6-5.4,17.6-10.5,23-18c8-11.2,15.2-33.7,20-48c4.8-14.2,6.8-29,11-43
	c1.7-5.7-0.2-14.8,5-17c2.2-0.9,11.7,1.2,17,0c8.6-2,21.7-1,32-1c36-0.7,72-1.3,108-2c18.5-1.7,42.2-2,61-2c11.5,0,26.3,1.3,36-1
	c16,0,32,0,48,0c13.3-3.2,33,2.3,47-1c13.3-3.2,33,2.3,47-1c9.2-2.2,23.1-1,34-1C552.7,114.7,568.3,114.3,584,114z"/>
<path class="st0" d="M76,545c177.3,0,354.7,0,532,0c0,14.3,0,28.7,0,43c-177.3,0-354.7,0-532,0C76,573.7,76,559.3,76,545z"/>
<path class="st0" d="M443,689c17.7,0.3,35.3,0.7,53,1c11.7,0,27-1.5,37,1c5,0,10,0,15,0c11.3,0,24.3,0.1,34,1
	c21.3,0.3,42.7,0.7,64,1c9.3,0,21.4-0.9,29,1c7.7,0,15.3,0,23,0c12.7,0.3,25.3,0.7,38,1c9.9,0,22.8-1,31,1c15.7,0,31.3,0,47,0
	c10,2.4,25.2,1,37,1c23.7,0.7,47.3,1.3,71,2c2.8,8.3,2.4,17.1,5,26c8,27.3,15.1,62.3,30,83c1.7,2.4,4.6,3.2,7,5c1.3,1.7,2.7,3.3,4,5
	c8.4,6.2,17.2,12.6,26,18c4.8,2.9,16.3,2,18,8c-2.6,2.1-2.2,4.1-4,7c-0.8,1.2-3.2,2.8-4,4c-6.1,9.6-10,19.4-16,29
	c-17.9,28.6-36,58.3-54,87c-7,11.1-13,22.4-20,33c-0.8,1.3-5.7,11.8-6,12c-5.3,0-10.7,0-16,0c-4.7-3.3-31.5-0.7-40-2
	c-19.3-3-44.2,0.4-63-4c-6.7,0-13.3,0-20,0c-19.6-4.6-45.5,0.6-65-4c-7,0-14,0-21,0c-5.4-1.3-10.9-0.1-17,0c-17.7,0.3-35.3,0.7-53,1
	c-57.7,1-115.3,2-173,3c0-0.3,0-0.7,0-1c-0.3,0-0.7,0-1,0c-0.6-13.6-6.5-27.9-10-40c-0.7-4.3-1.3-8.7-2-13c-5.3-16.7-9.1-36.2-14-53
	c-1-5.7-2-11.3-3-17c-2.8-8.9-3.9-19.1-7-29c-1.1-3.5-4.4-9.3-2-13c1.8-6.3,8-10.6,11-16c8.8-16,15.7-34.1,21-53
	c0.3-4.7,0.7-9.3,1-14c4.2-16.7,2.9-37.3,7-54C442.6,700.5,441.1,694.3,443,689z"/>
</svg>
