<?xml version="1.0" standalone="no"?>
<!DOCTYPE svg PUBLIC "-//W3C//DTD SVG 20010904//EN"
 "http://www.w3.org/TR/2001/REC-SVG-20010904/DTD/svg10.dtd">
<svg version="1.0" xmlns="http://www.w3.org/2000/svg"
 width="521.000000pt" height="521.000000pt" viewBox="0 0 521.000000 521.000000"
 preserveAspectRatio="xMidYMid meet">
<metadata>
Created by potrace 1.13, written by Peter Selinger 2001-2015
</metadata>
<g transform="translate(0.000000,521.000000) scale(0.100000,-0.100000)"
fill="#000000" stroke="none">
<path d="M1802 2547 c-94 -95 -172 -177 -172 -184 0 -19 31 -25 143 -31 106
-5 107 -5 107 -30 l0 -25 -87 6 c-49 3 -121 13 -162 22 l-73 17 -79 -78 c-44
-43 -79 -85 -79 -92 0 -12 75 -13 468 -7 257 4 469 9 471 12 6 4 -45 102 -70
135 -15 20 -20 20 -75 10 -33 -6 -96 -15 -141 -18 l-83 -7 0 25 c0 25 1 25
108 31 108 5 142 12 142 28 0 22 -216 359 -230 359 -8 0 -93 -78 -188 -173z"/>
<path d="M3097 2545 c-59 -97 -107 -179 -107 -184 0 -16 34 -23 143 -28 106
-6 107 -6 107 -31 l0 -25 -82 7 c-46 3 -109 12 -142 18 -55 10 -60 10 -75 -10
-25 -33 -76 -131 -70 -135 2 -3 214 -8 472 -12 392 -6 467 -5 467 7 0 7 -35
49 -79 92 l-79 78 -73 -17 c-41 -9 -113 -19 -161 -22 l-88 -6 0 25 c0 25 1 25
108 30 112 6 142 12 142 32 0 17 -343 356 -360 356 -9 0 -60 -72 -123 -175z"/>
</g>
</svg>
