<?xml version="1.0" encoding="utf-8"?>
<!-- Generator: Adobe Illustrator 19.0.0, SVG Export Plug-In . SVG Version: 6.00 Build 0)  -->
<svg version="1.1" id="Layer_1" xmlns="http://www.w3.org/2000/svg" xmlns:xlink="http://www.w3.org/1999/xlink" x="0px" y="0px"
	 viewBox="0 0 1024 1024" style="enable-background:new 0 0 1024 1024;" xml:space="preserve">
<style type="text/css">
	.st0{fill-rule:evenodd;clip-rule:evenodd;fill:#020202;}
</style>
<path class="st0" d="M877,553c-50.7,0-101.3,0-152,0c-0.3-13.3-0.7-26.7-1-40c0-19.9,1.3-40.4-3-58c-1.6-6.6-0.6-14.2-2-20
	c0-4.3,0-8.7,0-13c-2.3-9.2-1.2-20.3-4-30c-5.9-20.8-11.3-44-18-64c-3-9-3.4-17.4-7-26c-5.5-13.2-13.4-26.3-19-39
	c-3.5-7.9-6.7-14.8-10-22c0-1,0-2,0-3c-3.6-6.7-12.5-14.7-15-22c0-2.3,0-4.7,0-7c-2.7-10.3-3.1-14.9-10-21
	c10.1-29.5,18.6-61.4,34-86c6.1-9.8,14.5-18.8,21-28c4.5-6.3,7.4-12.7,12-19c4-5.5,11.9-9.4,17-14c5-4.5,9.1-10.4,14-15
	c4.8-4.5,13.2-7.3,19-11c4.4-2.8,6.9-7.9,13-9c1.7,2.7,4.7,5,8,6c4.2,1.3,42.7,3,51,1c4-1,16.5-4.2,17-4c18.4,4.7,28.5,22,42,32
	c21.1,15.7,29.9,32.6,44,55c5.8,9.2,13.4,18.5,18,29c3,6.9,4,13,7,20c6.3,14.8,15.8,28.9,16,49c-11.6,7.2-5.2,12.3-10,24
	c-3.9,9.5-10.5,20.2-16,29c-2.5,4.1-6.7,8.8-9,13c-2.9,5.3-3.9,9.9-7,15c-1.6,2.6-4.8,6-6,9c-0.7,3.3-1.3,6.7-2,10
	c-1.4,3.1-4.6,6.9-6,10c-4.3,9.7-7.7,21.3-11,31c-2.8,8.2-1.5,15.1-4,24c-3.1,11.3-6.1,23.6-9,35c-0.3,6.7-0.7,13.3-1,20
	C878.2,453.5,877.2,505.5,877,553z"/>
<path class="st0" d="M252,538c-51,0-102,0-153,0c0.1-13.7,0.3-34.3-3-48c0-5.7,0-11.3,0-17c-3.6-14.7-2.5-32.2-6-46
	c-3.9-15.5,0.6-28.6-4-44c-5.7-19.1-11.7-41.6-18-60c-4.5-13.3-4.4-27.5-10-40c-0.7-1.6-3.2-3.4-4-5c-9.4-20.5-17.8-38.6-28-58
	c-4-7.7-12.3-13.7-13-24c1.5-1.9,1.7-6.9,1-8c-1.5-4.7-4.4-4-5-10c-2.8-3.9,0.9-9,2-12c3.5-9.2,6.4-17,10-25c1.7-3.8,1.3-6.2,3-10
	c2.3-5.2,6.7-10.8,9-16c1.2-2.8,0.5-4.6,2-7c11.2-18.3,24.3-35.7,37-53c4.7-6.4,13-10.7,19-16c8.4-7.5,17.3-13.7,27-20
	c2.4-1.6,6.4-5.6,9-4c1.7,5.3,3.3,10.7,5,16c0,2.3,0,4.7,0,7c0.7,2.1,15.4,22.9,17,24c3.6,2.4,11.1,4.9,15,6c4,0,8,0,12,0
	c24.3,0,28.9-10.2,38-25c1.5-2.4,4.8-5.3,6-8c2.8-6.5,2.6-15,5-21c1.9,0.6,0.9,0.1,2,1c11,2.8,20.6,11.8,29,18c2.7,3,5.3,6,8,9
	c17.2,12.8,30.5,29.6,42,48c2.3,3.7,2.7,7.3,5,11c4.4,7,10.6,14.2,14,22c2.8,6.4,3.2,12.5,6,19c5,11.7,12.2,23.8,14,38
	c-3.8,2.4-5.8,6.1-9,9c0.4,5.7,2.5,6.3,3,12c-3.7,3.6-5,8.5-8,13c-4.7,7-9.1,14.7-14,22c-1.2,1.9-4,3.9-5,6
	c-4.8,10.3-6.5,20.6-11,31c-6.1,14.2-14,29.4-19,44c-5.8,17-5,36.3-10,54c-4.4,15.8-7.5,34.3-11,51c0.3,1.7,0.7,3.3,1,5
	c-1.7,12.3-2.1,28.1-5,40c-2.4,10.1,0.5,22.1-1,30C253.6,509.6,252.1,524.5,252,538z"/>
<path class="st0" d="M355,193c12.4-1.7,25-15.7,34-22c8.5-5.9,16.7-10.9,25-17c4.7-3.5,8.3-9.5,13-13c2.8-2.1,6-3.3,8-6
	c13-17.5,24.2-35,36-54c3.7-5.9,8.8-11.4,12-18c1.9,0.6,0.9,0.1,2,1c3,3,3.7,7.3,6,11c7.1,11.5,13.2,24.8,21,36
	c5.3,7.6,12.5,13.5,19,20c13.9,13.9,27.7,27.3,45,38c6,3.7,12,5.3,18,9c3,1.8,5.9,5.3,9,7c1.9,1.1,12.2,4.9,13,6c0,2.7,0,5.3,0,8
	c-5.3,5.5-7.8,13.3-12,20c-6.2,9.9-13.8,20.2-20,30c-2,3.2-7.5,16.7-10,18c-10.7,0-21.3,0-32,0c-4.4-3.1-32.1-1-40-1
	c-34.3-0.3-68.7-0.7-103-1c-4.6-8.4-11-16.1-16-24c-5.5-8.7-9.5-17.2-15-26C363.9,208.5,356,202.3,355,193z"/>
<path class="st0" d="M174,551c15,7.4,24.4,29.5,34,43c9.1,12.8,22.4,25.6,35,35c4.3,4.7,8.7,9.3,13,14c0.7,0,1.3,0,2,0
	c2.4,1.8,4.3,4,7,6c1.7,2,3.3,4,5,6c9.6,7,21,12.8,31,19c3.8,2.3,8.1,1.8,10,6c-1.6,1.9-3.4,10.2-6,14c-8.6,12.9-18.7,26-27,39
	c-2.7,4.3-8,17.1-12,19c-33.3,0-66.7,0-100,0c-3.7,2.6-15.3,1-21,1c-18,0-36,0-54,0c-1.8-6.3-6.9-11-10-16c-7.1-11.2-12-22.7-19-34
	c-4.9-7.8-11.6-14.8-14-25c12.6-5.1,26-9,37-16c1.7-1.1,3.4-3.9,5-5c8.5-5.9,16.7-10.9,25-17c1.3-1.7,2.7-3.3,4-5
	c5.6-4.1,12.9-8.5,17-14C151.1,600.4,162.8,575.2,174,551z"/>
<path class="st0" d="M626,990c-59.4,0-117,1-179,1c-0.5-19.1,1.1-38.1,5-54c0-2.7,0-5.3,0-8c2.1-8.4,2.9-19.8,5-28c0-2.3,0-4.7,0-7
	c2.8-10.8,4.1-24.4,7-35c0-2,0-4,0-6c3-10.6,4.2-23.8,8-35c11.1-33,20.7-68.6,37-97c2.6-4.6,2.8-9.1,5-14c4.6-10.5,10.8-21.7,16-32
	c2.7-5.4,2.2-12.7,9-14c2.6,4.7,7.6,7.6,10,12c3.7,6.9,4.8,14.8,8,22c5.6,12.7,12.6,26.2,18,39c2.3,5.5,2,10.1,4,16
	c4.2,12.3,8.8,26.6,13,39c1.3,6.3,2.7,12.7,4,19c7.5,21.8,12.8,45.1,19,69c0,2.7,0,5.3,0,8c3.3,12.9,2.7,29.8,6,43c0,3.3,0,6.7,0,10
	C624.4,951.7,625.9,974.5,626,990z"/>
<path class="st0" d="M959,991c-59.7-0.3-119.3-0.7-179-1c-0.3-14.3,1.9-37.3,5-50c0-3.3,0-6.7,0-10c3.4-13.7,2.7-30.6,6-44
	c0-2.7,0-5.3,0-8c6.8-26.3,13.3-51.8,21-76c0.3-3,0.7-6,1-9c7.9-23.5,14.4-51.1,25-72c1.3-4,2.7-8,4-12c3.5-7.9,8.6-17,12-25
	c3.6-8.3,6.8-21,16-23c2.1,9.6,9.2,18.5,13,27c9.4,21.3,18.9,41.9,28,63c9.3,21.7,15.4,45.3,23,68c3.8,11.3,4.9,24.3,8,35
	c3.8,13.1,3.8,28.3,7,41c0,2.3,0,4.7,0,7c2.1,8.2,2.9,19.6,5,28c0,2.7,0,5.3,0,8C957.9,953.8,958.7,972.2,959,991z"/>
</svg>
