<?xml version="1.0" encoding="utf-8"?>
<!-- Generator: Adobe Illustrator 19.0.0, SVG Export Plug-In . SVG Version: 6.00 Build 0)  -->
<svg version="1.1" id="Layer_1" xmlns="http://www.w3.org/2000/svg" xmlns:xlink="http://www.w3.org/1999/xlink" x="0px" y="0px"
	 viewBox="0 0 1024 1024" style="enable-background:new 0 0 1024 1024;" xml:space="preserve">
<style type="text/css">
	.st0{fill-rule:evenodd;clip-rule:evenodd;fill:#070808;}
</style>
<g>
	<g>
		<path class="st0" d="M951,180c-3.5-4.9-1.3-14.5-3-21c-2.7-10-5-20.7-9-30c-19.2-44.2-67.5-89.8-130-90c0.1-7.5,1.1-18.2-1-24h-13
			c0.1,5.9,1.8,19.1-1,23c-3.8,2.7-9.6,0.7-15,2c-11.1,2.8-22.8,4.7-33,9c-45.3,19.2-91.5,67.6-92,131h-1v1c-5.4,0.1-16.6,1.5-20-1
			h-1c1.9,5.6,5.8,5.7,6,14h1v1h15c0.1,44.9,30,91,56,110c8.9,6.5,17.8,10.7,28,16c14.8,7.8,33.8,14.9,56,15v1h1
			c0.1,10,1.9,24.8-1,33c-29.6-1.4-53.7-9.3-74-20c-6.7-3.5-15.6-6.2-20-12c-2.8,1.7-0.5,10.5,1,15c3.6,11.2,9.3,26.8,10,37
			c27.3,11.4,77.7,26.3,112,18c7-0.7,14-1.3,21-2c11-3,22-6,33-9c4.6-1.9,9.2-5.3,15-6c0.6-11.4,4.7-19,7-27c2-6.7,0.4-15.9,4-21v-3
			c-9,2.9-16.5,10.2-25,14c-19,8.4-42.8,16.1-69,16v-34c22.4,0,39.6-7.2,55-14c42.4-18.7,85.7-67,86-127h16c3.9-2.1-0.1-7.4,7-9
			c0.3-1.7,0.7-3.3,1-5C968.1,181.1,954.9,182.8,951,180z M795,298c-46.4-1.3-79.3-33.3-94-67c-4.4-10-8.9-21.4-9-36
			c6.3-0.1,20.8-2,25,1c3.4,4.8,3.4,18,6,24c10.4,24.5,37.4,51,71,52v1h1V298z M794,102c-5.2,3.8-19.5,4.2-26,7
			c-23.4,10.1-49.8,38.1-50,71h-1v1c-7.8,0.1-18.9,1.2-25-1c0.3-45.5,34.8-80.9,67-95c5.9-2.6,13-4.3,19-6c4.1-1.2,9,0.1,12-2
			c2.6,0.2,3.4,0.4,5,1C795.1,84.1,796.9,98,794,102z M898,241c-17.3,28.1-45.5,55.8-89,57v-26c38.5-0.4,76.6-37.8,77-76h1v-1h25
			C911.9,213.8,905.3,229.2,898,241z M887,181v-1c-2.1-3-0.8-7.9-2-12c-1.4-4.7-2.9-10.2-5-15c-10.3-23.6-38-49.5-71-50V77
			c45.3,1.3,76.1,31.6,92,63c5.6,11.1,11,24.2,11,41H887z M343,173v-1c-6.1,0.1-20,1.9-24-1c-3.5-4.9-1.2-14.6-3-21
			c-4.3-15.5-9.3-31.5-17-44c-11.9-19.3-28.9-36.9-48-49c-6.9-4.4-19.1-6.9-25-12c-6,2.1-13.8,15.3-22,19c-29.5,13.5-65.3,1.6-77-19
			c-16,3.4-27.7,13.7-39,22c-26.9,19.7-55,58.2-55,104h-1v1H8c-0.1,4.4,0,7.7,2,10c0.7,1,1.3,2,2,3c5.4-0.1,16.6-1.5,20,1
			c3.4,4.7,1.3,13.6,3,20c2.6,9.8,5.1,20,9,29c18.2,41.7,64.6,85.1,124,85v1h1c0.1,9.8,1.8,24.1-1,32c-37.1-2.7-64.4-13.3-88-29
			c-4.3-2.9-8.6-4.4-12-8h-1c1,11.8,6.5,23.5,10,34c1.9,5.7,0.9,11.8,4,16c1.9,8.1,27,13,36,16c51,17.1,117.8,6.8,156-15
			c0.5-12.3,4-25.4,7-36c1.4-5,0.4-9.5,3-13v-1c-7.5,2.5-14.4,9.9-21,14c-17.4,10.7-52.6,22.1-80,22c-0.1-6.5-1.6-28.4,1-32
			c4-2.8,11.7-0.6,17-2c9.6-2.5,20-4.2,29-8c42.9-18.1,88.6-65.1,89-125h1v-1h21c1.6-0.7,3.3-3.9,5-5c-0.3-2.3-0.7-4.7-1-7H343z
			 M168,284c-30.2-0.4-64.2-22.3-77-40c-4.6-6.4-7.2-12.7-11-20c-4.5-8.5-13.2-27.2-10-39c7.5-0.1,18.2-1.1,24,1
			c2.1,11.3,4.3,22,9,31c10,19.2,36.3,41.7,65,42v1h1C169.1,267.5,170.1,278.2,168,284z M168,97c-2,1.4-4.9,0.2-8,1
			c-7,2.3-14,4.7-21,7c-23.4,12.1-41.7,34.9-45,67c-6.1,0.1-20,1.9-24-1c-3.9-7.1,7.2-32.7,10-38c1.8-3.4,2-6.8,4-10
			c14.6-23.4,47.2-50.3,85-50C169.1,79.1,170.9,93,168,97z M182,284v-24h1c4.6-3.3,18.3-3.5,24-6c25.9-11.2,46.5-34.6,50-68h1v-1
			c7.5-0.1,18.2-1.1,24,1C276.9,236.5,236,283.8,182,284z M281,172h-24c-2-37-35.4-74.1-74-74v-1h-1V73c39.7,0.3,74.2,28.6,88,55
			c4.3,8.1,7.4,18,10,27c1.2,4.2-0.2,9.9,2,13C281.7,170.3,281.6,170.5,281,172z M530,176c-2.3-2.7-4.7-5.3-7-8c-3.1-2.3-6.7-4-9-7
			c-6.8-9.1-14.7-17.5-21-27c-3.3-5-4.8-11.9-9-16c-15.3,33.1-43,58.5-73,77c-8,4.9-19.4,9.4-28,13c-5.2,2.1-12,1.7-16,5h-1v1
			c3.9,3.5,13.5,18.5,15,24c7.2-1,13.3-4.6,19-7c11.4-4.9,22-8.7,32-15c11.6-7.4,22-16.8,33-25c7.2-5.4,11.2-15.2,19-20v-1h1
			c3.5,7.1,10.6,11.6,16,17c16.6,16.6,37.1,31.9,60,42c7.4,3.3,21.2,5.3,27,10c6-0.7,15.8-19.3,18-25c-20.4-8.2-39.8-13.1-57-24
			C542.6,185.9,536.3,180.6,530,176z M264,408c-35.8,16.4-98.6,22.7-143,10c-9-2.6-27.2-4.1-32-10h-1c1.7,13.7,3.3,27.3,5,41
			c11,2.7,22,5.3,33,8c7.4,1.9,15.2,1.4,22,3h11c5.9,1.4,25.7,2.8,33,1c14.3-3.4,30-1.9,44-6c6.8-2,18.4-6.5,24-6
			c0-8.1,0.6-32.4,4-37V408z M746,438c-9.7-2.8-21.3-2.2-28-8h-2c1.3,14,2.7,28,4,42c10.5,0.7,21.4,4.4,31,7c10.9,2.9,23.3,1.5,34,4
			c7.6,1.8,27.8,0.5,34-1c10-2.4,18.6,0.4,28-2c12-2.7,24-5.3,36-8c0-7.1,1.7-35.7,4-39v-3C852,446,788.2,450,746,438z M224,662
			c-2-2.3-4-4.7-6-7c-3.4-2.6-7.5-4.6-10-8c-6.8-9.1-14.7-17.5-21-27c-3.3-5-4.8-11.9-9-16c-15.3,33.1-42.9,58.5-73,77
			c-8,4.9-19.4,9.4-28,13c-5.2,2.1-12,1.7-16,5h-1v1c3.9,3.5,13.5,18.5,15,24c26.2-5.6,52-22.2,71-36c4-2.9,7.1-8.1,11-11
			c6.7-5,17.2-12.6,20-21h2c3.5,7.1,10.6,11.6,16,17c16.6,16.6,37.1,31.9,60,42c7.4,3.3,21.2,5.3,27,10c6-0.7,15.8-19.3,18-25
			c-15.3-6.2-31.7-8.8-45-17C244.4,676.5,233.9,669.4,224,662z"/>
	</g>
</g>
</svg>
