<?xml version="1.0" encoding="utf-8"?>
<!-- Generator: Adobe Illustrator 19.0.0, SVG Export Plug-In . SVG Version: 6.00 Build 0)  -->
<svg version="1.1" id="Layer_1" xmlns="http://www.w3.org/2000/svg" xmlns:xlink="http://www.w3.org/1999/xlink" x="0px" y="0px"
	 viewBox="0 0 1024 1024" style="enable-background:new 0 0 1024 1024;" xml:space="preserve">
<style type="text/css">
	.st0{fill-rule:evenodd;clip-rule:evenodd;fill:#020202;}
</style>
<path class="st0" d="M238,9c161,0,322,0,483,0c0,24.7,0,49.3,0,74c-161,0-322,0-483,0C238,58.3,238,33.7,238,9z"/>
<path class="st0" d="M349,935c-73.7,0.3-147.3,0.7-221,1c0-0.7,0-1.3,0-2c-4.1-5.6,0-15.8-2-24c-2.6-10.6-0.4-25.4-3-36
	c0-6,0-12,0-18c-2.5-10.5-2.8-28.6-3-40c-0.1-3.9,1.3-8.5,1-11c-2.9-26-1.1-57.6-7-82c-0.7-13.3-1.3-26.7-2-40
	c-4.6-18.9-3.1-40-8-59c-2.5-9.5-3.5-21.4-6-31c-0.3-4-0.7-8-1-12c-11.5-43.2-12.4-92.3-24-135c0-2,0-4,0-6c-3-11.1-4.9-25-8-36
	c-0.3-3.3-0.7-6.7-1-10c-9.9-33.6-18.1-66.8-29-99c-4.2-12.3-4.8-23.6-9-36c-4.6-13.6-7.1-28.5-12-43c-1.3-3.9-3.3-8.1-4-13
	c0.3,0,0.7,0,1,0c4.9,6.7,35.2,14.2,39,2c4-4.9,3-13,5-20c5.2-18.1,7.8-36.8,8-60c0.7,0,1.3,0,2,0c5.5-3.7,15.8-1.2,23-3
	c11.7-3,26.4-3.1,38-6c5.3-0.3,10.7-0.7,16-1c22.9-6.6,53.4-5.9,78-12c8.3-0.7,16.7-1.3,25-2c14.8-3.7,33.2-3.3,48-7
	c5.7-0.3,11.3-0.7,17-1c9.5-2.3,20.6-1.4,31-4c8.2-2,18.6-3.6,28-4c0,0.7,0,1.3,0,2c4.1,6,2.7,20.9,5,29c7.6,26.8,9.9,53.2,23,74
	c5.7,9.1,8.4,20.9,23,21c6.7-2,13.3-4,20-6c8.1-3.5,12.3-11.6,21-14c0,1,0,2,0,3c-1.9,2.8-0.8,6.1-2,10c-3.4,11.5-4.3,24.7-8,37
	c-11,37.2-15.1,78.8-26,116c-1.3,8-2.7,16-4,24c-9.3,31.7-13.3,66.8-22,99c-2.6,9.7-2.6,20.2-5,29c0,2,0,4,0,6
	c-2.4,9.1-3.6,20.9-6,30c-0.3,4-0.7,8-1,12c-10.1,37.9-10.5,80.3-20,119c-1,15.7-2,31.3-3,47c-4.1,17-1.9,38-6,55c0,3.7,0,7.3,0,11
	c-2.4,9.7-1.6,23.2-4,33c0,7.7,0,15.3,0,23c-2,8.2-2,21.1-2,30c0,4.3,0,8.7,0,13C349.2,899.7,349.3,922.2,349,935z"/>
<path class="st0" d="M581,937c-0.1-12.4-0.2-35.7-3-47c0-4.3,0-8.7,0-13c0-8.9,0-21.9-2-30c0-7.7,0-15.3,0-23
	c-2.4-9.8-1.6-23.3-4-33c0-3.7,0-7.3,0-11c-3.3-13.4-1.7-30.6-5-44c-1.3-19.3-2.7-38.7-4-58c-9.6-38.4-10-81.3-20-119
	c-0.3-4-0.7-8-1-12c-3.9-14.7-5.1-32.4-9-47c-0.3-4-0.7-8-1-12c-10.9-40.7-15.6-84-27-124c-3.2-11.4-2.7-21.6-6-33
	c-9.1-31-13-66-22-97c-2.8-9.6-3.5-19.4-6-28c-1.3-4.5-2.3-11.4,0-13c9.7,10.4,25.8,19.5,45,20c2.8-3,7.5-4.6,10-8
	c3-4.2,4.2-8.5,7-13c1.5-2.4,4.8-5.3,6-8c12.1-26.5,15.5-65.2,22-97c1.7,0,3.3,0,5,0c5.5,3.7,15.8,1.2,23,3c12.3,3.1,27.5,2.9,40,6
	c5.3,0.3,10.7,0.7,16,1c20.2,5.1,44.7,4,65,9c5.7,0.3,11.3,0.7,17,1c12.6,3.1,28.5,2.9,41,6c3,0,6,0,9,0c27.2,6.8,60.6,8.1,90,14
	c0,6.7,0,13.3,0,20c3.2,4.8,1.3,12.8,3,19c2.9,11,6.1,42.7,14,47c4.5,2.5,19.4-0.4,24-2c3.9-1.3,8.6-4,12-6c0,1,0,2,0,3
	c-5.9,7.5-6.5,25.7-10,36c-7.9,23.4-14.1,49.8-22,73c-1.3,6-2.7,12-4,18c-5.6,16.5-10.9,34.6-16,52c-3.8,13-4.7,26.7-8,39
	c-0.3,3.7-0.7,7.3-1,11c-3.9,13.6-5.3,30.3-9,44c-0.7,6-1.3,12-2,18c-3.9,14.7-5.2,32.2-9,47c-0.7,6.3-1.3,12.7-2,19
	c-7.2,27.2-8.1,58.6-15,86c0,3.7,0,7.3,0,11c-6,23.5-3,55.9-9,80c-0.7,16.3-1.3,32.7-2,49c-2.6,10.8,1.6,21.1-1,32
	c-2.5,10.1,0.5,24.5-2,35c-1,4.3,0.3,12.5-1,18c-4.6,18.9-1.3,43.6-5,62c-51.7,0-103.3,0-155,0c-3.2-2.3-12.9-1-18-1
	C613,937,597,937,581,937z"/>
</svg>
