<?xml version="1.0" encoding="utf-8"?>
<!-- Generator: Adobe Illustrator 19.0.0, SVG Export Plug-In . SVG Version: 6.00 Build 0)  -->
<svg version="1.1" id="Layer_1" xmlns="http://www.w3.org/2000/svg" xmlns:xlink="http://www.w3.org/1999/xlink" x="0px" y="0px"
	 viewBox="0 0 1024 1024" style="enable-background:new 0 0 1024 1024;" xml:space="preserve">
<style type="text/css">
	.st0{fill-rule:evenodd;clip-rule:evenodd;fill:#050606;}
</style>
<path class="st0" d="M293,96c3.3,0,6.7,0,10,0c0,0.7,0,1.3,0,2c-4.5,6.6-4.4,30.2-7,40c-6.3,23.4-7.7,50.5-14,74c-1,7.7-2,15.3-3,23
	c-10.3,37.9-10.8,80.7-21,119c-1,9.7-2,19.3-3,29c-5.3,21.2-12.1,61.2-5,87c5.2,18.8,9.7,36.4,17,53c14.3,32.4,36.8,58.7,56,86
	c9.4,13.4,18.4,25.9,28,39c1.7,1.3,3.3,2.7,5,4c3.4,4.6,5.8,9.3,10,13c-1.1,6-1.5,14.9-3,21c0,4,0,8,0,12c-2.9,12.1-3.8,27.6-4,41
	c-0.7,0-1.3,0-2,0c-4.4-6.2-12.8-11.4-19-16c-2.3-2.7-4.7-5.3-7-8c-7.3-7.3-14.7-13.6-21-22c-4-5.4-10.9-9.5-15-15
	c-19-25.7-40.5-52.3-54-83c-5.4-12.4-10.7-25.4-15-38c-2.3-6.7-2.6-12.8-5-19c-0.3,0-0.7,0-1,0c-1.3,15.9-9.5,35-15,48
	c-4.8,11.2-7.2,21.2-12,32c-12.6,28.2-29.9,54.2-47,78c-4.9,6.8-9,13.3-14,20c-2,1.7-4,3.3-6,5c-3.4,4.5-7.2,12.1-13,14
	c0-4.3,0-8.7,0-13c-2.2-3.2,0.1-9.4-1-14c-1.7-7.3-0.1-17-2-25c-1.3-9-2.7-18-4-27c3.6-2.4,4.4-5.5,7-9c4.7-6.4,11.4-12.4,16-19
	c4.9-6.9,8.1-14,13-21c22.3-32.1,39.2-65.5,51-109c3-11.1,3.9-39,1-51c0-5.3,0-10.7,0-16c-4.5-18.3-2.6-40.5-7-58
	c-0.3-5.3-0.7-10.7-1-16c-4.4-17.5-4.5-37.9-9-55c-0.3-4.3-0.7-8.7-1-13c-3.9-15-5-33-9-48c-0.3-4-0.7-8-1-12
	c-2.7-9.8-4.4-22.3-7-32c-0.3-4-0.7-8-1-12c-6.1-22.3-9.3-47-14-70c0.3,0,0.7,0,1,0c0-0.3,0-0.7,0-1c11.2,0.1,23.3-1.6,33-4
	c8.3-2,17.5-1.2,25-3c2.7,0,5.3,0,8,0c12.6-3.1,28.5-2.9,41-6C261.4,98.7,287.3,100.2,293,96z"/>
<path class="st0" d="M625,96c14.5-0.2,29.5,1.9,42,5c3,0,6,0,9,0c15.1,3.7,33.9,3.3,49,7c2.7,0,5.3,0,8,0c15.2,3.8,36.5,1.8,51,7
	c-3,17.9-6.3,37-11,54c0,2,0,4,0,6c-3.7,13.3-5.4,29.7-9,43c-1.7,6.3-0.3,10.7-2,17c-4.5,16.9-5.6,37-10,54c-0.3,4.3-0.7,8.7-1,13
	c-4.5,17.1-4.6,37.5-9,55c-0.3,5.3-0.7,10.7-1,16c-4.4,17.6-2.5,39.7-7,58c0,5.3,0,10.7,0,16c-2.8,12.2-2.1,39.8,1,51
	c11.4,41.6,26.9,75.3,48,107c8.7,13.1,18.6,26.1,28,39c3.7,5.1,10.2,8.1,11,16c-4,5.6-1.1,15.1-3,23c-3.5,14.6-4,35.3-4,52
	c-0.7,0-1.3,0-2,0c-6.4-10.9-17.6-18.9-25-29c-19.5-26.7-39-56.3-53-88c-7.9-17.8-14.1-36.5-21-55c-2.8-7.4-2.2-19.4-7-25
	c0,0.3,0,0.7,0,1c-3.4,4.7-2.9,12-5,18c-4.3,12.6-9.5,25.6-15,38c-3.3,7.5-8.8,15.2-13,22c-3.3,5.4-4.6,10.7-8,16
	c-17.5,27.6-39.4,52.4-62,75c-7.4,7.4-25.2,28.1-35,31c0-2.7,0-5.3,0-8c-1.8-2.6-0.1-7.1-1-11c-2.8-11.7-3.7-27.2-4-40
	c-0.1-5.1-2.4-12.3-1-15c2.2-7,10-11.6,14-17c6.9-9.4,13.2-18.4,20-28c1.5-2,4.6-3.9,6-6c26.8-38.1,53.5-74.3,70-123
	c10.4-30.6,7.9-77.2,0-108c0-2.7,0-5.3,0-8c-2.1-8.3-2.9-19-5-27c-0.3-4.3-0.7-8.7-1-13c-4-15-5-33-9-48c-0.3-4-0.7-8-1-12
	c-3.9-14.3-3.9-30.9-8-46c-2.8-10.3-4.2-23.6-7-34c-0.3-4-0.7-8-1-12C633.5,155.3,630.8,124.6,625,96z"/>
<path class="st0" d="M346,935c-73.7,0.3-147.3,0.7-221,1c-2.3-42.3-4.7-84.7-7-127c9.1-3.1,18.9-17.7,26-24c20.2-18,41.4-39.7,57-62
	c5.5-7.9,10.5-16.5,15-25c2-3.7,2.3-9.1,6-11c3,9.1,16.4,19.5,22,27c2.4,3.2,5,5.3,7,8c0,0.7,0,1.3,0,2c3.3,3,6.7,6,10,9
	c9.8,13.2,22.8,26.2,36,36c5,3.8,8.9,10.2,14,14c9.4,6.9,18.5,14.6,28,21c2.3,1.6,11.9,5.3,13,7c0,2.7,0,5.3,0,8
	c-3.2,4.6-1.8,30-2,38C348.7,883,347.3,909,346,935z"/>
<path class="st0" d="M803,936c-73.7-0.3-147.3-0.7-221-1c-2-41.3-4-82.7-6-124c12.5-3.7,24.2-16.8,34-24c19.6-14.4,42.6-34.6,57-54
	c3.3-3,6.7-6,10-9c5.6-7.6,11.3-14.3,17-22c1.7-1.3,3.3-2.7,5-4c2.9-4,4.3-8.9,9-11c1.6,12.2,11.2,22.4,17,31
	c8.9,13.3,18.7,24.4,28,37c5.3,5,10.7,10,16,15c3.5,4.7,6.7,9.2,11,13c1,0.3,2,0.7,3,1c5.3,5.7,10.7,11.3,16,17c3.7,2.7,5.9,4.9,9,8
	c0.7,0,1.3,0,2,0c0,3.3,0,6.7,0,10c-4.3,6.2,0.2,26.9-2,36c-2.4,10.2,0.5,24.4-2,35C803.1,902.4,803.1,922.3,803,936z"/>
</svg>
