<?xml version="1.0" encoding="utf-8"?>
<!-- Generator: Adobe Illustrator 19.0.0, SVG Export Plug-In . SVG Version: 6.00 Build 0)  -->
<svg version="1.1" id="Layer_1" xmlns="http://www.w3.org/2000/svg" xmlns:xlink="http://www.w3.org/1999/xlink" x="0px" y="0px"
	 viewBox="0 0 1024 1024" style="enable-background:new 0 0 1024 1024;" xml:space="preserve">
<style type="text/css">
	.st0{fill-rule:evenodd;clip-rule:evenodd;fill:#050606;}
</style>
<path class="st0" d="M459,22c22.7,4.3,45.3,8.7,68,13c-0.7,10.7-1.3,21.3-2,32c0,9.3,0,18.7,0,28c-1.4,6.1-1.4,17.9,0,24
	c0,6.7,0,13.3,0,20c3.6,15,6.5,29.6,11,43c2.3,6.9,2.2,12.5,5,19c8.3,19.4,21.5,30.5,41,39c10.2,4.5,20.4,10.6,35,11
	c2.3,18.6,3.5,50.5-1,69c-1,17.3-2,34.7-3,52c-7.3,26.9-16.1,54.4-28,77c-3.8,7.3-6.4,13.7-11,20c-2.3,3.2-6.6,5.8-9,9
	c-4.3,5.7-7.1,12.8-17,13c-5.9-4.1-22.5-1-31-3c-19.9-4.8-44-2.2-64-7c-3.7,0-7.3,0-11,0c-6.9-1.6-17.1-1.4-24-3c-4,0-8,0-12,0
	c-20.7-4.9-49.4-3-74-3c-33.3,0.3-66.7,0.7-100,1c-11.8,2.8-27.3,1.2-39,4c-4,0-8,0-12,0c-6.5,1.6-16.4,1.4-23,3c-3.7,0-7.3,0-11,0
	c-6.4,1.5-14.8,0.3-22,2c-11.1,2.7-26,3.5-38,4c-5.1-8.7-12.6-16.5-18-25c-9.5-14.9-17.9-31.2-25-48c-5-11.9-4.3-24.5-8-38
	c-9.6-35.5-7.9-81.8-8-127c19.4-7.9,44.6-17.5,56-33c15.8-21.5,27.6-48.4,35-78c1-35,2-70,3-105c0.7,0,1.3,0,2,0
	c4.7-3.3,11.8-2.2,18-4c14.5-4.2,30.7-7.8,46-11c0,2.7,0,5.3,0,8c-3.1,4.3-1,33.1-1,41c0.1,17.8,2.9,42.7,10,54
	c3.5,5.6,9.2,10.6,13,16c5.7,8.1,12.3,20.3,20,26c20.3,15,40.1,17.6,68,25c5,0.3,10,0.7,15,1c10.3,2.4,31.4,1.7,41-1
	c42-11.7,63.2-19.3,85-52c3.7-5.6,9.2-11.6,12-18C461.3,96.6,459.1,55.1,459,22z"/>
<path class="st0" d="M968,766c0.1,7.9,0,17.6-1,24c-1.6,10.7,1.2,23.8-1,33c-1.8,7.4,0.5,17.8-1,24c0,6.3,0,12.7,0,19
	c-2.8,11.5-0.4,25.8-4,37c-5.1,16.2-13.4,32.9-20,48c-2.4,5.5-3,10.2-6,15c-2.7,4.4-7.1,8.7-10,13c-1.8,2.6-3.2,8.7-6,10
	c-2.3,0-4.7,0-7,0c-5-3.4-18.8-0.3-26-2c-20.5-4.9-45.6-1.1-66-6c-9-0.3-18-0.7-27-1c-11.8-2.8-27.2-1.2-39-4c-4.7,0-9.3,0-14,0
	c-16.4-3.9-53.3-6-70-2c-10.2,2.4-22.6-0.2-32,2c-21.7,1-43.3,2-65,3c-9.4,2.2-22.6,0.8-32,3c-5.3,0-10.7,0-16,0
	c-9.7,2.3-22.5-0.5-33,2c-11.5,2.8-27.4,2.9-40,3c-4.6-8.4-10.9-16.8-16-25c-3.4-5.5-4.3-10.9-7-17c-5.3-11.9-10.9-25.3-15-39
	c-6.3-21-2.5-47.9-8-70c0-5.3,0-10.7,0-16c-3.7-15.4-2.9-43.1,0-58c12.7-1,27.3-3.9,39-7c11.7-3.1,22.7-1.6,34-5
	c25.7-7.3,51.3-14.7,77-22c5.5-2.3,11.7-6.6,17-9c20.1-8.9,42-18.1,48-41c4.7-18-21-31.7-30-38c-9.1-6.3-18.5-14-28-20
	c-5.3-3.4-10.6-4.7-16-8c-5-3.1-11.4-7.8-17-10c-2.3-0.3-4.7-0.7-7-1c-11.8-4.4-23.9-8-36-13c-14.2-5.9-31.4-15.7-49-17c0-2,0-4,0-6
	c32.3-16.3,64.7-32.7,97-49c1.2,5.9,4.6,16.2,10,18c9.5,8.1,34.9,11.3,49,15c2.3,0,4.7,0,7,0c20.1,5,45.4,4,70,4
	c11.2,0,25.6,1.3,35-1c9.9-2.4,23.3,1.1,32-1c7.3,0,14.7,0,22,0c4-1,11.8,0.3,17-1c7.6-1.8,16.4-2.9,23-5c24.1-7.5,31.4-2.2,41-26
	c26.2,11.5,50.5,25.3,77,37c7.2,3.2,13.8,8.8,22,11c0,0.7,0,1.3,0,2c-5.1,0.5-8.2,3.4-12,5c-10.6,4.6-21,8.7-31,13
	c-31.5,13.7-59.4,24.9-87,42c-11.7,7.2-23.9,11.3-32,22c-9.5,12.6-25.1,17.4-25,40c2.4,2.7,2.9,7,5,10c5.3,5,10.7,10,16,15
	c12.9,9.1,29.8,15.6,46,21c8,1.7,16,3.3,24,5C880.4,753.4,926.5,761,968,766z"/>
</svg>
