<?xml version="1.0" encoding="utf-8"?>
<!-- Generator: Adobe Illustrator 19.0.0, SVG Export Plug-In . SVG Version: 6.00 Build 0)  -->
<svg version="1.1" id="Layer_1" xmlns="http://www.w3.org/2000/svg" xmlns:xlink="http://www.w3.org/1999/xlink" x="0px" y="0px"
	 viewBox="0 0 1024 1024" style="enable-background:new 0 0 1024 1024;" xml:space="preserve">
<style type="text/css">
	.st0{fill-rule:evenodd;clip-rule:evenodd;fill:#070808;}
</style>
<g>
	<g>
		<path class="st0" d="M463,306h1v-1h44c-0.5,39.1-15,68-31,92c-5.7,8.5-10.5,18.4-19,24v2c15.3,0.1,37.8-0.6,49-3
			c8.7-1.9,22.9,1.1,27-2c6.5-4.8,8.2-15.4,12-23c11.2-22.2,22.9-57,22-90c13.6,0.1,39,2.8,50-1c0-7.3,0.4-15.1,1-21
			c-13.8,0.1-39.8,2.9-51-1c0.1-5.9,0.6-14.4-2-18v-7c12,5.1,26.2,9.1,38,14c4.3,1.8,8.8,1.4,12,4h2c0.2-7,2.9-16.9-1-22
			c-2.5-4.3-12.1-3.2-17-5c-11.9-4.4-24.9-9.3-35-16c-24.2-16.1-30.8-54.1-39-86c-3.3-12.9-1-30.5-1-45c0-12,0.5-25.6,1-36
			c0.3-5.3-1.4-14.6,1-18V35c-4.8-0.9-21.1-2.6-23-4h-1v93c-8.4-4.2-13.2-13.1-21-18V27c-8.6-0.7-13.9-4.6-23-5
			c0,10.9,1.2,24.8-1,34c-2.1,9,0.8,21.2-1,29c-2.4,10,0.3,18.8-3,27c-8.1,20.1-25.7,46.2-43,57c-11.9,7.4-25.5,10.1-40,15
			c-15.9,5.3-42.3,12.5-65,7c-8.3-2-18.3-3.6-26-6c-17.7-5.4-31.8-6.5-45-16c-1.7-2-3.3-4-5-6c-8.1-8.1-12.3-13.4-19-23
			c-6.8-9.7-14.8-17.3-19-30c-8-24.1-4.3-61-4-90c-9.3,1.2-16.2,5.7-25,6v79c-6,5.4-12.6,12-18,18h-2V31c-6.7,1-13.3,2-20,3v1h-1
			c-1,34.7-2,69.3-3,104c-7.7,30.5-19.7,57.8-36,80c-10.1,13.7-37.5,24.8-55,32c0.3,8.7,0.7,17.3,1,26c9.1-1.3,43.7-16.8,49-22h2
			c-1.7,8.4-3.1,17.2-3,27h-1v1H28v22c16.3,0,31,0,49,0c0.5,33,9.7,61.5,20,85c4,9,6.6,20.4,13,27c5.9,4.9,37.9,3.4,48,5
			c5.8,0.9,15-1.7,19,1h10c-1.4-4-3.9-4.2-6-7c-4.9-6.7-10.5-13.2-15-20c-13.3-20.1-29.5-57.9-29-91c8.2-0.1,39.6-2.1,44,1
			c2.4,3.4,0.8,9.4,2,14c2.7,10,4.9,20.7,9,30c12,27.5,31.2,47.2,55,63c5.7,3.8,13.2,9.7,20,12h111c9.6-3.2,18.2-10.8,26-16
			C430.7,391.2,463.5,350.2,463,306z M424,194c8.3-5.2,13.4-14.4,21-20c3.9-2.9,7.4-4.9,10-9c7.9,1.3,15.8,15.9,20,22
			c15.9,23.3,33.9,56.7,33,96c-8.2,0.1-39.6,2.1-44-1c-2.7-3.7-0.7-10.9-2-16c-2.3-8-4.7-16-7-24c-4.7-11.3-11.1-23.3-18-33
			c-3.5-4.8-8.9-8.7-12-14h-1V194z M219,197c-16.1,14-37.5,54.5-37,85h-1v1c-12.2,0.1-34.3,2.4-44-1c0.6-32.6,12.8-65,26-86
			c6.5-10.4,17.2-19.7,23-30h3c4.3,6.8,23.1,24.7,30,29V197z M590,548c-11.5-3.1-23.8-6.2-34-10c-4-1.5-11.5-2.5-14-5
			c-3.7-3.7-3.8-13.6-8-17c-3.1,3.3-11.1,7-16,8c5.3,7.7,10.7,15.3,16,23c4.3,1,8.7,2,13,3c7.7,2.9,16.8,6.8,25,9h184
			c38.3,0,74.8,2,91-20c2.8-3.7,7.4-6,9-11h1c-2-4.5-11.3-7.3-16-9c-2.6,5.5-5.3,11-8,16c-14.1,5.9-31.2,9.8-47,14
			c-9.1,2.4-21.3-0.1-30,2c-20,0.3-40,0.7-60,1c-8.3,2-21.1,1-31,1c-21.8,0-44,0.4-62-4C598.7,548.7,594.3,548.3,590,548z M841,741
			c-6.7-1.3-13.3-2.7-20-4c-13.2-4.4-27.7-9-39-16c-6.7-4.2-18.5-12.8-23-19c-2.5-3.5-3.2-8.7-6-12c0.2-18.7,16.6-31.7,27-41
			c28.2-25.1,68.9-40.5,106-57c9.5-4.2,20.4-9.8,30-14c3.1-1.4,4.9-0.6,8-2c4.8-2.1,10.1-5.8,16-7c-2-4.5-8.7-4.8-12-8
			c-12.9,1.1-25.3,9.4-36,14c-12.9,5.5-25.2,8.3-38,14c-12.2,5.4-24.9,13.2-36,20c-10.1,6.2-23.9,8.8-32,17h-1
			c2.4-10.3,7.2-21.1,12-30c1.1-2,4.4-4.7,5-7c-0.7-6.3-1.3-12.7-2-19h-1v-1H595c-7.1,0-16.6-0.9-22,1c-0.3,6-0.7,12-1,18
			c0.5,1.1,3.4,3,4,4c2.7,4.4,4.9,9.8,7,14c2,4.1,2,8.9,5,12v2c-15.3-4.7-28.3-19.5-43-26c-7.1-3.1-13.8-3.9-21-7
			c-14.4-6.1-30.6-12.8-45-19c-8.3-3.6-19.3-4.6-26-10c-6.4,0.9-9.8,4.6-15,7v6c19,2.3,35.4,11.5,51,18c10.9,4.5,22.6,8.1,33,12
			c3.3,0.7,6.7,1.3,10,2c21.4,9,40.6,24.5,59,37c13.2,9,40.4,24.6,26,48c-8.9,14.4-22.7,19.9-38,28c-31.9,16.8-72.3,25.4-111,36
			c-4,0.3-8,0.7-12,1c-9.1,2.4-20.9,3.6-30,6c-6.1,1.6-13.4-0.1-18,3c-4.1,1.6-2.5,6.1-5,9c0.5,3.5,1.3,4,2,7c11-0.7,22-1.3,33-2
			c0,2.9,0.1,5.5-1,7v6c-9.1,2-21.5,3-32,4v1h-1c0.3,8,0.7,16,1,24h3c0.2-2.3,0.1-2.8,1-4c4.3-3.4,15.2,0.2,20-3c4.5,0,5.5,0.6,8,2
			c0.5,43.4,11.7,73.9,25,104h70c-2.4-7.6-9-14.5-13-21c-9.9-16.1-21.4-52.4-21-78h45c3.9,32.9,15.4,57.8,31,79
			c5.4,7.4,14.7,12.6,20,20h187c0.7-1,1.3-2,2-3c4.3-3,8.8-6,12-10v-2c13.1-14.6,24-31.2,31-52c2.3-6.9,3.3-14.4,5-21
			c0.9-3.3-0.5-6.8,1-9v-2h45c-0.5,32.9-11.1,60-24,81c-3.4,5.6-4.7,12.3-10,16v2h70c2.4-1.3,5.5-13.6,7-17c5.6-12.9,9.8-28.1,14-43
			c1.8-6.5,0.8-21.2,4-26c-0.1-4.6-0.1-9.9,1-13h28v-23c-8.9,0.1-21.9,1.5-29-1c0.1-3.8,0.6-9.8-1-12v-2c3.7,0.1,24.2,3.7,26,5
			c2.3-0.3,2.5-0.4,4-1c0.6-1.8,0.1-0.9,1-2v-16C925.1,757.2,879.6,753.1,841,741z M550,763c-3,9.2-6,20.7-7,32h-45
			c0.2-6.4,3.4-18.4,1-22c-0.1-4-0.7-10.7,1-13c2.1-1.8,3.7-0.9,7-2c7.6-2.6,17.4-5.4,25-8c6.4-2.2,14-1.4,19-5h2
			C550.9,750.3,552.1,756.5,550,763z M676,662c-9.7,1.7-19.3,3.3-29,5c-4.4,1.5-7.3,4.4-13,5c-1.1-7.9-4.7-15.3-7-22
			c-2.3-6.8-2.1-14.8-6-20c0.4-2.1,0.1-1.9,1-3c4.1-3.3,10.1-2.3,16-4c11.1-3.1,24-6.3,38-6V662z M728,667c-7.1-3-20.5-4.3-29-5v-45
			c15.3,0.2,29.1,3.3,41,7c6.2,1.9,13.5,1.4,18,5h2c-6.3,14.7-12.7,29.3-19,44C735.6,671.7,732.2,668.8,728,667z M875,777
			c0.8,5.3,2,11.2,2,18h-45c-1.3-8.3-2.7-16.7-4-25c-1.8-5.2-4.1-7.7-4-16c12.2,1.5,25.1,5.6,36,9c4.6,1.4,9.7,0.5,13,3
			c1,0.3,2,0.7,3,1c0.3,2,0.7,4,1,6C876.7,774.2,874.6,773.9,875,777z"/>
	</g>
</g>
</svg>
