<?xml version="1.0" encoding="utf-8"?>
<!-- Generator: Adobe Illustrator 19.0.0, SVG Export Plug-In . SVG Version: 6.00 Build 0)  -->
<svg version="1.1" id="Layer_1" xmlns="http://www.w3.org/2000/svg" xmlns:xlink="http://www.w3.org/1999/xlink" x="0px" y="0px"
	 viewBox="0 0 1024 1024" style="enable-background:new 0 0 1024 1024;" xml:space="preserve">
<style type="text/css">
	.st0{fill-rule:evenodd;clip-rule:evenodd;fill:#050606;}
	.st1{fill:#050606;}
</style>
<g>
	<g>
		<path class="st0" d="M704,738c-7.5-2.3-18.1-1.1-27-1c-4,2.9-16.7,4.3-22,7c-16.9,8.8-30,24.3-37,43c-2.8,7.6-4.1,20.5-2,29
			c1.4,6,0.2,9.7,2,15c7.5,22.4,22.8,35.9,44,45c7.7,3.3,23.6,8.3,37,5c26.3-6.5,46.2-21.2,56-44C775.7,788.7,739,748.5,704,738z"/>
	</g>
</g>
<g>
	<g>
		<path class="st1" d="M391.1,293.4c-0.2-2.3-0.3-4.7-0.5-7c-1.5-4.4-2-9.3-3.7-13.6c-7-18.3-20-30.4-37.1-38.9
			c-1.1-0.6-2-0.5-3.2-0.9c-3.7-1.5-8.1-2.4-12.4-3.7c-1.7-0.5-3.5-0.3-5.2-0.6c-1.1-0.3-2.4,0.3-3.2-0.2
			c-27.6-0.6-47.9,13.1-58.8,29.3c-1.2,1.8-2.6,4.1-4.1,5.8c-0.3,0.5-0.2,1.1-0.5,1.5c-1.1,2-2,4-2.9,6.3c-0.5,1.1-2,3.7-1.5,4.7
			c-1.1,2-1.1,4.3-1.8,6.7c-3.1,10.4-1.4,25,1.8,33.9c0.8,2.1,0.8,4.1,1.8,6.1c9.5,18.6,20.6,30.4,40.9,38.2c4.1,1.7,8.9,2,13.6,3.2
			c1.5,0.5,3.4,0.2,4.7,0.5c2.1,0.5,8.5,0,10.2-0.5c0.8,0,1.7,0,2.4,0c0.9-0.2,2.6-0.6,3.4-0.9c0.6,0,1.2,0,1.8,0
			c5.3-1.5,10.7-3.1,15.1-5.5c1.2-0.6,2.3-0.8,3.4-1.4s2.1-1.7,3.2-2.3c0.2,0,0.5,0,0.6,0l0.6-0.5c0-0.2,0-0.3,0-0.5
			c0.6-0.5,1.4-0.5,2-0.9c1.8-1.4,3.5-3.1,5.2-4.6c0.3-0.3,1.2-0.6,1.5-0.9c0-0.2,0-0.3,0-0.5c0.2,0,0.3,0,0.5,0c0-0.2,0-0.3,0-0.5
			c0.2,0,0.3,0,0.5,0c0-0.2,0-0.3,0-0.5c0.2,0,0.3,0,0.5,0c0.8-0.6,1.2-1.5,1.8-2.3c0.2,0,0.3,0,0.5,0c0-0.2,0-0.3,0-0.5
			c0.2,0,0.3,0,0.5,0c0.3-0.3,0.2-0.6,0.5-0.9c0.2,0,0.3,0,0.5,0c6-6.4,10.5-15,14-24c0.8-2,0.8-3.8,1.4-6.1
			C390.4,308.4,392.3,298.6,391.1,293.4z M383,313c-1.1,3.1-1.5,5.8-2.7,8.5c-6.1,13.9-16.6,24.3-29.8,31.1
			c-1.2,0.6-2.4,0.8-3.8,1.4c-4.3,1.8-8.4,2.7-13.3,4.1c-2.1,0.6-4-0.2-6.3,0.5c-1.8,0.5-5.8,0.5-7.6,0c-1.1,0-2.1,0-3.2,0
			c-4.7-1.2-9.5-1.5-13.7-3.2c-16.6-6.4-29.3-17.9-36.3-33.9c-1.8-4.1-2.7-8.9-4.1-13.6c-0.2-1.5-0.3-3.1-0.5-4.6
			c-1.7-7.3,0.3-19.2,2.3-24.6c0.9-2.6,1.2-4.7,2.3-7c7.6-17.2,21.7-29.3,40.6-35.3c6-1.8,12.7-2,20.3-2c0.8,0.5,2.1,0,3.2,0.2
			c1.7,0.5,3.8,0.3,5.6,0.9c4.4,1.2,8.7,2.3,12.7,4.1c15.7,6.9,26.6,19.4,33.3,35.4c1.7,3.8,2.1,8.4,3.2,12.7c0,1.4,0.2,2.9,0.2,4.3
			C386.4,298.2,384.4,308.7,383,313z M375.5,275.3c-5-11.4-12.8-20.9-23.5-26.9c-7.3-4.1-15-7.6-25.9-8.1c0,10.4,0,20.6,0,31
			c0,3.7-0.8,9.3,2,10.2c1.8,1.7,7.6-0.2,10.7,0.6c1.4,0.3,3.4,1.4,4.1,2.4c0.8,1.1,1.4,2.4,1.8,3.8c0.3,1.2,0.2,2.4,0,3.4
			c0,0.6,0,1.2,0,1.8c-0.8,2.4-2.4,4.9-4.7,5.8c-2.1,0.9-6,0.5-8.9,0.5c-4.4,0-8.9,0-13.3,0c-3.1,0-6.6-0.2-8.9,0.5
			c-0.6,1.1-0.9,1.5-0.9,3.4c0.6,0.6,0.5,1.1,1.4,1.4c0.6,0.5,2.6,0.2,3.7,0.2c2.9,0,6.4-0.3,8.5,0.5c6.4,2.4,4.7,13.3,4.7,22
			c2.9,0,6.4-0.2,8.9-0.6c0.8,0,1.7,0,2.4,0c3.7-0.6,7.2-1.2,10.8-1.8c3.1-0.9,6.6-1.5,9.8-2.7c3.7-1.4,7.3-3.2,10.7-5
			c0.2,0,0.5,0,0.6,0c0.3-0.2,0.6-0.8,0.9-0.9c0.2,0,0.5,0,0.6,0c1.4-0.8,2.7-2.3,4.1-3.2c0.3-0.3,0.8-0.2,1.1-0.5
			c0-0.2,0-0.3,0-0.5c0.5-0.5,1.2-0.6,1.5-1.1c0-0.6,0.2-1.2,0.2-1.8c0.3-0.8,0.6-2.3,0.9-3.2c0-0.5,0-1.1,0-1.5
			c1.8-7.8,0.3-18.3-1.8-24.4C376.5,278.6,376.3,277.1,375.5,275.3z M371.9,300c-6.3,0-12.7,0-18.9,0c-2.6-0.9-4.1-2.4-5.2-5
			c-0.6-1.2-1.5-3.7-0.9-5.8c0.5-1.5,1.4-2.7,1.5-4.6c-2.1-1.8-1.8-6.9-0.6-9.5c0.9-2,2-3.7,3.8-4.6c1.5-0.8,4.4-0.5,6.6-0.5
			c4.6,0,9.2,0,13.7,0c0,2,0,4.1,0,6.1c-5.6,0-11.4,0.2-16.9,0.2c-1.8,2.4-1.8,3.1,0.2,5.2c5.5,0,11.1,0,16.8,0c0,2.1,0,4.4,0,6.6
			c-1.2,0.5-3.2,0.2-4.7,0.2c-3.4,0-6.6,0-9.9,0c-0.8-0.6-2.9,0-3.2,1.1c-0.5,0.5-0.5,1.2-0.5,2.3c0.5,0.5,0.8,1.5,1.4,1.8
			c5.5,0,11.1,0,16.8,0C372.2,295.1,371.9,298,371.9,300z M309.6,311.8c-0.8,0-1.7,0-2.4,0c-1.4-0.5-3.2-1.7-4.1-2.7
			c-3.5-4.3-1.4-12.4,2.4-14.5c1.8-1.1,5.3-0.6,8.1-0.6c5.3,0,10.5,0,15.9,0c2.6,0,5.8,0.3,7.6-0.5c0.6-1.1,0.9-1.5,0.9-3.4
			c-0.6-0.6-0.5-1.1-1.4-1.4c-0.6-0.5-2.3-0.2-3.4-0.2c-2.7,0-5.5-0.2-8.1-0.2c-7.3-2.1-5.5-13.1-5.5-22.3c-2.7,0-6.3,0.2-8.5,0.6
			c-0.8,0-1.7,0-2.4,0c-3.7,0.6-7.2,1.2-10.8,1.8c-4.7,1.4-9.6,2.7-13.7,4.6c-0.8,0.3-1.1,0.2-1.8,0.5c-1.5,0.8-3.2,1.8-4.7,2.7
			c-0.8,0.5-1.5,0.5-2.3,0.9c-1.7,1.1-3.2,2.4-4.7,3.7c-0.6,0.5-1.7,0.9-2,1.5c-0.9,1.7-0.6,4.4-1.1,6.6c-1.8,7.8-0.3,18.3,1.8,24.4
			c1.4,3.8,2.4,6.7,4.1,9.9c0.3,0.6,0.3,1.2,0.6,1.8c9.2,15,23.5,26.9,46.1,28.4c0-9.6,0-19.1,0-28.7c0-3.7,0.8-9.3-0.9-11.4
			C317.7,311.2,312.8,311.8,309.6,311.8z"/>
	</g>
</g>
</svg>
