<?xml version="1.0" encoding="utf-8"?>
<!-- Generator: Adobe Illustrator 19.0.0, SVG Export Plug-In . SVG Version: 6.00 Build 0)  -->
<svg version="1.1" id="Layer_1" xmlns="http://www.w3.org/2000/svg" xmlns:xlink="http://www.w3.org/1999/xlink" x="0px" y="0px"
	 viewBox="0 0 1024 1024" style="enable-background:new 0 0 1024 1024;" xml:space="preserve">
<style type="text/css">
	.st0{fill-rule:evenodd;clip-rule:evenodd;fill:#070808;}
</style>
<path class="st0" d="M292,531c-52-1.3-104-2.7-156-4c1-24.9-0.4-50.1-6-72c-2.6-10.3-1.6-21.6-4-31c-1.3-13-2.7-26-4-39
	c-6.4-23.6-10.5-49.7-18-72c-2.5-7.5-2.1-14.1-5-21c-6.2-14.9-13.7-30.2-21-44c-2.3-5.3-4.7-10.7-7-16c-3.7-6-9-12.3-12-19
	c-1.7-4-1.3-6.9-3-11c-0.8-2-3.4-5.7-4-8c-1.3-5.3,3.7-9.6,2-13c-1.7-5.2-5.9-5.1-7-11c5.7-6.2,8.3-22.4,12-31
	c8.3-19.3,17.4-39.8,28-57c0.7-2,1.3-4,2-6c11.5-18.3,27.7-34.3,45-47c2.8-2.1,5.2-6,8-8c6.7-4.8,15.4-8,21-14c3.3,0.1,4.5,0.5,7,1
	c0.2,11,4.7,17.5,8,25c2.4,5.6,2.7,12,6,17c5.4,8.1,25.7,14.5,40,10c4.2-1.3,10.2-3.6,14-6c15.2-9.5,17.4-27.8,24-46
	c17.7,8.7,32.8,21.8,48,33c4.5,3.3,10.7,6.5,14,11c14.9,20.1,24.8,42.9,37,66c5.6,10.7,13.6,22.3,18,34c1,8,2,16,3,24
	c-0.8,2.4-5.4,5.8-6,8c1.3,4,2.7,8,4,12c-6.4,5.1-9.4,15-14,22c-6.7,10.1-16,20.6-21,32c-5.5,12.5-7.4,24.6-12,38
	c-7.9,23-16,47.3-23,71c-2.7,17.7-5.3,35.3-8,53c0,2.7,0,5.3,0,8c-3.9,15.4-3.1,34.1-7,50c0,5,0,10,0,15
	C292,497.5,292.1,517,292,531z"/>
<path class="st0" d="M667,569c-0.3-9.3-0.7-18.7-1-28c0-11.5,1.3-26.3-1-36c-2.3-9.6,0.1-21.2-2-30c-0.3-9.7-0.7-19.3-1-29
	c-2.6-10.7-3.4-23.1-6-33c-1.3-9.7-2.7-19.3-4-29c-3.8-12.1-8.6-26.2-13-38c-2.5-6.6-2.3-12.6-5-19c-4-9.5-9-20.5-13-30
	c-2-6-4-12-6-18c-2.1-3.3-5.8-6.7-8-10c-5.1-7.7-8.9-15.3-14-23c-1.4-2-5.1-4.8-6-7c-2.2-5.2,2.2-13.8-1-21c-2-4.4-5.9-6.2-7-12
	c3.1-3.9,3.1-9.8,5-15c4-10.5,8.5-22.8,12-33c0.7-3.3,1.3-6.7,2-10c5.2-12,18.5-26.3,26-37c6.3-8.9,10.6-18.2,17-27c3-2.7,6-5.3,9-8
	c8.4-11.3,18.3-20.8,30-29c9.2-6.4,17.9-18,33-18c6.9,7.5,48.6,9.7,62,5c3.8-1.3,5.9-4.2,11-5c4.7,4.8,12.2,6.1,18,10
	c7.7,8,15.3,16,23,24c4.9,4.9,11.9,8.5,16,14c8.2,11.1,15.9,21.8,24,33c1.7,2.4,5.4,4.5,7,7c7,10.7,10,23.6,16,35
	c7.6,14.6,20.3,39.5,21,60c-5,3.8-9.1,11.1-11,18c0,3.3,0,6.7,0,10c-0.7,1.7-4,4.4-5,6c-2.7,4.3-3.3,8.7-6,13
	c-7,11.3-17.8,25.9-23,38c-3.3,7.7-3.7,15.1-7,23c-6.1,14.6-12.5,31.2-18,46c-1.3,8.7-2.7,17.3-4,26c-4.7,17.3-6.7,37.5-11,55
	c-0.3,9.3-0.7,18.7-1,28c-2.1,8.5,0.2,19.7-2,29c-4.8,20-1,44.5-5,65C767.7,569,717.3,569,667,569z"/>
<path class="st0" d="M532,535c-59.3-0.3-118.7-0.7-178-1c-1.9-23.5,0.9-49.1,6-69c0.3-5,0.7-10,1-15c3-12,3.9-26.3,7-37
	c3.7-12.5,4.6-25.5,8-37c0.3-3,0.7-6,1-9c19.1-56.9,37.2-115.6,67-162c0.7,0,1.3,0,2,0c1.9,6.9,8.1,13.4,11,20
	c9.4,21.3,18.2,42.9,27,64c2.2,5.2,2,9.7,4,15c3.6,9.4,7.8,20.4,11,30c1.7,8,3.3,16,5,24C521,408.7,531.1,469.3,532,535z"/>
<path class="st0" d="M676,795c-54.7,0-109.3,0-164,0c0-0.7,0-1.3,0-2c-2.8-3.9-2.3-8.9-4-14c-3.3-9.7-5.3-20.3-9-31
	c-7-20.5-13-43.5-20-64c-1.4-4.2-0.6-6.8-2-11c-4.5-13.2-12.9-33.2-14-48c5.1-1.3,8.8-4.8,13-7c10.7-5.6,21.5-10.1,31-17
	c4.7-5,9.3-10,14-15c25.8-25.8,50.7-52.9,67-88c2-0.3,4-0.7,6-1c2.1,8.1,8.3,15,12,22c16.7,31.9,39.5,57.1,68,77
	c7.8,5.4,15.9,8.9,24,14c2.9,1.9,5.9,5.3,9,7c5.6,3,14.9,3.5,16,11c-2.4,3-1.5,6.7-3,11c-4.2,12.3-6.5,25.9-11,39
	c-7.7,22.8-12,47.4-20,71C684.8,761.5,677.1,781.2,676,795z"/>
<path class="st0" d="M135,528c1,0,2,0,3,0c3.4,5.4,9.3,9.7,13,15c21.1,30.1,39.4,53.2,69,75c1.3,1.7,2.7,3.3,4,5
	c4.5,3.3,8.6,5.7,13,9c1,1.3,2,2.7,3,4c9.7,6.9,21.3,11.3,33,16c0,0.7,0,1.3,0,2c-1-0.3-2-0.7-3-1c-1.1,14-9.6,34.3-14,47
	c-1.5,4.2-0.5,6.8-2,11c-7.4,21.4-13.7,45.5-21,67c-3.2,9.3-5.1,18.6-8,27c-1.7,5-0.7,10.8-5,13c-3.3,2.2-5.5-0.9-10,0
	c-2.3,0.5-11.5,1.7-15,1c-0.6-0.1-2.8-1.4-5-1c-0.6,0.1-2.8,1.4-5,1c-0.6-0.1-2.8-1.4-5-1c-8,1.6-18.4,0.3-27,0
	c-4.7-0.2-9.9,0.5-14,1c-2.7-0.3-5.3-0.7-8-1c-1.5,0.2-3.3,1.6-6,1c-6.6-1.3-18.4-1.3-25,0c-3-0.3-6-0.7-9-1
	c-10.5,1.3-22.4-0.9-33,1c0-0.7,0-1.3,0-2c-2.3-3.1-1.6-6.8-3-11c-3.3-9.6-5.4-20.4-9-31c-8.6-25.4-15.4-53.6-24-79
	c-5-14.8-6-31.2-13-44c12.2-2.9,23.4-10.1,33-16c5-3,10.2-3.8,15-7c10.8-7.2,25.3-20.6,33-31c3.8-5.1,10.3-8.8,14-14
	c4.1-5.8,6.2-11.9,10-18c0.7-1.2,3.4-2.8,4-4c0-1,0-2,0-3c2.4-5.2,6.6-10.8,9-16c0-1,0-2,0-3C129.1,536.1,132.9,532.4,135,528z"/>
<path class="st0" d="M457,951c-59.3-0.3-118.7-0.7-178-1c-1.9-23.5,0.9-49.1,6-69c0.3-5,0.7-10,1-15c3-12,3.9-26.3,7-37
	c3.7-12.5,4.6-25.4,8-37c0.3-3,0.7-6,1-9c19.1-56.9,37.2-115.6,67-162c0.7,0,1.3,0,2,0c1.9,6.9,8.1,13.4,11,20
	c9.4,21.3,18.2,42.9,27,64c2.2,5.2,2,9.7,4,15c4.1,10.8,8.5,22.8,12,34c1.7,8,3.3,16,5,24C446.7,828,456.1,886.3,457,951z"/>
</svg>
