<?xml version="1.0" encoding="utf-8"?>
<!-- Generator: Adobe Illustrator 19.0.0, SVG Export Plug-In . SVG Version: 6.00 Build 0)  -->
<svg version="1.1" id="Layer_1" xmlns="http://www.w3.org/2000/svg" xmlns:xlink="http://www.w3.org/1999/xlink" x="0px" y="0px"
	 viewBox="0 0 1024 1024" style="enable-background:new 0 0 1024 1024;" xml:space="preserve">
<style type="text/css">
	.st0{fill-rule:evenodd;clip-rule:evenodd;fill:#070808;}
</style>
<g>
	<g>
		<path class="st0" d="M917,198c-0.3-1-0.7-2-1-3h-30c-0.2-57.4-43.6-105.4-84-123c-9.7-3-19.3-6-29-9c-6.4-1.8-15.2,0.4-20-3
			c-0.3-1-0.8-0.4,0-1c0.1-7.8,1.1-18.9-1-25h-13v27c-50.6,0.3-93.1,33.5-113,65c-4.4,7-6.6,14-10,22c-5.6,13.1-11.1,28.2-11,47
			c-9.5-0.1-23.4-1.7-31,1c-0.4,2-0.9,5.6-2,7c1,3.1,2.1,2.9,3,6h30c0,18.8,5.4,33.8,11,47c18.6,43.7,62.4,86.2,123,87v32
			c-40.9-4.8-65.6-13.5-92-32c-5.9-4.1-12.7-7.3-17-13h-1c4.2,17.6,14.2,38.4,16,57c18.3,8.6,37.1,15.9,59,22
			c30.8,8.6,76.7,2.4,102-6c11.4-3.8,31.9-8.8,39-16c3.1-3.6,2.4-8.8,4-14c2.8-8.9,8.2-35.1,13-41v-2c-6.2,3.2-10.5,9.1-16,13
			c-11.5,8-25.7,15.4-39,21c-10.5,4.4-22.7,6.1-34,9c-5.5,1.4-13.8-0.8-18,2h-2c0.1-9.5,1.7-23.4-1-31c6-2.2,13.9-1,21-3
			c10.4-2.9,21.3-5.8,31-10c39.1-17,81.9-66.3,82-122h30c0.1-0.1,1.6-3.1,3-4C918.7,202.3,918.3,199.6,917,198z M739,306
			c-17.6,0.1-31-5.3-42-12c-5.2-3.2-10.2-4.6-15-8c-20.1-14.3-39.3-44.6-41-77h24c3.7,37.1,34,72.9,74,73V306z M739,122
			c-39.9-0.2-70.4,36.1-74,73h-24c2.4-41.5,30.5-75.6,61-89c7-3,14.6-5,22-7c4.2-1.2,9.9,0.2,13-2h2V122z M793,296
			c-7.7,4.1-17.4,6.5-26,9c-4.2,1.2-9.9-0.2-13,2h-1c0.1-7.5,1.1-18.2-1-24c9.1-3.2,18.7-3.4,27-7c24.5-10.6,43.8-35.2,47-67h24
			C845.7,251,823.4,280.1,793,296z M826,195c-3.4-33-23.4-57.1-49-68c-6-2.6-19.2-2.6-24-6c-0.3-1-0.8-0.4,0-1V97
			c4,1.4,9.4,0.7,14,2c7.3,2.3,14.7,4.7,22,7c32,13.9,56.8,47,61,89H826z M354,168c-0.2-49.1-30.7-89.5-60-110
			c-5.7-4-14.8-9.3-21-12c-4.4-1.9-8.9-2-12-5c-4.5,1.6-4.7,5.5-8,8c-3.8,2.8-8.8,6.2-13,8c-25.5,11-62,1.6-72-16
			c-16.6,3.9-29.1,14.3-41,23c-26.9,19.7-54.3,57.7-54,104H42c-0.3,2.7-0.7,5.4-2,7c0.8,2.7,1.9,3.7,3,6c6.1-0.1,25.6-1.4,29,1
			c2.6,3.7,0.7,9.9,2,15c2.7,10.8,4.8,22.2,9,32c18.4,42.4,64,85.8,124,86v32c-36.9-1.7-64.9-13.6-88-29c-7.1-4.8-16.3-8.9-21-16h-1
			c3.2,12.7,7.9,26.7,12,39c1.8,5.5,0.9,11.9,4,16c2.8,7.6,27.1,13.7,36,17c27.5,10.4,77.8,15.6,111,6c19.8-5.7,37.1-13.1,54-21
			c2.6-11.9,6.4-24.3,10-35c2.4-6.9,1.9-15,6-20v-2c-6.2,3.9-11.1,9.9-17,14c-12.7,8.9-28,15.8-43,22c-8.6,3.6-19.2,4.7-28,7
			c-5.4,1.4-12.9-0.7-17,2c-2.6-0.2-3.4-0.4-5-1c-0.1-6.2-1.5-26.6,1-30c3.8-2.7,9.6-0.6,15-2c11.6-2.9,23.7-5.5,34-10
			c41.1-17.9,83.6-64,84-122h1v-1c10,0.3,27.2,2.4,31-4c1.1-2-0.5-5.4-1-9H354z M207,279c-45.6-4.7-76-29.8-91-65
			c-2.9-6.8-4.1-14.9-6-22c-0.8-2.9,0.3-5.2-1-7c0.3-2.3,0.4-2.5,1-4h23c3.1,29.7,21.8,55.8,44,66c7,2.3,14,4.7,21,7
			c2.8,0.8,5.2-0.3,7,1h2V279z M207,94c-40.1,1.1-70.3,35.8-74,74h-24c2.8-51.1,45.5-97.3,98-98V94z M314,205
			c-14.3,43-44.1,65.1-93,74v-1h-1v-23c43.7-8,66-30.2,74-74c7.5-0.1,18.2-1.1,24,1C316.7,189.7,315.3,197.3,314,205z M294,168
			c-3.9-38.4-33.6-71.9-73-74v-1h-1c-0.1-7.3-1-17.4,1-23c51.6,1.4,94.3,47.2,97,98H294z M247,416c-8,0.3-16,0.7-24,1
			c-5.1,1.2-14.9,1.2-20,0h-14c-6.5-1.5-13.9-1.1-21-3c-9-2.4-18.7-3.9-28-7c-5.8-2-11.8-5.5-18-7c2.8,12.7,6.8,26.8,7,41
			c8,2.3,16,4.7,24,7c27.7,8,81.9,8.4,110,1c10.1-2.7,26.4-2.4,33-8h2c0.3-7.2,4.2-35.2,7-39v-2c-8.3,2-17.1,6.4-25,9
			C269.4,412.5,257.7,413.3,247,416z M769,445h-15c-4.4,1-12.6,1-17,0h-15c-6.5-1.5-13.9-1.1-21-3c-6.8-1.8-14.7-2.6-22-5
			c-7.9-2.6-16.6-6.9-25-9c2.7,12.7,6.8,26.9,7,41c8,2.3,16,4.7,24,7c27.7,8,81.9,8.4,110,1c10-2.6,26.4-2.4,33-8h2
			c0.3-7,4.3-35.3,7-39v-2c-9.7,3.3-19.3,6.7-29,10C795,440.3,782,442.7,769,445z M626,599c-3.7-3.3-7.3-6.7-11-10
			c-4.6-6.3-10-12.6-14-19c-3-4.7-4.2-10.3-8-14c-0.6-1.8-0.1-0.9-1-2c-15.8,34-44.1,59-75,78c-8.9,5.4-22.1,10.3-32,14
			c-4.1,1.6-7.9,0.7-11,3h-2l9,27c3.1,2,27.8-8.9,32-11c5.2-2.6,10.2-3.1,15-6c12.3-7.6,24.5-15.5,36-24c6.3-4.6,16.7-15.1,22-21
			c2.3-2.6,2.9-5.1,6-7v-1h1c3.3,6.7,10.2,12.7,16,17c3,3.3,6,6.7,9,10c16.2,12,33.6,24.5,53,33c10.7,3.7,21.3,7.3,32,11
			c2.3-0.2,2.8-0.1,4-1c3.4-3.9,6.5-20.2,7-27c-13.1-1-24.1-7.7-34-12C657.7,627.2,641.9,614.9,626,599z M172,628
			c-3.7-3.3-7.3-6.7-11-10c-4.6-6.3-10-12.6-14-19c-3-4.7-4.2-10.3-8-14c-0.6-1.8-0.1-0.9-1-2c-15.7,34-44.1,59-75,78
			c-8.9,5.4-22.1,10.3-32,14c-4.1,1.6-7.9,0.7-11,3h-2l9,27c3.1,2,27.8-8.9,32-11c5.2-2.6,10.2-3.1,15-6c12.3-7.6,24.5-15.5,36-24
			c2-2.3,4-4.7,6-7c5.4-4,12-8.6,16-14c2.2-3,2.8-5,6-7v-1h1c3.3,6.6,10.3,12.7,16,17c3,3.3,6,6.7,9,10c16.2,12,33.6,24.5,53,33
			c10.7,3.7,21.3,7.3,32,11c2.3-0.2,2.8-0.1,4-1c3.4-3.9,6.5-20.2,7-27c-13.1-1-24.1-7.7-34-12C203.7,656.2,187.9,643.9,172,628z
			 M607,664c-4.8-3.5-10.4-6.3-14-11c-7.9,2.7-13.5,11.5-20,16c-17,11.9-34.6,20.2-55,29c-8,3.4-17.4,8.8-28,9
			c3.2,7.5,8.6,21.2,9,30c19.2-2.6,41.9-13.3,56-22c5-3.1,10.1-4,15-7c7.1-4.4,14.6-12.6,23-15c5.7,6.3,14.6,9.4,22,14
			c10.7,6.7,22.9,13.7,35,19c4,1.7,6.9,1.3,11,3c8.2,3.4,18.2,8.6,29,9c1.4-10.5,6-19,8-29c-12.2-5-25.1-6.8-37-12
			C640.9,688.2,623.5,676.1,607,664z"/>
	</g>
</g>
</svg>
