<?xml version="1.0" encoding="utf-8"?>
<!-- Generator: Adobe Illustrator 19.0.0, SVG Export Plug-In . SVG Version: 6.00 Build 0)  -->
<svg version="1.1" id="Layer_1" xmlns="http://www.w3.org/2000/svg" xmlns:xlink="http://www.w3.org/1999/xlink" x="0px" y="0px"
	 viewBox="0 0 1024 1024" style="enable-background:new 0 0 1024 1024;" xml:space="preserve">
<style type="text/css">
	.st0{fill-rule:evenodd;clip-rule:evenodd;fill:#020202;}
</style>
<path class="st0" d="M296,43c180,0,360,0,540,0c0,17.7,0,35.3,0,53c-180,0-360,0-540,0C296,78.3,296,60.7,296,43z"/>
<path class="st0" d="M146,1009c-1-11-1.5-24.6-4-35c0-3.7,0-7.3,0-11c-1.4-5.9-1.6-15-3-21c-3.2-13.3-1-28.5-4-41
	c-1.3-17-2.7-34-4-51c-5.6-22.5-7.1-47.3-13-69c-1.7-6.3-0.3-10.7-2-17c-3.6-13-5.5-29-9-42c-0.7-5.3-1.3-10.7-2-16
	c-6-21-8-45.3-14-66c-2.8-9.5-2-18-5-27c-12.5-36.9-23.5-76.1-36-113c-3.6-10.5-4.4-19.5-8-30c-5.1-15-10.9-32-16-47
	c-2.5-7.3-2.5-12.7-5-20c-4.3-12.6-9.8-26.4-13-40c1.7,0,3.3,0,5,0c1.9,1.3,5.7,1,9,1c15.7,0,22.5-8,28-18c4.8-8.7,4.8-15.9,8-27
	c9-31.6,8.1-67.5,8-107c0.7,0,1.3,0,2,0c5.8-3.9,16.4-1.1,24-3c17.5-4.4,38.5-3.7,56-8c5.3-0.3,10.7-0.7,16-1
	c27.8-6.9,60.2-5.1,88-12c8-0.7,16-1.3,24-2c14.9-3.7,33.1-3.3,48-7c5.3-0.3,10.7-0.7,16-1c9.4-2.3,21.6-2.7,31-5c2.7,0,5.3,0,8,0
	c8.9-2.2,19.9-3.7,30-4c0,0.7,0,1.3,0,2c2.4,3.6,0.7,9,2,14c2.7,10.5,3.3,23.5,6,34c0,2.3,0,4.7,0,7c3.1,12.1,2.6,26.1,6,39
	c9.4,35.4,19.2,74.9,49,90c13.1,6.6,25.3-4.9,37-3c0,1.3,0,2.7,0,4c-5.4,6.9-7.7,31.6-11,42c-7.9,24.7-12.8,52.5-21,77
	c-3.1,9.4-2.9,17.7-6,27c-13.8,40.9-21.4,85-34,128c-0.7,5-1.3,10-2,15c-5.2,18.4-7,40.5-12,59c-0.3,4-0.7,8-1,12
	c-3,11.1-4.1,24.9-7,36c0,2.3,0,4.7,0,7c-6.7,36-13.3,72-20,108c-5.7,47.7-11.3,95.3-17,143c-54.3,0-108.7,0-163,0
	c-3.4-2.4-13.7-1-19-1C179.3,1009,162.7,1009,146,1009z"/>
<path class="st0" d="M876,1009c-77.3,0.3-154.7,0.7-232,1c0-0.7,0-1.3,0-2c-2.8-4.2-0.6-11.3-2-17c-2.6-10.4-1.2-22.8-4-34
	c-1.9-7.6-0.9-16.7-3-25c-7.1-28.3-5.4-62-13-89c-0.3-3.7-0.7-7.3-1-11c-5.2-19-6.9-41.5-12-61c-0.7-6.3-1.3-12.7-2-19
	c-2.9-11.1-4.1-24.9-7-36c-0.3-4-0.7-8-1-12c-10.4-38.3-12.9-80.3-24-118c-11.2-37.8-19.7-76.9-32-114c-5.2-15.7-6-31.3-11-47
	c-2.7-8.5-5.3-18.5-8-27c-0.7-4-1.3-8-2-12c-3.4-10.1-8-22.4-9-34c0.7,0,1.3,0,2,0c4.5-2.9,15.4,3.7,20,5c9,2.5,18.5-3.8,23-7
	c42.1-29.8,42.7-119.5,55-181c2,0,4,0,6,0c5.8,3.9,16.4,1.1,24,3c17.2,4.3,37.8,3.7,55,8c5.3,0.3,10.7,0.7,16,1
	c14.9,3.7,33.1,3.3,48,7c5.3,0.3,10.7,0.7,16,1c12.3,3.1,27.7,3,40,6c2.7,0,5.3,0,8,0c9.8,2.4,21.4,1.4,32,4
	c31.1,7.7,66.3,6.7,98,13c0,10.7,0,21.3,0,32c-1.8,2.4-1.2,9.9-1,14c0.5,10.1,1.7,22.9,4,32c0.3,4.3,0.7,8.7,1,13
	c6.6,24.7,7.7,53.4,31,61c7.7-0.3,15.3-0.7,23-1c0,0.7,0,1.3,0,2c-2.3,2.9-1.6,5.8-3,10c-3.5,10.1-6.2,20.9-10,32
	c-8.5,24.6-16.6,51.3-25,76c-3.6,10.5-4.4,19.5-8,30c-12.5,36.5-23.9,74.4-35,112c-13.7,72.3-27.3,144.7-41,217
	C886.7,897.7,881.3,953.3,876,1009z"/>
</svg>
