<?xml version="1.0" encoding="utf-8"?>
<!-- Generator: Adobe Illustrator 19.0.0, SVG Export Plug-In . SVG Version: 6.00 Build 0)  -->
<svg version="1.1" id="Layer_1" xmlns="http://www.w3.org/2000/svg" xmlns:xlink="http://www.w3.org/1999/xlink" x="0px" y="0px"
	 viewBox="0 0 1024 1024" style="enable-background:new 0 0 1024 1024;" xml:space="preserve">
<style type="text/css">
	.st0{fill-rule:evenodd;clip-rule:evenodd;fill:#0B0B0B;}
</style>
<path class="st0" d="M317,180c2.7,0,5.3,0,8,0c0,0.7,0,1.3,0,2c-4.2,6.2-2.7,22.5-5,31c-4.8,17.8-6.2,38.5-11,56c-1,7.3-2,14.7-3,22
	c-8.4,30.6-10.7,65.1-19,96c-1.7,12.3-3.3,24.7-5,37c-4.4,17-8.5,51-4,69c0,2.7,0,5.3,0,8c9.2,34.8,18.5,64.4,35,91c0.7,2,1.3,4,2,6
	c11.6,18.8,24.1,37.3,37,55c8.8,12.1,19.9,22.8,29,35c3.3,3,6.7,6,10,9c4.9,6.6,10.3,12.3,16,18c3.9,3.9,9.8,6.6,11,13
	c-3.1,4.5-1.4,12-3,18c-4.1,15.6-7.6,34.4-8,52c-0.7,0-1.3,0-2,0c-4.1-4.6-9.9-7.3-15-11c-9.2-6.8-16.6-16.1-26-23
	c-4.7-3.5-8.5-9.2-12-14c-3.5-4.7-8.3-8.1-12-13c-2.3-2-4.7-4-7-6c-4.3-5.7-7.8-11.2-12-17c-1.3-1-2.7-2-4-3c-11-15.4-21-31.8-31-48
	c-11.3-18.3-20.1-42-28-63c-2.1-5.5-5-23.8-9-26c-0.2,5.9-2.6,9.8-4,14c-3,8.9-3.5,16.6-7,25c-3.3,7.9-7.6,17.4-11,25
	c-3,6.7-4,12.3-7,19c-4.3,9.6-10.6,20.2-16,29c-2,3.2-2,6.8-4,10c-11.2,18.2-22.8,36.6-35,54c-1.7,2.5-5.2,4.6-7,7
	c-5.5,7.6-10.5,15.4-17,22c-5.8,5.9-13.5,11-18,18c-1.1-0.9-0.1,0.1-1-1c-3.8-5.4-2-15-4-22c-3.9-14-8.5-33.2-9-49
	c4.1-2.7,6.1-6.1,9-10c3.2-4.3,8.8-7.7,12-12c7.9-10.7,15.2-20.9,23-32c4.9-7,11.4-13.8,16-21c20.2-31.7,36.2-65.8,48-106
	c7.1-24.1,3.8-56.7-2-79c-2.3-9-2-18.1-4-26c-1-9-2-18-3-27c-6.7-25.9-6.3-56.1-13-82c-0.7-7.3-1.3-14.7-2-22
	c-6.4-24.9-5.7-54-12-79c-2.7-10.7-0.6-21.4-4-31c1.7,0,3.3,0,5,0c6.3-4.2,23.2-1.8,32-4c22.4-5.6,48.6-4.5,71-10
	C293.4,181.9,311.3,184.2,317,180z"/>
<path class="st0" d="M697,180c13.5-0.1,28.2,2.1,40,5c36,4.3,72,8.7,108,13c0,0.3,0,0.7,0,1c-4.1,6-1.9,21.6-4,30
	c-4,15.5-4.1,34.5-8,50c-0.7,7.3-1.3,14.7-2,22c-6.3,24.4-5.7,52.8-12,77c-0.7,7-1.3,14-2,21c-4.2,16.5-4.6,36.5-9,53
	c-0.3,4.3-0.7,8.7-1,13c-3.8,15.3-9.9,43.9-5,63c6.8,26.6,13,49.5,23,72c14.8,33.5,38.2,64.7,59,93c6.1,8.3,13.7,15.6,20,24
	c3,2.7,6,5.3,9,8c0,2,0,4,0,6c-3.8,5.4-2,14.8-4,22c-3.6,13.5-4.1,30.6-9,44c-0.3,0-0.7,0-1,0c0-0.3,0-0.7,0-1
	c-12.5-8.3-26-26.6-35-39c-5.8-8-13.3-15.9-19-24c-5.9-8.3-9.5-17.2-15-26c-11.4-18.2-23-38.5-32-59c-7.6-17.2-13.4-35.3-20-53
	c-1.9-5.2-3-18.8-7-21c-0.2,6.6-3.1,12.1-5,17c-1.7,6-3.3,12-5,18c-2.5,6-6.4,13.2-9,19c-13.6,30.7-28.6,57.3-47,83
	c-6.9,9.7-15.8,18.3-23,28c-4,3.7-8,7.3-12,11c-9.3,12.4-21.5,22.8-34,32c-6.6,4.9-12.1,13.7-21,16c0-7.5-1.5-14.2-3-20
	c-0.7-6.7-1.3-13.3-2-20c-2.6-10.1-4.6-22.1-6-33c5.5-3.6,9.4-9.4,14-14c12.4-12.4,24.4-24.7,35-39c4.9-6.6,12.2-12.3,17-19
	c20.1-27.5,40.7-57.4,55-90c9.7-22,13.6-44.1,20-70c1.8-7.5,0.7-29.1-1-36c-0.3-6.3-0.7-12.7-1-19c-3.6-14.2-4.3-31.2-8-45
	c-0.3-4-0.7-8-1-12c-3.7-13.5-4.1-28.7-8-43C712.3,287.8,707.6,232.7,697,180z"/>
<path class="st0" d="M378,1010c-77.3-0.3-154.7-0.7-232-1c-4.7-49-9.3-98-14-147c10.6-3.4,20.7-16.8,29-23
	c18.6-13.8,34.3-32.3,48-51c4.7-6.4,11.4-12.4,16-19c6.6-9.4,13-19.4,19-29c2.4-3.9,2.8-9,7-11c1.5,4.8,5.4,7.4,8,11
	c5.4,7.6,10.5,14.5,16,22c1.7,1.3,3.3,2.7,5,4c11.7,15.9,28.2,33.3,44,45c4.7,3.5,8.3,9.5,13,13c18.8,13.9,37.3,29.4,59,40
	c-4.9,14.8-3.3,34-7,49c0,3,0,6,0,9c-2.5,10-1.3,22.1-4,33C380.9,971.5,379,994.8,378,1010z"/>
<path class="st0" d="M876,1009c-77.3,0.3-154.7,0.7-232,1c-1.4-32.7-9.5-72.1-13-107c-0.7-7.1-5.6-36.4-4-39c2.6-2.7,5.6-2.9,9-5
	c5.1-3.1,10.1-7.7,15-11c2.7-1.8,5.3-2.1,8-4c20-14,38-31,55-48c6.7-6.3,13.3-12.7,20-19c8.1-10.9,18.2-20.2,26-31
	c3.8-5.2,7-14.3,13-17c2.8,11.3,15.7,26.1,22,35c18,25.8,37.2,48.2,59,70c6.1,6.1,13,10.9,20,16c1,1.3,2,2.7,3,4
	c5.7,4.1,12.5,4.4,13,14c-4.2,6.1-1.7,31.4-4,41c-2.2,9.2-1.8,21.8-4,31c0,3.7,0,7.3,0,11c-1.5,6.1-0.3,14-2,21
	C877.4,982.8,876.5,997.2,876,1009z"/>
</svg>
