<?xml version="1.0" encoding="utf-8"?>
<!-- Generator: Adobe Illustrator 19.0.0, SVG Export Plug-In . SVG Version: 6.00 Build 0)  -->
<svg version="1.1" id="Layer_1" xmlns="http://www.w3.org/2000/svg" xmlns:xlink="http://www.w3.org/1999/xlink" x="0px" y="0px"
	 viewBox="0 0 1024 1024" style="enable-background:new 0 0 1024 1024;" xml:space="preserve">
<style type="text/css">
	.st0{fill-rule:evenodd;clip-rule:evenodd;fill:#942221;}
</style>
<g>
	<g>
		<path class="st0" d="M269.4,217.4c-0.2-0.7-0.2-1.4-0.6-2c0.1-0.3-0.3-1.1-0.5-1.4c-0.3-0.7-0.6-1.3-0.9-1.8
			c-0.1-0.2,0-0.3-0.1-0.5c-0.4-0.5-0.9-1.2-1.3-1.7c-3.3-4.7-9.7-8.7-18.2-8.5c-0.2,0.1-0.7,0-1,0.1c-0.5,0.1-1.1,0.1-1.6,0.2
			c-1.3,0.3-2.7,0.6-3.9,1.1c-0.3,0.1-0.6,0.1-1,0.3c-5.3,2.5-9.3,6-11.5,11.3c-0.5,1.2-0.7,2.6-1.1,3.9c0,0.7-0.1,1.4-0.1,2
			c-0.4,1.5,0.2,4.4,0.6,5.5c0.2,0.6,0.2,1.2,0.4,1.8c1.1,2.6,2.5,5.1,4.3,7h0.1c0.1,0.1,0.1,0.2,0.1,0.3h0.1v0.1h0.1
			c0.2,0.2,0.3,0.5,0.6,0.7h0.1v0.1h0.1v0.1h0.1v0.1c0.1,0.1,0.4,0.2,0.5,0.3c0.5,0.4,1,0.9,1.6,1.3c0.2,0.1,0.4,0.1,0.6,0.3v0.1
			c0,0,0.2,0.1,0.2,0.1h0.2c0.3,0.2,0.7,0.5,1,0.7c0.4,0.2,0.7,0.2,1.1,0.4c1.4,0.7,3,1.1,4.7,1.6h0.6c0.2,0.1,0.8,0.2,1.1,0.3h0.8
			c0.5,0.1,2.5,0.3,3.2,0.1c0.4-0.1,1,0,1.5-0.1c1.4-0.3,2.9-0.5,4.2-0.9c6.3-2.3,9.8-5.7,12.7-11.1c0.3-0.6,0.3-1.1,0.6-1.8
			C269.8,224.7,270.3,220.5,269.4,217.4z M267.8,223.3c0,0.4-0.1,0.9-0.1,1.3c-0.4,1.4-0.7,2.7-1.3,3.9c-2.2,4.6-6.1,8-11.3,9.9
			c-1.3,0.5-2.8,0.6-4.3,0.9h-1c-0.6,0.1-1.8,0.1-2.4,0c-0.7-0.2-1.3,0-2-0.1c-1.5-0.4-2.8-0.7-4.1-1.2c-0.4-0.2-0.8-0.2-1.2-0.4
			c-4.1-2-7.4-5-9.2-9.1c-0.4-0.8-0.5-1.6-0.8-2.5c-0.4-1.2-1.1-4.3-0.6-6c0-0.4,0-0.8,0.1-1.2c0.3-1.2,0.5-2.6,1-3.7
			c2.1-4.7,5.4-8.3,10.3-10.3c1.2-0.5,2.6-0.8,3.9-1.2c0.6-0.2,1.2-0.1,1.8-0.3c0.3-0.1,0.8,0.1,1-0.1c2.4,0,4.5,0,6.3,0.6
			c5.9,1.7,10.2,5.2,12.6,10.3c0.3,0.7,0.4,1.3,0.7,2C267.7,217.7,268.4,221.2,267.8,223.3z M251.9,223.9c0.3,0,0.9,0.1,1.1-0.1
			c0.3-0.1,0.2-0.2,0.4-0.4c0-0.5-0.1-0.7-0.3-1c-0.7-0.2-1.8-0.1-2.7-0.1h-4.1c-0.9,0-2.1,0.1-2.7-0.1c-0.7-0.3-1.2-1-1.5-1.7v-0.5
			c-0.1-0.3-0.1-0.7,0-1c0.1-0.4,0.3-0.8,0.6-1.1c0.2-0.3,0.8-0.6,1.3-0.7c0.9-0.2,2.7,0.3,3.3-0.2c0.9-0.3,0.6-1.9,0.6-3v-9
			c-3.4,0.1-5.8,1.2-8.1,2.4c-3.3,1.7-5.7,4.5-7.3,7.8c-0.2,0.5-0.3,1-0.5,1.5c-0.6,1.8-1.2,4.8-0.6,7.1v0.5
			c0.1,0.3,0.2,0.7,0.3,0.9c0,0.2,0,0.4,0.1,0.5c0.1,0.2,0.3,0.2,0.5,0.3v0.1c0.1,0.1,0.2,0.1,0.4,0.1c0.4,0.3,0.8,0.7,1.3,0.9h0.2
			c0.1,0,0.2,0.2,0.3,0.3h0.2c1,0.5,2.1,1,3.3,1.4c1,0.3,2,0.5,3,0.8c1.1,0.2,2.2,0.4,3.4,0.5h0.8c0.8,0.2,1.8,0.2,2.7,0.2
			c0-2.5-0.5-5.7,1.5-6.4C249.9,223.8,251,223.9,251.9,223.9z M241.1,220.8c-0.3,0.7-0.8,1.2-1.6,1.4h-5.9c0-0.6-0.1-1.4,0.1-1.8
			h5.2c0.2-0.1,0.3-0.4,0.4-0.5c0-0.3,0-0.5-0.1-0.7c-0.1-0.3-0.7-0.5-1-0.3h-3.1c-0.5,0-1.1,0.1-1.5-0.1V217h5.2
			c0.6-0.6,0.6-0.8,0.1-1.5c-1.7,0-3.5-0.1-5.3-0.1v-1.8h4.3c0.7,0,1.6-0.1,2,0.1c0.6,0.3,0.9,0.8,1.2,1.3c0.4,0.8,0.4,2.2-0.2,2.8
			c0,0.5,0.4,0.9,0.5,1.3C241.5,219.8,241.2,220.5,241.1,220.8z M265.7,217.1c-0.1-0.2-0.4-0.3-0.6-0.5c-0.5-0.3-1-0.8-1.5-1.1
			c-0.2-0.1-0.4-0.1-0.7-0.3c-0.5-0.2-1-0.6-1.5-0.8c-0.2-0.1-0.3,0-0.6-0.1c-1.3-0.5-2.8-0.9-4.3-1.3c-1.1-0.2-2.2-0.4-3.4-0.5
			h-0.8c-0.7-0.2-1.8-0.2-2.7-0.2c0,2.7,0.6,5.9-1.7,6.5c-0.8,0-1.7,0-2.5,0.1c-0.3,0-0.9-0.1-1.1,0.1c-0.3,0.1-0.2,0.2-0.4,0.4
			c0,0.5,0.1,0.7,0.3,1c0.6,0.2,1.6,0.1,2.4,0.1h4.9c0.9,0,1.9-0.1,2.5,0.2c1.2,0.6,1.8,3,0.8,4.2c-0.3,0.3-0.8,0.7-1.3,0.8h-0.8
			c-1,0-2.5-0.2-2.9,0.4c-0.5,0.6-0.3,2.3-0.3,3.4v8.3c7-0.5,11.4-3.9,14.3-8.3c0.1-0.2,0.1-0.3,0.2-0.5c0.5-0.9,0.9-1.8,1.3-2.9
			c0.6-1.8,1.1-4.8,0.6-7.1C265.9,218.4,265.9,217.6,265.7,217.1z"/>
	</g>
</g>
<g>
	<g>
		<path class="st0" d="M794.2,216.9c-0.2-0.7-0.2-1.4-0.6-2c0.1-0.3-0.3-1.1-0.5-1.4c-0.3-0.7-0.6-1.3-0.9-1.8
			c-0.1-0.2,0-0.3-0.1-0.5c-0.4-0.5-0.9-1.2-1.3-1.7c-3.3-4.7-9.7-8.7-18.2-8.5c-0.2,0.1-0.7,0-1,0.1c-0.5,0.1-1.1,0.1-1.6,0.2
			c-1.3,0.3-2.7,0.6-3.9,1.1c-0.3,0.1-0.6,0.1-1,0.3c-5.3,2.5-9.3,6-11.5,11.3c-0.5,1.2-0.7,2.6-1.1,3.9c0,0.7-0.1,1.4-0.1,2
			c-0.4,1.5,0.2,4.4,0.6,5.5c0.2,0.6,0.2,1.2,0.4,1.8c1.1,2.6,2.5,5.1,4.3,7h0.1c0.1,0.1,0.1,0.2,0.1,0.3h0.1v0.1h0.1
			c0.2,0.2,0.3,0.5,0.6,0.7h0.1v0.1h0.1v0.1h0.1v0.1c0.1,0.1,0.4,0.2,0.5,0.3c0.5,0.4,1,0.9,1.6,1.3c0.2,0.1,0.4,0.1,0.6,0.3v0.1
			c0,0,0.2,0.1,0.2,0.1h0.2c0.3,0.2,0.7,0.5,1,0.7c0.4,0.2,0.7,0.2,1.1,0.4c1.4,0.7,3,1.1,4.7,1.6h0.6c0.2,0.1,0.8,0.2,1.1,0.3h0.8
			c0.5,0.1,2.5,0.3,3.2,0.1c0.4-0.1,1,0,1.5-0.1c1.4-0.3,2.9-0.5,4.2-0.9c6.3-2.3,9.8-5.7,12.7-11.1c0.3-0.6,0.3-1.1,0.6-1.8
			C794.6,224.1,795.1,219.9,794.2,216.9z M792.7,222.8c0,0.4-0.1,0.9-0.1,1.3c-0.4,1.4-0.7,2.7-1.3,3.9c-2.2,4.6-6.1,8-11.3,9.9
			c-1.3,0.5-2.8,0.6-4.3,0.9h-1c-0.6,0.1-1.8,0.1-2.4,0c-0.7-0.2-1.3,0-2-0.1c-1.5-0.4-2.8-0.7-4.1-1.2c-0.4-0.2-0.8-0.2-1.2-0.4
			c-4.1-2-7.4-5-9.2-9.1c-0.4-0.8-0.5-1.6-0.8-2.5c-0.4-1.2-1.1-4.3-0.6-6c0-0.4,0-0.8,0.1-1.2c0.3-1.2,0.5-2.6,1-3.7
			c2.1-4.7,5.4-8.3,10.3-10.3c1.2-0.5,2.6-0.8,3.9-1.2c0.6-0.2,1.2-0.1,1.8-0.3c0.3-0.1,0.8,0.1,1-0.1c2.4,0,4.5,0,6.3,0.6
			c5.9,1.7,10.2,5.2,12.6,10.3c0.3,0.7,0.4,1.3,0.7,2C792.6,217.2,793.2,220.6,792.7,222.8z M776.7,223.3c0.3,0,0.9,0.1,1.1-0.1
			c0.3-0.1,0.2-0.2,0.4-0.4c0-0.5-0.1-0.7-0.3-1c-0.7-0.2-1.8-0.1-2.7-0.1h-4.1c-0.9,0-2.1,0.1-2.7-0.1c-0.7-0.3-1.2-1-1.5-1.7v-0.5
			c-0.1-0.3-0.1-0.7,0-1c0.1-0.4,0.3-0.8,0.6-1.1c0.2-0.3,0.8-0.6,1.3-0.7c0.9-0.2,2.7,0.3,3.3-0.2c0.9-0.3,0.6-1.9,0.6-3v-9
			c-3.4,0.1-5.8,1.2-8.1,2.4c-3.3,1.7-5.7,4.5-7.3,7.8c-0.2,0.5-0.3,1-0.5,1.5c-0.6,1.8-1.2,4.8-0.6,7.1v0.5
			c0.1,0.3,0.2,0.7,0.3,0.9c0,0.2,0,0.4,0.1,0.5c0.1,0.2,0.3,0.2,0.5,0.3v0.1c0.1,0.1,0.2,0.1,0.4,0.1c0.4,0.3,0.8,0.7,1.3,0.9h0.2
			c0.1,0,0.2,0.2,0.3,0.3h0.2c1,0.5,2.1,1,3.3,1.4c1,0.3,2,0.5,3,0.8c1.1,0.2,2.2,0.4,3.4,0.5h0.8c0.8,0.2,1.8,0.2,2.7,0.2
			c0-2.5-0.5-5.7,1.5-6.4C774.7,223.2,775.8,223.3,776.7,223.3z M765.9,220.3c-0.3,0.7-0.8,1.2-1.6,1.4h-5.9c0-0.6-0.1-1.4,0.1-1.8
			h5.2c0.2-0.1,0.3-0.4,0.4-0.5c0-0.3,0-0.5-0.1-0.7c-0.1-0.3-0.7-0.5-1-0.3h-3.1c-0.5,0-1.1,0.1-1.5-0.1v-1.9h5.2
			c0.6-0.6,0.6-0.8,0.1-1.5c-1.7,0-3.5-0.1-5.3-0.1V213h4.3c0.7,0,1.6-0.1,2,0.1c0.6,0.3,0.9,0.8,1.2,1.3c0.4,0.8,0.4,2.2-0.2,2.8
			c0,0.5,0.4,0.9,0.5,1.3C766.4,219.2,766.1,219.9,765.9,220.3z M790.5,216.5c-0.1-0.2-0.4-0.3-0.6-0.5c-0.5-0.3-1-0.8-1.5-1.1
			c-0.2-0.1-0.4-0.1-0.7-0.3c-0.5-0.2-1-0.6-1.5-0.8c-0.2-0.1-0.3,0-0.6-0.1c-1.3-0.5-2.8-0.9-4.3-1.3c-1.1-0.2-2.2-0.4-3.4-0.5
			h-0.8c-0.7-0.2-1.8-0.2-2.7-0.2c0,2.7,0.6,5.9-1.7,6.5c-0.8,0-1.7,0-2.5,0.1c-0.3,0-0.9-0.1-1.1,0.1c-0.3,0.1-0.2,0.2-0.4,0.4
			c0,0.5,0.1,0.7,0.3,1c0.6,0.2,1.6,0.1,2.4,0.1h4.9c0.9,0,1.9-0.1,2.5,0.2c1.2,0.6,1.8,3,0.8,4.2c-0.3,0.3-0.8,0.7-1.3,0.8h-0.8
			c-1,0-2.5-0.2-2.9,0.4c-0.5,0.6-0.3,2.3-0.3,3.4v8.3c7-0.5,11.4-3.9,14.3-8.3c0.1-0.2,0.1-0.3,0.2-0.5c0.5-0.9,0.9-1.8,1.3-2.9
			c0.6-1.8,1.1-4.8,0.6-7.1C790.7,217.8,790.8,217,790.5,216.5z"/>
	</g>
</g>
</svg>
