<?xml version="1.0" encoding="utf-8"?>
<!-- Generator: Adobe Illustrator 19.0.0, SVG Export Plug-In . SVG Version: 6.00 Build 0)  -->
<svg version="1.1" id="Layer_1" xmlns="http://www.w3.org/2000/svg" xmlns:xlink="http://www.w3.org/1999/xlink" x="0px" y="0px"
	 viewBox="0 0 1024 1024" style="enable-background:new 0 0 1024 1024;" xml:space="preserve">
<style type="text/css">
	.st0{fill-rule:evenodd;clip-rule:evenodd;}
</style>
<path class="st0" d="M297,523c-48.7,0-97.3,0-146,0c-0.6-1.5-0.7-1.7-1-4c1-1.4,1.2-28.4,0-33c-2-8.2,0.2-19.2-2-28
	c-5.5-21.8-4.4-46.9-10-69c-0.3-5.7-0.7-11.3-1-17c-6.8-24.6-12-52.1-20-75c-0.7-3.3-1.3-6.7-2-10c-5.6-12.9-13.7-27.2-21-39
	c-5.1-8.3-6.9-17.7-12-26c-2.9-4.6-5-10.2-8-15c-1.4-2.2-5-5.7-6-8c-0.3-5.3-0.7-10.7-1-16c-1.3-3.9-6-8.8-7-13
	c-0.9-3.8,3-10.3,4-13c0.7-3.3,1.3-6.7,2-10c2.5-7.3,6.7-15.6,10-22c3.9-7.6,4.7-15,9-22c17.5-28.4,33.6-58.4,60-78
	c6.6-4.9,11.5-14.3,20-17c2.2,1.8,5.9,2.1,8,4c3.4,3.6,3.1,9.8,5,15c3.1,8.3,7.1,19.1,13,25c2.9,2.9,11.1,8.4,15,10
	c5,0.7,10,1.3,15,2c27.4,0.5,39.3-13.2,47-32c1.7-7,3.3-14,5-21c1.2-2.2,4.5-3.7,6-6c1.9,0.6,0.9,0.1,2,1c12.1,3.6,24,18.6,31,28
	c3,2.7,6,5.3,9,8c0,0.7,0,1.3,0,2c2.3,3.1,5.4,5.4,8,9c2.3,2,4.7,4,7,6c14.5,21.1,26.2,43.3,37,68c2.9,6.8,7.5,14.7,10,22
	c1.7,5,0.6,8.5,2,14c0.5,2.2,2.5,10.4,1,14c-1.1,2.6-5,6.1-6,9c-0.3,4.3-0.7,8.7-1,13c-1.5,4-5.8,7.6-8,11c-3,4.7-4,9.2-7,14
	c-1.8,2.9-5.2,6.1-7,9c-3.3,5.5-4.4,12-7,18c-6.5,14.8-15.6,30-21,46c-0.7,4-1.3,8-2,12c-11,29.7-14.8,64.3-23,97
	c-0.7,12.3-1.3,24.7-2,37c0,4.7,0,9.3,0,14c-0.9,3.7,0.2,11.1-1,16C297.4,487.7,298.7,507.6,297,523z"/>
<path class="st0" d="M849,570c-50-0.3-100-0.7-150-1c0.3-23,0.6-47.4-3-67c0.3-2.3,0.7-4.7,1-7c-0.6-4.8-0.8-15.3-2-20c0-4,0-8,0-12
	c-2.6-10.4-2.4-23.6-5-34c-0.3-5.7-0.7-11.3-1-17c-3.3-12-6.3-27.2-10-39c-1.7-8-3.3-16-5-24c-1.2-3.6-3.8-8.6-5-12
	c-0.7-3.3-1.3-6.7-2-10c-5.6-12.9-13.7-27.2-21-39c-1.6-2.6-1.6-5.2-3-8c-3.3-6.2-7.4-13.2-11-19c-2.8-4.5-3.2-9.5-6-14
	c-1.4-2.2-5-5.7-6-8c-0.3-5.3-0.7-10.7-1-16c-1.4-4.1-8.2-10.1-7-16c1-4.8,4.4-11.5,6-16c2.9-8.6,3.5-15.1,7-23
	c8.9-20,20.8-38.3,32-56c7.9-12.4,16.6-29.5,28-38c9.5-7,17.5-14.9,27-22c1.3-1.7,2.7-3.3,4-5c6.7-5,15.4-8.9,21-15
	c13.1,5.3,28.2,8,47,8c3.7,0,7.3,0,11,0c7-1.8,12.6-5.6,21-6c7.9,8,21.6,13.2,31,20c2,1.5,2.4,3.9,4,6c3,2.7,6,5.3,9,8
	c4.8,4.9,8.9,10.5,13,16c4,5.4,11.2,9.5,15,15c20.4,29.7,40,64.6,50,104c2.9,11.5-3.9,16.9-6,23c-0.3,4.3-0.7,8.7-1,13
	c-1.5,4-5.8,7.6-8,11c-0.3,1.3-0.7,2.7-1,4c-3.9,6.1-9.2,12.7-13,19c-3.3,5.5-4.4,12-7,18c-4,9-10,18.9-14,28
	c-4.9,11-8.5,24.3-12,36c-2.4,7.9-1.5,14.2-4,22c-5.4,17.2-9.1,37.9-14,56c-1.9,7-1.4,14.7-3,21c-0.7,19.7-1.3,39.3-2,59
	c-2.1,8.8,0.3,20.4-2,30C849.1,550.7,849.1,561.2,849,570z"/>
<path class="st0" d="M535,536c-60.3,0.3-120.7,0.7-181,1c0.1-8.4,1.2-19.4,3-27c1.8-7.2,0.4-15.6,2-22c0.3-6.7,0.7-13.3,1-20
	c4.9-19.2,5.9-41.8,11-61c1-7.7,2-15.3,3-23c3.4-10.6,8.4-22.5,12-33c7.9-23.1,13.7-46.1,22-68c7.6-20.1,15.7-37.2,25-55
	c3.3-6.2,4-17.6,12-19c3.7,8.2,10.4,15,14,23c3.5,7.9,4.6,15.1,8,23c6.8,15.8,14.3,33.1,21,49c4.6,11,5.1,22.4,9,34
	c8.3,24.4,15.5,51.3,23,76c2.7,23.3,5.3,46.7,8,70C531.8,499.1,533.9,519.8,535,536z"/>
<path class="st0" d="M606,501c8.9,2.4,10.6,10.1,15,17c8.1,12.8,16.2,26.6,25,39c7.2,10.1,18,18.6,28,26c4.7,3.5,8.3,9.5,13,13
	c17.9,13.2,33.8,28,55,38c-15.7,84.7-31.3,169.3-47,254c-5.3,18.7-6.8,40.6-12,59c-0.3,4-0.7,8-1,12c-2,7.7-7.3,25.9-5,33
	c-43.3,0-86.7,0-130,0c0-0.7,0-1.3,0-2c-4.1-6-2.8-19.9-5-28c-5.3-19.3-6.8-42.6-12-62c-1.7-6.3-0.3-10.7-2-17
	c-5.8-21.1-7.3-46-13-67c-0.3-4-0.7-8-1-12c-3.7-13.6-5.3-30.4-9-44c0-2,0-4,0-6c-10.8-39.5-14.7-84.2-23-125
	c10.9-5.4,19.4-15.2,29-22c28.4-20.3,48.7-39.6,69-68c4.3-6.1,11-11.8,15-18c0.3-1.7,0.7-3.3,1-5C598.9,510.9,604.3,507.7,606,501z"
	/>
<path class="st0" d="M204,1013c-43.3,0-86.7,0-130,0c-1.3-16.5-5.7-37.8-10-53c-1-7.7-2-15.3-3-23c-5.2-19.5-6.4-35.9-12-55
	c-3.4-11.6-1.8-23.3-5-35c-6.9-25.3-8.7-54.5-16-80c-2.8-9.7-1.3-18.2-4-28c-3.7-13.5-5.2-29.4-9-43c-0.7-6-1.3-12-2-18
	c-2.1-7.6-4.8-16.5-5-26c34.3-18.6,74.5-35.6,95-68c5-7.9,8.1-17,13-25c1.1-1.7,4.1-4.2,5-6c0.3-2,0.7-4,1-6c1.6-3.8,7.5-15.9,10-19
	c0-0.3,0-0.7,0-1c3.7,0,7.3,0,11,0c2.9,6,7.7,10.7,11,16c3.2,5,3.8,11,7,16c4.7,7.4,12.9,12.2,18,19c6.1,8.3,12.7,14.9,21,21
	c7,7.3,14,14.7,21,22c0.7,0,1.3,0,2,0c1.7,2,3.3,4,5,6c4.3,3.1,8.6,4.9,13,8c3.6,2.5,7.2,6.6,11,9c6.1,3.8,13.3,5.9,18,11
	c-5.3,7.3-3.3,20.2-6,30c-4.6,16.9-6.4,37.1-11,54c-1.7,6.3-0.3,10.7-2,17c-8.1,29.6-10,63.3-18,93c-2.7,9.8-1.3,18.2-4,28
	c-4.2,15.3-5.9,33.7-10,49c-1.7,6.3-0.3,10.7-2,17C211.1,964.8,206.8,989.7,204,1013z"/>
<path class="st0" d="M459,954c-60.3,0.3-120.7,0.7-181,1c0.1-8.4,1.2-19.4,3-27c1.8-7.2,0.4-15.6,2-22c0.3-6.7,0.7-13.3,1-20
	c4.9-19.2,5.9-41.8,11-61c1-7.7,2-15.3,3-23c3.4-10.6,8.4-22.5,12-33c7.9-23.1,13.7-46.1,22-68c7.6-20.1,15.7-37.2,25-55
	c3.3-6.2,4-17.6,12-19c3.7,8.2,10.4,15,14,23c3.5,7.9,4.6,15.1,8,23c6.8,15.8,14.3,33.1,21,49c4.6,11,5.1,22.4,9,34
	c8.3,24.4,15.5,51.3,23,76c2.7,23.3,5.3,46.7,8,70C455.8,917.1,457.9,937.8,459,954z"/>
</svg>
