<?xml version="1.0" encoding="utf-8"?>
<!-- Generator: Adobe Illustrator 19.0.0, SVG Export Plug-In . SVG Version: 6.00 Build 0)  -->
<svg version="1.1" id="Layer_1" xmlns="http://www.w3.org/2000/svg" xmlns:xlink="http://www.w3.org/1999/xlink" x="0px" y="0px"
	 viewBox="0 0 1024 1024" style="enable-background:new 0 0 1024 1024;" xml:space="preserve">
<style type="text/css">
	.st0{fill-rule:evenodd;clip-rule:evenodd;fill:#070808;}
</style>
<g>
	<g>
		<path class="st0" d="M364,166c-0.2-49.1-30.7-89.5-60-110c-5.7-4-14.8-9.3-21-12c-4.4-1.9-8.9-2-12-5c-4.5,1.6-4.7,5.5-8,8
			c-3.8,2.8-8.8,6.2-13,8c-25.5,11-62,1.6-72-16c-16.6,3.9-29.1,14.3-41,23c-26.9,19.7-54.3,57.7-54,104H52c-0.3,2.7-0.7,5.4-2,7
			c0.8,2.7,1.9,3.7,3,6c6.1-0.1,25.6-1.4,29,1c2.6,3.7,0.7,9.9,2,15c2.7,10.8,4.8,22.2,9,32c18.4,42.4,64,85.8,124,86v32
			c-36.9-1.7-64.9-13.6-88-29c-7.1-4.8-16.3-8.9-21-16h-1c3.2,12.7,7.9,26.7,12,39c1.8,5.5,0.9,11.9,4,16c2.8,7.6,27.1,13.7,36,17
			c27.5,10.4,77.8,15.6,111,6c19.8-5.7,37.1-13.1,54-21c2.6-11.9,6.4-24.3,10-35c2.4-6.9,1.9-15,6-20v-2c-6.2,3.9-11.1,9.9-17,14
			c-12.7,8.9-28,15.8-43,22c-8.6,3.6-19.2,4.7-28,7c-5.4,1.4-12.9-0.7-17,2c-2.6-0.2-3.4-0.4-5-1c-0.1-6.2-1.5-26.6,1-30
			c3.8-2.7,9.6-0.6,15-2c11.6-2.9,23.7-5.5,34-10c41.1-17.9,83.6-64,84-122h1v-1c10,0.3,27.2,2.4,31-4c1.1-2-0.5-5.4-1-9H364z
			 M217,277c-45.6-4.7-76-29.8-91-65c-2.9-6.8-4.1-14.9-6-22c-0.8-2.9,0.3-5.2-1-7c0.3-2.3,0.4-2.5,1-4h23c3.1,29.7,21.8,55.8,44,66
			c7,2.3,14,4.7,21,7c2.8,0.8,5.2-0.3,7,1h2V277z M217,92c-40.1,1.1-70.3,35.8-74,74h-24c2.8-51.1,45.5-97.3,98-98V92z M324,203
			c-14.3,43-44.1,65.1-93,74v-1h-1v-23c43.7-8,66-30.2,74-74c7.5-0.1,18.2-1.1,24,1C326.7,187.7,325.3,195.3,324,203z M304,166
			c-3.9-38.4-33.6-71.9-73-74v-1h-1c-0.1-7.3-1-17.4,1-23c51.6,1.4,94.3,47.2,97,98H304z M946,203c-0.3-1-0.7-2-1-3h-30
			c-0.2-57.4-43.6-105.4-84-123c-9.7-3-19.3-6-29-9c-6.4-1.8-15.2,0.4-20-3c-0.3-1-0.8-0.4,0-1c0.1-7.8,1.1-18.9-1-25h-13v27
			c-50.6,0.3-93.1,33.5-113,65c-4.4,7-6.6,14-10,22c-5.6,13.1-11.1,28.2-11,47c-9.5-0.1-23.4-1.7-31,1c-0.4,2-0.9,5.6-2,7
			c1,3.1,2.1,2.9,3,6h30c0,18.8,5.4,33.8,11,47c18.6,43.7,62.4,86.2,123,87v32c-40.9-4.8-65.6-13.5-92-32c-5.9-4.1-12.7-7.3-17-13
			h-1c4.2,17.6,14.2,38.4,16,57c18.3,8.6,37.1,15.9,59,22c30.8,8.6,76.7,2.4,102-6c11.4-3.8,31.9-8.8,39-16c3.1-3.6,2.4-8.8,4-14
			c2.8-8.9,8.2-35.1,13-41v-2c-6.2,3.2-10.5,9.1-16,13c-11.5,8-25.7,15.4-39,21c-10.5,4.4-22.7,6.1-34,9c-5.5,1.4-13.8-0.8-18,2h-2
			c0.1-9.5,1.7-23.4-1-31c6-2.2,13.9-1,21-3c10.4-2.9,21.3-5.8,31-10c39.1-17,81.9-66.3,82-122h30c0.1-0.1,1.6-3.1,3-4
			C947.7,207.3,947.3,204.6,946,203z M768,311c-17.6,0.1-31-5.3-42-12c-5.2-3.2-10.2-4.6-15-8c-20.1-14.3-39.3-44.6-41-77h24
			c3.7,37.1,34,72.9,74,73V311z M768,127c-39.9-0.2-70.4,36.1-74,73h-24c2.4-41.5,30.5-75.6,61-89c7-3,14.6-5,22-7
			c4.2-1.2,9.9,0.2,13-2h2V127z M822,301c-7.7,4.1-17.4,6.5-26,9c-4.2,1.2-9.9-0.2-13,2h-1c0.1-7.5,1.1-18.2-1-24
			c9.1-3.2,18.7-3.4,27-7c24.5-10.6,43.8-35.2,47-67h24C874.7,256,852.4,285.1,822,301z M855,200c-3.4-33-23.4-57.1-49-68
			c-6-2.6-19.2-2.6-24-6c-0.3-1-0.8-0.4,0-1v-23c4,1.4,9.4,0.7,14,2c7.3,2.3,14.7,4.7,22,7c32,13.9,56.8,47,61,89H855z M257,414
			c-8,0.3-16,0.7-24,1c-5.1,1.2-14.9,1.2-20,0h-14c-6.5-1.5-13.9-1.1-21-3c-9-2.4-18.7-3.9-28-7c-5.8-2-11.8-5.5-18-7
			c2.8,12.7,6.8,26.8,7,41c8,2.3,16,4.7,24,7c27.7,8,81.9,8.4,110,1c10.1-2.7,26.4-2.4,33-8h2c0.3-7.2,4.2-35.2,7-39v-2
			c-8.3,2-17.1,6.4-25,9C279.4,410.5,267.7,411.3,257,414z M798,450h-15c-4.4,1-12.6,1-17,0h-15c-6.5-1.5-13.9-1.1-21-3
			c-6.8-1.8-14.7-2.6-22-5c-7.9-2.6-16.6-6.9-25-9c2.7,12.7,6.8,26.9,7,41c8,2.3,16,4.7,24,7c27.7,8,81.9,8.4,110,1
			c10-2.6,26.4-2.4,33-8h2c0.3-7,4.3-35.3,7-39v-2c-9.7,3.3-19.3,6.7-29,10C824,445.3,811,447.7,798,450z M648,571
			c-5.5-8.7-10.3-19.3-14-29c-1-4.3-2-8.7-3-13c-5.3-8.3-10.7-16.7-16-25h-9c-1.7,0.9-4.7,10.6-6,13c-7.3,13.9-11.4,32-19,46
			c-14.7,27.1-37.4,47.5-65,62c-9,4.7-19.6,11.1-32,12c0.3,12.8,4.4,22.1,5,34c23.8-5.2,46.5-15.7,64-28c0.7-1,1.3-2,2-3
			c3.4-2.4,6.7-3.6,10-6c2-2.3,4-4.7,6-7c4.8-3.5,10.5-7.3,14-12c6.2-8.3,13.5-16.3,19-25c3-4.7,4-10.3,8-14v-1h1
			c2.9,11.4,12.8,20.5,19,29c17.8,24.3,42.9,44.3,72,57c10.3,3.3,20.7,6.7,31,10c2.6-7.1,5.9-25.7,6-34c-18.2-1.1-33.9-12-46-20
			C676.2,604.5,660,590.1,648,571z M173,594c-4.3-9.7-8.7-19.3-13-29c-0.7-3.3-1.3-6.7-2-10c-1.5-3.6-5.1-6.9-7-10
			c-2.9-4.6-3.9-9.5-7-14c-2-2.9-5.9-5-8-8h-3c-1.7,1.3-5.4,10.6-7,13c-1,0.7-2,1.3-3,2v13c-2.4,9.5-5.2,19.2-9,28
			c-14.3,32.9-39.8,56.7-71,73c-9.1,4.8-19.1,11.1-32,12c0.4,12.5,4.9,21.6,5,34c27.1-6,50.3-18.2,70-32c3.3-2.3,5.8-6.6,9-9
			c6.3-4.7,15.4-11.9,20-18c5.6-7.6,12-15.1,17-23c2.6-4.1,3.2-9.2,7-12c0.6-1.8,0.1-0.9,1-2c15.7,34,44.1,59,75,78
			c8.8,5.4,20.2,9.3,30,13c4.4,1.7,9.6,1.4,13,4c2.1-0.4,1.9-0.1,3-1c2.5-3.3,6-26.3,6-32c-16.9-1.9-31.2-11.5-43-19
			C202.9,631.6,186.2,615.2,173,594z M684,684c-19.3-8.5-36.2-22.7-51-36c-6-5.3-17.3-13-20-21h-1c-11.5,18.7-40.8,39.2-60,51
			c-6.7,4.1-13.8,5.4-21,9c-7,3.4-28.9,13.5-37,11c0.7,6.4,2.9,26.8,6,31v2c30.8-6.6,57.9-18.3,81-33c7-4.5,14.1-9.9,21-15
			c3.8-2.8,5.9-7.4,11-9c15,17.1,48.4,35.3,71,45c8.3,3.6,17.9,6.3,26,9c5,1.7,10,0.5,13,4c2.4-1.3,7-27.8,7-33
			c-10.9-0.8-20.6-5.4-29-9C694.8,687.4,690,686.7,684,684z M165,679c-8.4-6.2-19.1-14.6-24-24c-6.5,1.6-20.4,21.1-27,26
			c-10.1,7.5-20.4,15.4-31,22c-9.8,6.1-20.9,9.3-32,14c-8.1,3.5-18.4,8.4-29,9c0.6,16.9,4.9,35,9,50c0.3,4,0.7,8,1,12
			c4.2,15.6,5.8,34.5,10,50c1,7.7,2,15.3,3,23c5.6,21.2,7.2,45.8,13,67c0.3,4,0.7,8,1,12c3.3,12.1,3.5,26,7,39
			c2.6,9.7,5.8,21.8,6,33h1v1h130c1.9-15.1,5.2-31.8,9-46c0.3-3.7,0.7-7.3,1-11c3.8-13.4,5.4-29.6,9-43c1.7-6.3,0.3-10.7,2-17
			c7.4-27.3,9.5-58.7,17-86c1.7-6.3,0.3-10.7,2-17c3.6-13.4,5.2-29.6,9-43c2-7.1,0.3-16.5,4-22v-2c-30-6.4-56.3-19.7-78-35
			C173.4,687.7,169.5,682.3,165,679z M692,755c-17-6.7-36.2-12.7-51-22c-5.7-3.6-12.2-7.1-18-11c-3.2-2.2-5.7-5.8-10-7
			c-2.5-1.1-21.7,13.3-26,16c-16.5,10.2-34.6,15.6-54,23c-7.1,2.7-20.3,7.8-27,7c1.7,12,3.3,24,5,36c16.5-4.8,34.5-8.4,50-15
			c6.3-2.7,13.8-7.3,20-10c10.3-4.6,22.6-8.4,30-16c9.2,1.7,18.1,9.8,26,14c14,7.3,28.3,11,44,17c9.1,3.5,20.9,8,32,9
			c2-10.3,4-20.7,6-31C718.3,758.7,699.6,758,692,755z M633,805c-7.1-3.1-13.8-9.2-22-11c-5.8,6.1-16.8,8.4-25,12
			c-5.8,2.6-13,6.5-19,9c-7.5,3.1-14.1,3.3-22,6c-7.8,2.7-17,6.7-27,7c0.3,13.2,4.4,22.6,5,35c22-4.8,43.5-9.8,63-18
			c7.9-3.3,16.2-9,25-11c2.3-1.1,16,5.1,20,7c14.3,6.7,31.3,11.8,47,17c6.6,2.2,15.8,1.2,21,5h2c2.3-11.1,5.8-23,6-35
			c-11.4-0.6-21.8-4.9-31-8C660.4,814.7,647.2,811.3,633,805z"/>
	</g>
</g>
</svg>
