<?xml version="1.0" encoding="utf-8"?>
<!-- Generator: Adobe Illustrator 19.0.0, SVG Export Plug-In . SVG Version: 6.00 Build 0)  -->
<svg version="1.1" id="Layer_1" xmlns="http://www.w3.org/2000/svg" xmlns:xlink="http://www.w3.org/1999/xlink" x="0px" y="0px"
	 viewBox="0 0 1024 1024" style="enable-background:new 0 0 1024 1024;" xml:space="preserve">
<style type="text/css">
	.st0{fill-rule:evenodd;clip-rule:evenodd;fill:#942221;}
</style>
<g>
	<g>
		<path class="st0" d="M270,138.9c-0.5-1.7-0.5-3.3-1.2-4.6c0.2-0.7-0.7-2.4-1.1-3.2c-0.7-1.5-1.3-2.9-2-4.3
			c-0.2-0.4-0.1-0.8-0.3-1.1c-0.9-1.2-1.9-2.7-2.7-4c-7.3-10.9-21-20.2-39.6-19.8c-0.5,0.3-1.4,0-2.1,0.2c-1.1,0.3-2.4,0.1-3.5,0.5
			c-2.9,0.8-5.9,1.4-8.4,2.4c-0.8,0.3-1.4,0.2-2.1,0.6c-11.5,5.7-20.2,13.9-25,26.2c-1.1,2.9-1.5,6.1-2.4,9.1
			c-0.1,1.6-0.2,3.2-0.3,4.7c-0.9,3.5,0.5,10.1,1.2,12.8c0.4,1.5,0.4,2.7,0.9,4.1c2.3,6,5.4,11.8,9.5,16.2c0.1,0,0.2,0,0.3,0
			c0.2,0.2,0.1,0.5,0.3,0.6c0.1,0,0.2,0,0.3,0c0,0.1,0,0.2,0,0.3c0.1,0,0.2,0,0.3,0c0.4,0.5,0.7,1.1,1.2,1.5c0.1,0,0.2,0,0.3,0
			c0,0.1,0,0.2,0,0.3c0.1,0,0.2,0,0.3,0c0,0.1,0,0.2,0,0.3c0.1,0,0.2,0,0.3,0c0,0.1,0,0.2,0,0.3c0.2,0.2,0.8,0.4,1.1,0.6
			c1.1,1,2.2,2.2,3.5,3c0.4,0.3,0.9,0.3,1.4,0.6c0,0.1,0,0.2,0,0.3c0,0,0.5,0.3,0.5,0.3c0.2,0,0.3,0,0.5,0c0.7,0.4,1.4,1.1,2.1,1.5
			c0.8,0.4,1.5,0.5,2.3,0.9c3,1.6,6.6,2.6,10.2,3.7c0.4,0,0.8,0,1.2,0c0.5,0.2,1.7,0.5,2.3,0.6c0.6,0,1.1,0,1.7,0
			c1.1,0.3,5.4,0.7,6.9,0.3c0.9-0.2,2.2,0,3.2-0.3c3.1-0.8,6.3-1,9.1-2.1c13.7-5.3,21.2-13.2,27.6-25.8c0.7-1.3,0.7-2.7,1.2-4.1
			C270.9,155.8,272,146,270,138.9z M266.6,152.6c-0.1,1-0.2,2-0.3,3c-0.9,3.1-1.5,6.4-2.7,9.1c-4.7,10.8-13.3,18.5-24.5,22.9
			c-2.9,1.1-6.1,1.3-9.3,2.1c-0.7,0-1.4,0-2.1,0c-1.3,0.3-3.9,0.3-5.2,0c-1.6-0.4-2.8,0.1-4.3-0.3c-3.3-0.9-6.1-1.5-9-2.7
			c-0.9-0.4-1.7-0.5-2.6-0.9c-8.9-4.7-16-11.7-20.1-21c-0.8-1.9-1.1-3.7-1.8-5.8c-1-2.9-2.3-10-1.4-14c0.1-1,0.1-1.9,0.2-2.9
			c0.7-2.9,1-5.9,2.1-8.5c4.5-10.8,11.8-19.3,22.4-23.9c2.7-1.2,5.6-1.9,8.5-2.7c1.3-0.4,2.7-0.3,3.8-0.6c0.7-0.2,1.6,0.2,2.1-0.2
			c5.1,0,9.7,0.1,13.7,1.4c12.8,4.1,22.3,12.1,27.4,23.8c0.7,1.6,0.9,3,1.5,4.7C266.4,139.6,267.8,147.7,266.6,152.6z M231.8,153.9
			c0.7,0,2,0.2,2.4-0.2c0.6-0.2,0.5-0.5,0.9-0.9c0-1.2-0.2-1.6-0.6-2.3c-1.6-0.4-3.9-0.3-5.9-0.3c-3,0-6,0-9,0
			c-1.9,0-4.5,0.3-5.9-0.3c-1.5-0.6-2.7-2.3-3.2-4c0-0.4,0-0.8,0-1.2c-0.1-0.6-0.2-1.5,0-2.3c0.2-0.9,0.7-1.9,1.2-2.6
			c0.5-0.7,1.8-1.4,2.7-1.7c2-0.5,5.9,0.7,7.2-0.5c1.9-0.6,1.4-4.4,1.4-6.9c0-7,0-13.9,0-20.9c-7.4,0.3-12.6,2.8-17.5,5.5
			c-7.2,4-12.5,10.4-15.9,18.1c-0.5,1.2-0.6,2.2-1.1,3.5c-1.4,4.1-2.5,11.2-1.2,16.5c0,0.4,0,0.7,0,1.1c0.2,0.6,0.4,1.6,0.6,2.1
			c0.1,0.4,0.1,0.8,0.2,1.2c0.2,0.4,0.8,0.5,1.1,0.8c0,0.1,0,0.2,0,0.3c0.2,0.2,0.5,0.1,0.8,0.3c0.9,0.6,1.8,1.6,2.7,2.1
			c0.2,0,0.3,0,0.5,0c0.2,0.1,0.4,0.5,0.6,0.6c0.2,0,0.3,0,0.5,0c2.2,1.2,4.7,2.4,7.2,3.4c2.1,0.8,4.5,1.2,6.6,1.8
			c2.4,0.4,4.9,0.8,7.3,1.2c0.6,0,1.1,0,1.7,0c1.6,0.4,4,0.5,5.9,0.5c0-5.8-1.1-13.2,3.2-14.8C227.5,153.6,229.9,153.9,231.8,153.9z
			 M208.4,146.8c-0.7,1.7-1.7,2.8-3.5,3.4c-4.3,0-8.5,0-12.8,0c0-1.3-0.2-3.2,0.2-4.3c3.8,0,7.5,0,11.3,0c0.4-0.2,0.6-0.9,0.9-1.2
			c0-0.7,0-1.2-0.3-1.5c-0.2-0.8-1.6-1.2-2.1-0.8c-2.2,0-4.5,0-6.7,0c-1,0-2.4,0.1-3.2-0.2c0-1.5,0-2.9,0-4.4c3.8,0,7.5,0,11.3,0
			c1.4-1.5,1.3-1.9,0.2-3.5c-3.7,0-7.6-0.2-11.4-0.2c0-1.4,0-2.7,0-4.1c3.1,0,6.2,0,9.3,0c1.5,0,3.4-0.2,4.4,0.3
			c1.2,0.6,2,1.7,2.6,3c0.8,1.8,0.9,5.1-0.5,6.4c0.1,1.1,0.8,2,1.1,3C209.4,144.4,208.7,146,208.4,146.8z M261.9,138.1
			c-0.3-0.5-0.9-0.8-1.4-1.1c-1-0.8-2.1-1.7-3.2-2.4c-0.5-0.3-1-0.3-1.5-0.6c-1-0.5-2.2-1.3-3.2-1.8c-0.4-0.2-0.8-0.1-1.2-0.3
			c-2.8-1.2-6.1-2.1-9.3-3c-2.4-0.4-4.9-0.8-7.3-1.2c-0.6,0-1.1,0-1.7,0c-1.6-0.4-3.9-0.5-5.8-0.5c0,6.2,1.3,13.7-3.7,15.1
			c-1.8,0.1-3.7,0.1-5.5,0.2c-0.7,0-1.9-0.1-2.3,0.2c-0.6,0.2-0.5,0.5-0.9,0.9c0,1.2,0.2,1.6,0.6,2.3c1.2,0.5,3.5,0.3,5.2,0.3
			c3.6,0,7.1,0,10.7,0c1.9,0,4.2-0.2,5.5,0.5c2.6,1.4,4,6.9,1.7,9.8c-0.6,0.7-1.8,1.5-2.7,1.8c-0.6,0-1.1,0-1.7,0
			c-2.2,0-5.4-0.4-6.4,0.9c-1.1,1.5-0.6,5.3-0.6,7.8c0,6.5,0,12.9,0,19.4c15.2-1,24.9-9.1,31.1-19.2c0.2-0.4,0.2-0.8,0.5-1.2
			c1.1-2.2,1.9-4.1,2.7-6.7c1.4-4.1,2.5-11.2,1.2-16.5C262.3,141.2,262.5,139.3,261.9,138.1z"/>
	</g>
</g>
<g>
	<g>
		<path class="st0" d="M789.4,79c-0.1-0.4-0.1-0.8-0.3-1.1c0.1-0.2-0.2-0.6-0.3-0.8c-0.2-0.4-0.3-0.7-0.5-1c0-0.1,0-0.2-0.1-0.3
			c-0.2-0.3-0.5-0.7-0.7-1c-1.8-2.7-5.1-4.9-9.6-4.8c-0.1,0.1-0.3,0-0.5,0c-0.3,0.1-0.6,0-0.9,0.1c-0.7,0.2-1.4,0.3-2,0.6
			c-0.2,0.1-0.3,0.1-0.5,0.1c-2.8,1.4-4.9,3.4-6.1,6.4c-0.3,0.7-0.4,1.5-0.6,2.2c0,0.4,0,0.8-0.1,1.1c-0.2,0.8,0.1,2.5,0.3,3.1
			c0.1,0.4,0.1,0.7,0.2,1c0.6,1.5,1.3,2.9,2.3,3.9h0.1c0,0,0,0.1,0.1,0.1h0.1v0.1h0.1c0.1,0.1,0.2,0.3,0.3,0.4h0.1v0.1h0.1v0.1h0.1
			v0.1c0.1,0.1,0.2,0.1,0.3,0.1c0.3,0.2,0.5,0.5,0.9,0.7c0.1,0.1,0.2,0.1,0.3,0.1v0.1c0,0,0.1,0.1,0.1,0.1h0.1
			c0.2,0.1,0.3,0.3,0.5,0.4c0.2,0.1,0.4,0.1,0.6,0.2c0.7,0.4,1.6,0.6,2.5,0.9h0.3c0.1,0,0.4,0.1,0.6,0.1h0.4
			c0.3,0.1,1.3,0.2,1.7,0.1c0.2-0.1,0.5,0,0.8-0.1c0.8-0.2,1.5-0.3,2.2-0.5c3.3-1.3,5.2-3.2,6.7-6.3c0.2-0.3,0.2-0.6,0.3-1
			C789.6,83.1,789.9,80.7,789.4,79z M788.6,82.3c0,0.2,0,0.5-0.1,0.7c-0.2,0.8-0.4,1.5-0.7,2.2c-1.2,2.6-3.2,4.5-6,5.6
			c-0.7,0.3-1.5,0.3-2.3,0.5h-0.5c-0.3,0.1-0.9,0.1-1.3,0c-0.4-0.1-0.7,0-1-0.1c-0.8-0.2-1.5-0.4-2.2-0.7c-0.2-0.1-0.4-0.1-0.6-0.2
			c-2.2-1.1-3.9-2.8-4.9-5.1c-0.2-0.5-0.3-0.9-0.4-1.4c-0.2-0.7-0.6-2.4-0.3-3.4c0-0.2,0-0.5,0-0.7c0.2-0.7,0.3-1.4,0.5-2.1
			c1.1-2.6,2.9-4.7,5.4-5.8c0.6-0.3,1.4-0.5,2.1-0.7c0.3-0.1,0.6-0.1,0.9-0.1c0.2,0,0.4,0,0.5,0c1.2,0,2.4,0,3.3,0.3
			c3.1,1,5.4,2.9,6.7,5.8c0.2,0.4,0.2,0.7,0.4,1.1C788.5,79.1,788.9,81.1,788.6,82.3z M780.1,82.6c0.2,0,0.5,0,0.6,0
			c0.1,0,0.1-0.1,0.2-0.2c0-0.3-0.1-0.4-0.1-0.6c-0.4-0.1-1-0.1-1.4-0.1h-2.2c-0.5,0-1.1,0.1-1.4-0.1c-0.4-0.2-0.7-0.6-0.8-1v-0.3
			c0-0.1-0.1-0.4,0-0.6c0.1-0.2,0.2-0.5,0.3-0.6c0.1-0.2,0.4-0.3,0.7-0.4c0.5-0.1,1.4,0.2,1.7-0.1c0.5-0.2,0.3-1.1,0.3-1.7v-5.1
			c-1.8,0.1-3.1,0.7-4.3,1.3c-1.7,1-3,2.5-3.9,4.4c-0.1,0.3-0.2,0.5-0.3,0.9c-0.3,1-0.6,2.7-0.3,4v0.3c0,0.1,0.1,0.4,0.1,0.5
			c0,0.1,0,0.2,0,0.3c0,0.1,0.2,0.1,0.3,0.2v0.1c0.1,0,0.1,0,0.2,0.1c0.2,0.1,0.4,0.4,0.7,0.5h0.1c0,0,0.1,0.1,0.1,0.1h0.1
			c0.5,0.3,1.1,0.6,1.7,0.8c0.5,0.2,1.1,0.3,1.6,0.4c0.6,0.1,1.2,0.2,1.8,0.3h0.4c0.4,0.1,1,0.1,1.4,0.1c0-1.4-0.3-3.2,0.8-3.6
			C779.1,82.5,779.7,82.6,780.1,82.6z M774.4,80.9c-0.2,0.4-0.4,0.7-0.9,0.8h-3.1c0-0.3-0.1-0.8,0-1h2.7c0.1,0,0.1-0.2,0.2-0.3
			c0-0.2,0-0.3-0.1-0.4c-0.1-0.2-0.4-0.3-0.5-0.2h-1.6c-0.3,0-0.6,0-0.8,0v-1.1h2.7c0.3-0.4,0.3-0.5,0-0.9c-0.9,0-1.8,0-2.8,0v-1
			h2.3c0.4,0,0.8-0.1,1.1,0.1c0.3,0.1,0.5,0.4,0.6,0.7c0.2,0.4,0.2,1.2-0.1,1.6c0,0.3,0.2,0.5,0.3,0.7
			C774.7,80.3,774.5,80.7,774.4,80.9z M787.4,78.8c-0.1-0.1-0.2-0.2-0.3-0.3c-0.3-0.2-0.5-0.4-0.8-0.6c-0.1-0.1-0.2-0.1-0.4-0.1
			c-0.2-0.1-0.5-0.3-0.8-0.4c-0.1-0.1-0.2,0-0.3-0.1c-0.7-0.3-1.5-0.5-2.3-0.7c-0.6-0.1-1.2-0.2-1.8-0.3h-0.4
			c-0.4-0.1-1-0.1-1.4-0.1c0,1.5,0.3,3.3-0.9,3.7c-0.4,0-0.9,0-1.3,0c-0.2,0-0.5,0-0.6,0c-0.1,0-0.1,0.1-0.2,0.2
			c0,0.3,0.1,0.4,0.1,0.6c0.3,0.1,0.8,0.1,1.3,0.1h2.6c0.5,0,1-0.1,1.3,0.1c0.6,0.3,1,1.7,0.4,2.4c-0.1,0.2-0.4,0.4-0.7,0.4h-0.4
			c-0.5,0-1.3-0.1-1.6,0.2c-0.3,0.4-0.1,1.3-0.1,1.9v4.7c3.7-0.3,6-2.2,7.6-4.7c0.1-0.1,0.1-0.2,0.1-0.3c0.3-0.5,0.5-1,0.7-1.6
			c0.3-1,0.6-2.7,0.3-4C787.5,79.5,787.6,79,787.4,78.8z"/>
	</g>
</g>
</svg>
